<svg version="1.1"
	 xmlns="http://www.w3.org/2000/svg" xmlns:xlink="http://www.w3.org/1999/xlink" xmlns:a="http://ns.adobe.com/AdobeSVGViewerExtensions/3.0/"
	 x="0px" y="0px" width="25.7px" height="16.4px" viewBox="0 0 25.7 16.4" style="enable-background:new 0 0 25.7 16.4;"
	 xml:space="preserve">
<style type="text/css">
	.st0{fill:#FFFFFF;}
</style>
<defs>
</defs>
<g>
	<path class="st0" d="M9,9.9h4c-0.7,2-2.6,3.4-4.8,3.4c-2.7,0-4.9-2.2-5.1-4.9C3,5.5,5.3,3.1,8.2,3.1c1.3,0,2.5,0.5,3.4,1.3
		c0.2,0.2,0.5,0.2,0.8,0l1.5-1.4c0.2-0.2,0.2-0.6,0-0.8C12.4,0.9,10.5,0,8.4,0C3.8-0.1,0,3.6,0,8.2c0,4.6,3.7,8.3,8.2,8.3
		c4.4,0,8-3.4,8.2-7.7c0-0.1,0-1.9,0-1.9H9C8.7,6.8,8.5,7,8.5,7.3v2C8.5,9.7,8.7,9.9,9,9.9z"/>
	<path class="st0" d="M23.2,7V5c0-0.3-0.2-0.5-0.5-0.5h-1.7c-0.3,0-0.5,0.2-0.5,0.5v2h-2c-0.3,0-0.5,0.2-0.5,0.5v1.7
		c0,0.3,0.2,0.5,0.5,0.5h2v2c0,0.3,0.2,0.5,0.5,0.5h1.7c0.3,0,0.5-0.2,0.5-0.5v-2h2c0.3,0,0.5-0.2,0.5-0.5V7.5
		c0-0.3-0.2-0.5-0.5-0.5L23.2,7L23.2,7z"/>
</g>
</svg>
