<svg version="1.1"
	 xmlns="http://www.w3.org/2000/svg" xmlns:xlink="http://www.w3.org/1999/xlink" xmlns:a="http://ns.adobe.com/AdobeSVGViewerExtensions/3.0/"
	 x="0px" y="0px" width="24.2px" height="22.9px" viewBox="0 0 24.2 22.9" style="enable-background:new 0 0 24.2 22.9;"
	 xml:space="preserve">
<style type="text/css">
	.st0{fill:#00C300;}
	.st1{fill:#FFFFFF;}
</style>
<defs>
</defs>
<g>
	<path class="st0" d="M24.1,10.8c0.1-0.3,0.1-0.5,0.1-0.7c0-0.3,0-0.8,0-0.9C23.8,4.1,18.6,0,12.1,0C5.4,0,0,4.3,0,9.6
		c0,4.9,4.6,8.9,10.5,9.5c0.4,0,0.6,0.4,0.6,0.7l-0.3,2.3c-0.1,0.5,0.5,0.9,0.9,0.7c5-2.4,8-4.9,9.8-7c0.3-0.4,1.4-1.9,1.6-2.3
		C23.6,12.6,23.9,11.8,24.1,10.8L24.1,10.8z M24.1,10.8"/>
	<path class="st1" d="M5.4,11.6v-4c0-0.3-0.3-0.6-0.6-0.6c-0.3,0-0.6,0.3-0.6,0.6v4.7c0,0.3,0.3,0.6,0.6,0.6h2.5
		c0.3,0,0.6-0.3,0.6-0.6c0-0.3-0.3-0.6-0.6-0.6H5.4z M5.4,11.6"/>
	<path class="st1" d="M9.2,12.8H9c-0.3,0-0.5-0.2-0.5-0.5V7.4c0-0.3,0.2-0.5,0.5-0.5h0.3c0.3,0,0.5,0.2,0.5,0.5v4.9
		C9.7,12.6,9.5,12.8,9.2,12.8L9.2,12.8z M9.2,12.8"/>
	<path class="st1" d="M14.2,7.5v2.8c0,0-2.5-3.2-2.5-3.3c-0.1-0.1-0.3-0.2-0.5-0.2c-0.3,0-0.6,0.3-0.6,0.6v4.6
		c0,0.3,0.3,0.6,0.6,0.6c0.3,0,0.6-0.3,0.6-0.6V9.3c0,0,2.5,3.2,2.5,3.3c0.1,0.1,0.3,0.2,0.4,0.2c0.3,0,0.6-0.3,0.6-0.6V7.5
		c0-0.3-0.3-0.6-0.6-0.6C14.5,6.9,14.2,7.2,14.2,7.5L14.2,7.5z M14.2,7.5"/>
	<path class="st1" d="M20.1,7.5c0-0.3-0.3-0.6-0.6-0.6H17c-0.3,0-0.6,0.3-0.6,0.6v4.7c0,0.3,0.3,0.6,0.6,0.6h2.5
		c0.3,0,0.6-0.3,0.6-0.6c0-0.3-0.3-0.6-0.6-0.6h-1.9v-1.1h1.9c0.3,0,0.6-0.3,0.6-0.6c0-0.3-0.3-0.6-0.6-0.6h-1.9V8.1h1.9
		C19.8,8.1,20.1,7.8,20.1,7.5L20.1,7.5z M20.1,7.5"/>
</g>
</svg>
