<svg version="1.1"
	 xmlns="http://www.w3.org/2000/svg" xmlns:xlink="http://www.w3.org/1999/xlink" xmlns:a="http://ns.adobe.com/AdobeSVGViewerExtensions/3.0/"
	 x="0px" y="0px" width="32.9px" height="33px" viewBox="0 0 32.9 33" style="enable-background:new 0 0 32.9 33;"
	 xml:space="preserve">
<style type="text/css">
	.st0{fill:#FFCF5C;}
	.st1{fill:#F6B44C;}
	.st2{fill:#40596B;}
	.st3{fill:#F0F0F0;}
	.st4{fill:#CBD4DE;}
	.st5{fill:#FF7058;}
</style>
<defs>
</defs>
<path class="st0" d="M32.9,31.6c0,0.4-0.1,0.8-0.4,1c-0.3,0.2-0.5,0.3-1,0.3H1.4c-0.3,0-0.7-0.1-1-0.3C0.1,32.4,0,32,0,31.6V11.5
	h32.9V31.6z"/>
<path class="st1" d="M32.5,32.6c-0.3,0.2-0.5,0.3-1,0.3H1.4c-0.3,0-0.7-0.1-1-0.3l16.1-13.8L32.5,32.6z"/>
<path class="st2" d="M32.9,11.5l-4.7,3.4l-10.9,7.8c-0.5,0.4-1.3,0.4-1.9,0L4.7,14.9L0,11.5l4.7-3.4l10.2-7.3l0.8-0.5
	c0.5-0.4,1.3-0.4,1.9,0l0.8,0.5l4.9,3.5l2.4,1.7l2.8,2.1L32.9,11.5z"/>
<path class="st3" d="M28.3,5.1v9.7l-10.9,7.8c-0.5,0.4-1.3,0.4-1.9,0L4.7,14.9V2.2c0-0.8,0.6-1.4,1.4-1.4H24L28.3,5.1z"/>
<path class="st4" d="M24,5c0,0.6,0.5,1.1,1.1,1.1h3.2L24,1.9L24,5L24,5z"/>
<path class="st5" d="M20.5,14.7h1.1c-0.3,0.8-0.9,1.3-1.6,1.7c-0.8,0.5-1.9,0.7-3.1,0.7c-1.2,0-2.2-0.2-3-0.6
	c-0.8-0.4-1.5-1-1.9-1.8c-0.4-0.8-0.6-1.6-0.6-2.5c0-1,0.2-1.9,0.7-2.8c0.5-0.9,1.1-1.5,1.9-1.9c0.8-0.4,1.8-0.6,2.8-0.6
	c0.9,0,1.7,0.2,2.4,0.5c0.7,0.3,1.2,0.8,1.6,1.5c0.3,0.6,0.5,1.4,0.5,2.1c0,0.9-0.3,1.7-0.8,2.5c-0.7,1-1.6,1.4-2.7,1.4
	c-0.3,0-0.5-0.1-0.7-0.1c-0.1-0.1-0.3-0.3-0.3-0.5c-0.4,0.4-0.9,0.6-1.4,0.6c-0.6,0-1.1-0.2-1.4-0.6c-0.4-0.4-0.6-1-0.6-1.6
	c0-0.8,0.2-1.6,0.7-2.3C14.5,9.4,15.3,9,16.2,9c0.6,0,1.1,0.3,1.4,0.8l0.1-0.6h1.4l-0.8,3.8c-0.1,0.3-0.1,0.4-0.1,0.5s0,0.1,0.1,0.2
	c0.1,0.1,0.1,0.1,0.1,0.1c0.1,0,0.4-0.1,0.7-0.3c0.3-0.3,0.7-0.6,0.9-1.1c0.2-0.5,0.3-1,0.3-1.4c0-0.9-0.3-1.6-1-2.2
	C18.9,8,18,7.7,16.8,7.7c-1,0-1.8,0.2-2.5,0.6c-0.7,0.4-1.2,1-1.5,1.6c-0.3,0.7-0.5,1.4-0.5,2.3c0,0.8,0.2,1.4,0.5,2.1
	c0.4,0.6,0.9,1.1,1.6,1.4c0.7,0.3,1.4,0.4,2.3,0.4c0.8,0,1.6-0.1,2.2-0.3C19.6,15.5,20.1,15.1,20.5,14.7z M14.7,12.5
	c0,0.5,0.1,0.8,0.3,1c0.2,0.2,0.4,0.3,0.7,0.3c0.2,0,0.4-0.1,0.5-0.1c0.1-0.1,0.3-0.2,0.4-0.3c0.2-0.2,0.3-0.5,0.5-1
	c0.1-0.4,0.2-0.8,0.2-1.2c0-0.4-0.1-0.7-0.3-1c-0.2-0.2-0.4-0.3-0.7-0.3c-0.3,0-0.6,0.1-0.8,0.3c-0.3,0.2-0.5,0.5-0.6,1
	C14.8,11.7,14.7,12.1,14.7,12.5z"/>
</svg>
