<svg version="1.1"
	 xmlns="http://www.w3.org/2000/svg" xmlns:xlink="http://www.w3.org/1999/xlink" xmlns:a="http://ns.adobe.com/AdobeSVGViewerExtensions/3.0/"
	 x="0px" y="0px" width="32px" height="32px" viewBox="0 0 32 32" style="enable-background:new 0 0 32 32;" xml:space="preserve">
<style type="text/css">
	.st0{fill:#7381BD;}
	.st1{fill:#434C6D;}
	.st2{fill:#EBE9D8;}
	.st3{fill:#A2E669;}
	.st4{fill:#CCC7AC;}
</style>
<defs>
</defs>
<g>
	<path class="st0" d="M30.9,5.5H1.1C0.5,5.5,0,6,0,6.6v18.8c0,0.6,0.5,1.1,1.1,1.1h4.4L6.6,21h18.8l1.1,5.5h4.4
		c0.6,0,1.1-0.5,1.1-1.1V6.6C32,6,31.5,5.5,30.9,5.5"/>
	<g>
		<path class="st1" d="M0,18.8v6.6c0,0.6,0.5,1.1,1.1,1.1h4.4L6.6,21h18.8l1.1,5.5h4.4c0.6,0,1.1-0.5,1.1-1.1v-6.6H0z"/>
		<path class="st1" d="M24.3,13.8H7.7c-1.2,0-2.2-1-2.2-2.2V5.5h21v6.1C26.5,12.8,25.5,13.8,24.3,13.8"/>
	</g>
	<g>
		<path class="st2" d="M26.9,32H5.1c-0.3,0-0.6-0.3-0.5-0.7L6.6,21h18.8l2.1,10.4C27.5,31.7,27.3,32,26.9,32"/>
		<path class="st2" d="M24.8,5.5H7.2v-5C7.2,0.2,7.4,0,7.7,0h16.6c0.3,0,0.6,0.2,0.6,0.6V5.5z"/>
	</g>
	<polygon class="st3" points="17.7,11.6 24.3,11.6 24.3,8.3 17.7,8.3 	"/>
	<g>
		<path class="st4" d="M20.4,24.3h-8.8c-0.3,0-0.6-0.2-0.6-0.6c0-0.3,0.2-0.6,0.6-0.6h8.8c0.3,0,0.6,0.2,0.6,0.6
			C21,24,20.7,24.3,20.4,24.3"/>
		<path class="st4" d="M22.1,27.1H9.9c-0.3,0-0.6-0.2-0.6-0.6c0-0.3,0.2-0.6,0.6-0.6h12.1c0.3,0,0.6,0.2,0.6,0.6
			C22.6,26.8,22.4,27.1,22.1,27.1"/>
		<path class="st4" d="M23.7,29.8H8.3c-0.3,0-0.6-0.2-0.6-0.6c0-0.3,0.2-0.6,0.6-0.6h15.5c0.3,0,0.6,0.2,0.6,0.6
			C24.3,29.6,24,29.8,23.7,29.8"/>
	</g>
</g>
</svg>
