<svg version="1.1"
	 xmlns="http://www.w3.org/2000/svg" xmlns:xlink="http://www.w3.org/1999/xlink" xmlns:a="http://ns.adobe.com/AdobeSVGViewerExtensions/3.0/"
	 x="0px" y="0px" width="22.7px" height="20.3px" viewBox="0 0 22.7 20.3" style="enable-background:new 0 0 22.7 20.3;"
	 xml:space="preserve">
<style type="text/css">
	.st0{fill:#FFFFFF;}
</style>
<defs>
</defs>
<path class="st0" d="M2.8,7.5C3.9,3.2,7.9,0,12.6,0c5.6,0,10.2,4.6,10.2,10.2c0,5.6-4.6,10.2-10.2,10.2c-2.6,0-4.9-1-6.7-2.5L7.5,15
	c1.3,1.3,3.1,2.2,5.1,2.2c3.9,0,7.1-3.2,7.1-7.1c0-3.9-3.2-7.1-7.1-7.1c-3,0-5.5,1.8-6.5,4.4h2.4l-4.2,7.3L0,7.5H2.8z"/>
</svg>
