<?xml version="1.0" encoding="utf-8"?>
<!-- Generator: Adobe Illustrator 21.0.2, SVG Export Plug-In . SVG Version: 6.00 Build 0)  -->
<svg version="1.1" id="圖層_1" xmlns="http://www.w3.org/2000/svg" xmlns:xlink="http://www.w3.org/1999/xlink" x="0px" y="0px"
	 width="478px" height="122.5px" viewBox="0 0 478 122.5" style="enable-background:new 0 0 478 122.5;" xml:space="preserve">
<style type="text/css">
	.st0{clip-path:url(#SVGID_2_);}
	.st1{opacity:0.65;}
	.st2{fill:#311301;}
	.st3{fill:#EEEEEF;}
	.st4{fill:#DBDCDC;}
	.st5{fill:#333333;}
	.st6{fill:#F3D2B9;}
	.st7{fill:#705E52;}
	.st8{fill:#EACBB2;}
	.st9{fill:#40210F;}
	.st10{fill:#FFFFFF;}
	.st11{fill:#E9C1A6;}
	.st12{fill:#EF8585;}
	.st13{fill:#9A7CB5;}
	.st14{fill:#9577B3;}
	.st15{fill:#F7F7F7;}
	.st16{fill:#9475B1;}
	.st17{fill:#8564A9;}
	.st18{fill:#F4A45C;}
	.st19{fill:#FFF571;}
	.st20{fill:#E5E5E5;}
	.st21{fill:#F2F2F2;}
	.st22{fill:#D9D9D9;}
	.st23{fill:#BFBFBF;}
	.st24{fill:#CCCCCC;}
	.st25{fill:#2E2624;}
	.st26{fill:#3E3A39;}
	.st27{fill:#9E9E9F;}
	.st28{fill:#2B2320;}
	.st29{fill:#9C928D;}
	.st30{fill:#968C87;}
	.st31{fill:#E1C3AC;}
	.st32{fill:#CDA16F;}
	.st33{fill:#775B3E;}
	.st34{fill:#70563A;}
	.st35{fill:#695035;}
	.st36{fill:#7D6042;}
	.st37{fill:#C0BAB8;}
	.st38{fill:#DBD7D5;}
	.st39{fill:#C8C3C0;}
	.st40{fill:#BE8915;}
	.st41{fill:#7ECEF4;}
	.st42{fill:#A69D99;}
	.st43{fill:#B7B0AC;}
	.st44{fill:#F7B52C;}
	.st45{fill:#F18D00;}
	.st46{fill:#F4B2BA;}
	.st47{fill:#C8C9CA;}
	.st48{fill:#9FD9F6;}
	.st49{fill:#BAE3F9;}
	.st50{fill:#8FD3F5;}
	.st51{fill:#ADDEF8;}
	.st52{fill:#007BC7;}
	.st53{fill:#0076B0;}
	.st54{fill:#FFF9B1;}
	.st55{fill:#F7F5BC;}
	.st56{fill:#F9F1AB;}
	.st57{fill:#F0EFB7;}
	.st58{fill:#B3B3B3;}
</style>
<g>
	<g>
		<defs>
			<rect id="SVGID_1_" x="0.8" y="0.5" width="477" height="122"/>
		</defs>
		<clipPath id="SVGID_2_">
			<use xlink:href="#SVGID_1_"  style="overflow:visible;"/>
		</clipPath>
		<g class="st0">
			<g class="st1">
				<circle class="st2" cx="165.3" cy="12.7" r="7.9"/>
				<g>
					<g>
						<g>
							<path class="st3" d="M189.4,135.3h-3.6c-3.6,0-6.5-2.9-6.5-6.5v-24.1c0-3.6,2.9-6.5,6.5-6.5h3.6c3.6,0,6.5,2.9,6.5,6.5v24.1
								C195.9,132.4,193.1,135.3,189.4,135.3z M185.9,99.6c-2.8,0-5.1,2.3-5.1,5.1v24.1c0,2.8,2.3,5.1,5.1,5.1h3.6
								c2.8,0,5.1-2.3,5.1-5.1v-24.1c0-2.8-2.3-5.1-5.1-5.1C189.5,99.6,185.9,99.6,185.9,99.6z"/>
							<path class="st4" d="M189.4,135.5h-3.6c-3.7,0-6.7-3-6.7-6.7v-24.1c0-3.7,3-6.7,6.7-6.7h3.6c3.7,0,6.7,3,6.7,6.7v24.1
								C196.1,132.5,193.1,135.5,189.4,135.5z M185.9,98.4c-3.5,0-6.3,2.8-6.3,6.3v24.1c0,3.5,2.8,6.3,6.3,6.3h3.6
								c3.5,0,6.3-2.8,6.3-6.3v-24.1c0-3.5-2.8-6.3-6.3-6.3H185.9z M189.4,134.1h-3.6c-2.9,0-5.3-2.4-5.3-5.3v-24.1
								c0-2.9,2.4-5.3,5.3-5.3h3.6c2.9,0,5.3,2.4,5.3,5.3v24.1C194.8,131.7,192.4,134.1,189.4,134.1z M185.9,99.7c-2.7,0-5,2.2-5,5
								v24.1c0,2.7,2.2,5,5,5h3.6c2.7,0,5-2.2,5-5v-24.1c0-2.7-2.2-5-5-5C189.5,99.7,185.9,99.7,185.9,99.7z"/>
						</g>
					</g>
					<g>
						<path class="st5" d="M195.3,105.8c-0.6,0-1-0.5-1-1c0-2.6-2.2-4.8-4.8-4.8h-3.6c-2.6,0-4.8,2.2-4.8,4.8c0,0.6-0.5,1-1,1
							c-0.6,0-1-0.5-1-1c0-3.8,3.1-6.9,6.9-6.9h3.6c3.8,0,6.9,3.1,6.9,6.9C196.3,105.3,195.9,105.8,195.3,105.8z"/>
					</g>
				</g>
				<g>
					<path class="st6" d="M178.4,97.4c-9.5,0.5-15.4,8.1-15.4,8.1s2,5.8,2.6,10.8c0.5,4.9-0.2,12.5,0.6,15.7c0,0,4.2,3,8.6,0
						c0,0,0.3-6,1.2-10.7C177.1,116.7,180.8,101.4,178.4,97.4z"/>
				</g>
				<g>
					<path class="st6" d="M151.9,97.4c9.5,0.5,15.4,8.1,15.4,8.1s-2,5.8-2.6,10.8c-0.5,4.9,0.2,12.5-0.6,15.7c0,0-4.2,3-8.6,0
						c0,0-0.3-6-1.2-10.7C153.4,116.7,149.6,101.4,151.9,97.4z"/>
				</g>
				<g>
					<path class="st7" d="M178.4,97.4c-9.5,0.5-15.4,8.1-15.4,8.1s2,5.8,2.6,10.8c0.5,4.9-0.2,12.5,0.6,15.7c0,0,4.2,3,8.6,0
						c0,0,0.3-6,1.2-10.7C177.1,116.7,180.8,101.4,178.4,97.4z"/>
				</g>
				<g>
					<path class="st7" d="M151.9,97.4c9.5,0.5,15.4,8.1,15.4,8.1s-2,5.8-2.6,10.8c-0.5,4.9,0.2,12.5-0.6,15.7c0,0-4.2,3-8.6,0
						c0,0-0.3-6-1.2-10.7C153.4,116.7,149.6,101.4,151.9,97.4z"/>
				</g>
				<path class="st8" d="M177.8,86.3c-1.9-3.1-4-7.4-1.5-14.1c2.2-6,0.7-9,0.7-9c2.2-3.7,1.9-7.1,1.9-7.1c-1.2-2.7-6.8-2.8-8.5-2.9
					c-1.7-0.1-1.6-4.1-1.6-4.1l-3.4,0.6l-3.4-0.6c0,0,0.1,4-1.6,4.1c-1.7,0.1-7.3,0.3-8.5,2.9c0,0-0.4,3.3,1.9,7.1c0,0-1.5,3,0.7,9
					c2.4,6.7,0.3,11-1.5,14.1s-2.9,5.8-2.9,11.1c0,0,6.7,7.4,15.3,8.1l0,0l0,0l0,0l0,0c8.7-0.7,15.3-8.1,15.3-8.1
					C180.6,92.1,179.6,89.3,177.8,86.3z"/>
				<g>
					<path class="st9" d="M147.1,31.1c0-10,8.1-18.1,18.2-18.1c10,0,18.2,8.1,18.2,18.1c0,0.5,0,1-0.1,1.5c0,0.3,0.1,0.7,0.1,1.1
						c0.3-1.2,0.4-2.4,0.4-3.7c0-9.9-8.3-18-18.5-18s-18.5,8.1-18.5,18c0,1.3,0.1,2.5,0.4,3.7c0-0.4,0-0.7,0.1-1.1
						C147.1,32.1,147.1,31.6,147.1,31.1z"/>
					<path class="st6" d="M174.8,23c-6,7.1-14.6,9.3-14.6,9.3c4-1.4,6.4-5.8,6.4-5.8c-5.7,5.7-13.7,6.8-17.3,7.1v0.1
						c0.8,3.1-0.3,6.8,3.2,10.3c3.6,3.5,9.7,6.3,12.7,6.3s9.1-2.8,12.7-6.3c3.6-3.5,2.3-7.3,3.3-10.4v-0.1
						C180.9,29.3,178.4,25.5,174.8,23z"/>
					<path class="st8" d="M149.4,33.7c0.4,0,0.9-0.1,1.4-0.1c-0.6-0.5-1.2-0.9-1.1-1.3c-0.6-0.2-1.3-0.2-1.8,0
						c-1.4,0.7-1.9,2.7-1,4.6c0.7,1.5,2,2.4,3.3,2.4c-0.4-1.9-0.2-3.8-0.7-5.5C149.4,33.7,149.4,33.7,149.4,33.7z"/>
					<path class="st8" d="M182.9,32.3c-0.6-0.3-1.2-0.3-1.8-0.1c0.1,0.5,0.1,0.9,0.2,1.4v0.1c-0.5,1.7-0.3,3.6-0.7,5.6
						c1.3,0.1,2.6-0.9,3.3-2.4C184.6,35,184.3,32.9,182.9,32.3z"/>
					<path class="st9" d="M165.3,18.5c9.5,0,17.3,6.2,18.1,14.1c0-0.5,0.1-1,0.1-1.5c0-10-8.1-18.1-18.2-18.1
						c-10,0-18.2,8.1-18.2,18.1c0,0.5,0,1,0.1,1.5C147.9,24.7,155.8,18.5,165.3,18.5z"/>
					<path class="st9" d="M170.8,29.1c-1.1,0-2,0.5-2.5,1.2c0.2-1.1,1.2-1.9,2.5-1.9s2.3,0.8,2.5,1.9
						C172.8,29.6,171.9,29.1,170.8,29.1z"/>
					<path class="st9" d="M149.9,39.1c0,0.1,0,0.1,0,0.2c0,0,0,0-0.1-0.1c-0.5-0.4-1-0.9-1.3-1.5l0,0l0,0c-0.3-0.6-0.7-1.3-0.9-1.9
						c-0.3-1.1-0.5-2.2-0.6-3.3c0.8-7.9,8.6-14.1,18.1-14.1s17.3,6.2,18.1,14.1c-0.2,5.4-2.9,6.7-2.9,6.7c0.4-2,0.2-3.9,0.7-5.6
						v-0.1c-0.3-4.1-2.5-7.7-5.8-10.1c-5.8,6.3-13.4,8.4-15.1,8.8c-0.1,0-0.1,0-0.1,0l0,0c-0.2,0-0.2,0.1-0.2,0.1
						c3.9-1.3,6.3-5.5,6.3-5.5l0,0c-0.2,0.2-0.5,0.4-0.7,0.6l0,0c-5.6,4.9-12.9,5.9-16.3,6.1v0.1C149.8,35.4,149.6,37.2,149.9,39.1
						L149.9,39.1z"/>
					<g>
						<g>
							<g>
								<ellipse cx="158.8" cy="33.9" rx="1.4" ry="2.5"/>
								<ellipse class="st10" cx="159.1" cy="34.4" rx="0.5" ry="0.9"/>
							</g>
							<path class="st11" d="M158.9,37.8c-0.7,0-1.3-0.5-1.6-1.2c0.1,1.1,0.8,1.9,1.6,1.9s1.5-0.8,1.6-1.9
								C160.4,37.3,159.8,37.8,158.9,37.8z"/>
						</g>
						<g>
							<g>
								<ellipse cx="171.8" cy="33.9" rx="1.4" ry="2.5"/>
								<ellipse class="st10" cx="171.4" cy="34.4" rx="0.5" ry="0.9"/>
							</g>
							<path class="st11" d="M171.6,37.8c0.7,0,1.3-0.5,1.6-1.2c-0.1,1.1-0.8,1.9-1.6,1.9s-1.5-0.8-1.6-1.9
								C170.1,37.3,170.9,37.8,171.6,37.8z"/>
						</g>
					</g>
					<path class="st11" d="M165.3,39.1c0.6,0,1.1,0.3,1.4,0.9c-0.1-0.8-0.7-1.5-1.4-1.5s-1.3,0.6-1.4,1.5
						C164.1,39.5,164.6,39.1,165.3,39.1z"/>
					<g>
						<g>
							
								<image style="overflow:visible;enable-background:new    ;" width="325" height="325" xlink:href="A72BE9F2.png"  transform="matrix(0.2348 0 0 0.2348 115.6194 1.47)">
							</image>
						</g>
						<g>
							
								<image style="overflow:visible;enable-background:new    ;" width="325" height="325" xlink:href="A72BE9F6.png"  transform="matrix(0.2348 0 0 0.2348 138.6741 1.47)">
							</image>
						</g>
					</g>
					<path class="st12" d="M165.3,44c0,0-0.7,0.2-2.6,0c0,1.1,1.2,2.7,2.6,2.7c1.4,0,2.6-1.7,2.6-2.7C166.1,44.2,165.3,44,165.3,44z
						"/>
				</g>
				<path class="st8" d="M156.4,56.5c0,0-2.9-2.8-24.1-2.7c0,0-1.2,1.9,0.1,4c0,0,7.2,1.8,19.9,2.3
					C152.3,60.2,155.1,60.4,156.4,56.5z"/>
				<path class="st8" d="M132.4,57.9c0,0,3-1.3,7.5-8.2c2.4-3.8,4.9-6.1,5.2-6.4c0,0-0.8-2.3-2.6-1.9c0,0-0.8,1.3-4.2,4.2
					s-7.3,6.8-8.4,9C129.9,54.7,130.3,56.8,132.4,57.9z"/>
				<path class="st8" d="M152.9,31.2c0-0.4-0.4-0.5-0.4-0.5s0.3-0.6,0-1.3c-0.4-0.6-1-0.5-1.2,0c-0.2,0.6-0.7,1.1-0.7,1.1
					c-2.9,1.9-3.4,3.7-3.4,3.7s-2.1,2.1-2.8,3.8s-1.9,3.5-1.9,3.5c0.9,2.4,2.6,1.9,2.6,1.9c0.4-0.4,1.4-0.9,2.6-1.9
					c1.7-1.4,0.4-3.8,1.3-4.5c2.1-1.6,1.9-2,1.6-2.3c-0.2-0.3-0.5-0.4-0.8-0.4C152.4,32.7,153.1,31.6,152.9,31.2z"/>
				<path class="st8" d="M177.4,54.7c0,0,2.9,1.4,12.5,20.8c0,0-0.9,2.1-3.4,2.3c0,0-2.4-3.3-9.6-14.6
					C176.9,63.1,175.1,58,177.4,54.7z"/>
				<path class="st13" d="M165.3,93.8c0,0-7.9-0.6-15.9,3.7c0,0-1.3,5.1,2.5,27c1.1,6.1,1.3,12.2,0.9,14.1c0,0,4.4,4,12.5,4V93.8z"
					/>
				<path class="st14" d="M165.1,93.8c0,0,7.9-0.6,15.9,3.7c0,0,1.3,5.1-2.5,27c-1.1,6.1-1.3,12.2-0.9,14.1c0,0-4.4,4-12.5,4V93.8z"
					/>
				<path class="st13" d="M170.8,53.2c0,0,4.7,0,7.1,1.7c0,0-1.3,5.4-0.6,9.2c0,0,1.2,3.7-1.5,10.4c-1.7,4.9,0.6,9.4,3.1,13.3
					c2.6,3.9,3.9,9.8,4,11.4c0,0-5.2,3.3-14.3,4.2c0,0-0.9-3.6-3.2-7c0-8.8,0-35.5,0-35.5l0.7-2.4L170.8,53.2z"/>
				<g>
					<path class="st10" d="M168.4,103.6c-0.1,0-0.2-0.1-0.2-0.2c0,0-0.9-3.6-3.1-6.9c-0.1-0.1,0-0.2,0.1-0.3c0.1-0.1,0.2,0,0.3,0.1
						c2,2.9,2.9,6,3.2,6.8c8.9-0.9,14-4.1,14.1-4.1c0.1-0.1,0.2,0,0.3,0.1s0,0.2-0.1,0.3C182.9,99.4,177.6,102.7,168.4,103.6
						L168.4,103.6z"/>
				</g>
				<path class="st14" d="M159.8,53.2c0,0-4.7,0-7.1,1.7c0,0,1.3,5.4,0.6,9.2c0,0-1.2,3.7,1.5,10.4c1.7,4.9-0.6,9.4-3.1,13.3
					c-2.6,3.9-3.9,9.8-4,11.4c0,0,5.2,3.3,14.3,4.2c0,0,0.9-3.6,3.2-7c0-8.8-0.3-37.6-0.3-37.6l-0.4-0.2L159.8,53.2z"/>
				<g>
					<g>
						<path class="st14" d="M168.9,50.5l1.9,2.7c0,0,0,3.8-5.1,5.5c0,0-0.4-1.8,0.4-3.3C166.8,53.8,168.8,53.3,168.9,50.5z"/>
						<g>
							<path class="st15" d="M165.6,58.9c-0.1,0-0.2-0.1-0.2-0.2c0-0.1-0.4-1.9,0.4-3.5c0.3-0.6,0.7-1,1.2-1.4
								c0.8-0.8,1.6-1.6,1.7-3.3c0-0.1,0.1-0.2,0.2-0.2c0.1,0,0.2,0.1,0.2,0.2c-0.1,1.9-1,2.8-1.8,3.6c-0.4,0.4-0.8,0.8-1.1,1.3
								c-0.7,1.4-0.3,3.2-0.3,3.2C165.9,58.7,165.9,58.8,165.6,58.9C165.8,58.9,165.6,58.9,165.6,58.9z"/>
						</g>
					</g>
					<g>
						<path class="st13" d="M161.6,50.5l-1.9,2.7c0,0,0,3.8,5.1,5.5c0,0,0.4-1.8-0.4-3.3C163.9,53.8,161.9,53.3,161.6,50.5z"/>
						<g>
							<path class="st10" d="M164.9,58.9c0.1,0,0.2-0.1,0.2-0.2c0-0.1,0.4-1.9-0.4-3.5c-0.3-0.6-0.7-1-1.2-1.4
								c-0.8-0.8-1.6-1.6-1.7-3.3c0-0.1-0.1-0.2-0.2-0.2c-0.1,0-0.2,0.1-0.2,0.2c0.1,1.9,1,2.8,1.8,3.6c0.4,0.4,0.8,0.8,1.1,1.3
								c0.7,1.4,0.3,3.2,0.3,3.2C164.6,58.7,164.8,58.8,164.9,58.9C164.9,58.9,164.9,58.9,164.9,58.9z"/>
						</g>
					</g>
				</g>
				<g>
					<g>
						<path class="st16" d="M163.1,103.5l-1.8-0.2c0.3-2.9,1.1-4.4,1.8-5.8c0.4-0.8,0.7-1.5,1-2.4c1.5-5.4,0.9-11.9,0.3-18.2
							c-0.9-9.8,0.7-17.8,0.8-18.1L167,59c0,0.1-1.7,8.2-0.8,17.7c0.6,6.2,1.3,13.2-0.3,18.9c-0.3,1.1-0.7,1.9-1.1,2.7
							C163.9,99.6,163.3,100.9,163.1,103.5z"/>
					</g>
					<g>
						<g>
							<circle class="st17" cx="166.4" cy="60.3" r="1"/>
							<circle class="st14" cx="166.6" cy="60.1" r="1"/>
						</g>
						<g>
							<circle class="st17" cx="165.9" cy="65.2" r="1"/>
							<circle class="st14" cx="166.1" cy="65" r="1"/>
						</g>
					</g>
				</g>
				<g>
					<path class="st18" d="M174.4,61.4h-5.1c-0.6,0-1.1,0.5-1.1,1.1l0,0c0,0.6,0.5,1.1,1.1,1.1h5.1c0.6,0,1.1-0.5,1.1-1.1l0,0
						C175.6,61.9,175.1,61.4,174.4,61.4z"/>
					<path class="st19" d="M174.6,61.2h-5.1c-0.6,0-1.1,0.5-1.1,1.1l0,0c0,0.6,0.5,1.1,1.1,1.1h5.1c0.6,0,1.1-0.5,1.1-1.1l0,0
						C175.8,61.6,175.3,61.2,174.6,61.2z"/>
				</g>
				<path class="st13" d="M152.8,54.8c0,0-9.4-1.1-15.9-1c0,0,2.6-2.5,4.9-5.6c2.2-2.9,3.4-4.5,3.4-4.5s-1.1-2.1-3.1-2.5
					c0,0-1.6,2.1-5.9,6c-4.2,3.8-6.2,7.5-6.2,7.5s0.1,2.2,2.5,3.4c0,0,5.5,1.5,13.9,2c7.2,0.5,7,3.9,7,3.9S154.4,60.3,152.8,54.8z"
					/>
				<path class="st8" d="M186.9,72.9c0,0-2.6,1.9-5.8,9.5c-1.6,4.2-3.6,6.9-3.9,7.3c0,0,1.2,2.1,2.9,1.3c0,0,0.6-1.4,3.3-4.9
					c2.8-3.5,5.8-8,6.5-10.5C189.9,75.5,189.1,73.5,186.9,72.9z"/>
				<path class="st8" d="M180.3,88.8c0,0,0.7,2.1,1.5,3.7s1.1,4.6,1.1,4.6s1.1,1.5,0.7,5c0,0,0.1,0.7,0.4,1.2c0.3,0.5-0.1,1.1-0.8,1
					s-1-0.8-1-0.8s-0.3,0.2-0.6,0s-0.9-1.4-0.3-4.3c0,0-0.7-3.3-1.6-3.2c-0.9,0.1-0.4,1-0.4,1.6s0,2.2-1.4,2.2
					c-0.4,0-0.5-0.2-0.5-2.8c0-1.1-0.5-2.1-0.3-4.1s0.2-2.7,0.2-3.3C177.3,89.7,177.9,88,180.3,88.8z"/>
				<path class="st14" d="M177.9,54.8c0,0,4.1,3,12.1,20.7c0,0-1.9,6.5-6.4,11.7c-0.8,1-1.9,2.7-2.1,3.8c0,0-3-0.4-3.7-3
					c0,0,2-3.7,3-6.3c1-2.6,1.5-3.6,3.2-6.2c0.1-0.3,0.1-0.7-0.4-1.5c-0.3-0.4-4.1-7.3-6.3-10.1C177.3,64,176.1,59.3,177.9,54.8z"/>
				<g>
					<path class="st15" d="M163.1,103.7L163.1,103.7c-9.1-0.9-15.3-4.3-15.4-4.3c-0.1-0.1-0.1-0.2-0.1-0.3c0.1-0.1,0.2-0.1,0.3-0.1
						s6.1,3.4,15.2,4.3c0.1,0,0.2,0.1,0.2,0.2C163.3,103.6,163.1,103.7,163.1,103.7z"/>
				</g>
			</g>
			<g class="st1">
				<g>
					<g>
						<path class="st8" d="M63.5,54.6c0,0,1.4,2.1,1.1,24.4c0,0-1.9,1.2-4,0c0,0-1.1-4.9-0.8-18.3C59.8,60.7,59.5,55.9,63.5,54.6z"
							/>
						<path class="st8" d="M61,77.2c0,0-2.1,2.4-3.3,10.6c-0.6,4.5-1.8,7.5-2,8c0,0,1.7,1.7,3.1,0.6c0,0,0.2-1.5,2-5.6
							c1.8-4,3.7-9.2,3.8-11.8C64.6,79,63.3,77.2,61,77.2z"/>
						<path class="st8" d="M58.8,96.3c0,0-0.3,2.1-0.2,4c0.1,1.8-0.9,4.6-0.9,4.6s0.3,1.9-1.5,4.8c0,0-0.2,0.7-0.1,1.2
							c0.1,0.6-0.5,1-1.1,0.5c-0.6-0.4-0.6-1.1-0.6-1.1s-0.4,0-0.6-0.3c-0.2-0.3-0.2-1.6,1.5-4c0,0,0.7-3.3-0.1-3.5
							c-0.8-0.3-0.8,0.7-1,1.2c-0.2,0.6-1,2-2.2,1.4c-0.4-0.2-0.4-0.4,0.8-2.7c0.5-1,0.5-2.1,1.5-3.8c1-1.7,1.3-2.3,1.6-2.9
							C55.5,95.8,56.8,94.6,58.8,96.3z"/>
					</g>
					<g>
						<path class="st6" d="M63.5,54.6c0,0,1.4,2.1,1.1,24.4c0,0-1.9,1.2-4,0c0,0-1.1-4.9-0.8-18.3C59.8,60.7,59.5,55.9,63.5,54.6z"
							/>
						<path class="st6" d="M61,77.2c0,0-2.1,2.4-3.3,10.6c-0.6,4.5-1.8,7.5-2,8c0,0,1.7,1.7,3.1,0.6c0,0,0.2-1.5,2-5.6
							c1.8-4,3.7-9.2,3.8-11.8C64.6,79,63.3,77.2,61,77.2z"/>
						<path class="st6" d="M58.8,96.3c0,0-0.3,2.1-0.2,4c0.1,1.8-0.9,4.6-0.9,4.6s0.3,1.9-1.5,4.8c0,0-0.2,0.7-0.1,1.2
							c0.1,0.6-0.5,1-1.1,0.5c-0.6-0.4-0.6-1.1-0.6-1.1s-0.4,0-0.6-0.3c-0.2-0.3-0.2-1.6,1.5-4c0,0,0.7-3.3-0.1-3.5
							c-0.8-0.3-0.8,0.7-1,1.2c-0.2,0.6-1,2-2.2,1.4c-0.4-0.2-0.4-0.4,0.8-2.7c0.5-1,0.5-2.1,1.5-3.8c1-1.7,1.3-2.3,1.6-2.9
							C55.5,95.8,56.8,94.6,58.8,96.3z"/>
					</g>
					<g>
						<g>
							<path class="st20" d="M59.5,69.5c0.1,0.5,0.2,1,0.3,1.5c0,0,3.9-0.8,5.8-3c0,0,0-0.6-0.1-1.5C63.5,68.4,60.3,69.3,59.5,69.5z
								"/>
							<path class="st21" d="M65.4,66.5c-0.3-3.2-1-10.6-2-11.9c0,0-2.9,0.2-4.6,5.1c0,0-0.5,4,0.6,9.8
								C60.3,69.3,63.5,68.4,65.4,66.5z"/>
							<path class="st22" d="M65.4,66.5c0-0.1,0-0.2,0-0.3c-1.9,1.7-4.8,2.7-6,3c0,0.1,0,0.2,0.1,0.3v0.1c1.3-0.4,4-1.2,6-2.9
								C65.4,66.6,65.4,66.5,65.4,66.5z"/>
						</g>
						<g>
							<path class="st20" d="M59.5,69.5c0.1,0.5,0.2,1,0.3,1.5c0,0,3.9-0.8,5.8-3c0,0,0-0.6-0.1-1.5C63.5,68.4,60.3,69.3,59.5,69.5z
								"/>
							<path class="st21" d="M65.4,66.5c-0.3-3.2-1-10.6-2-11.9c0,0-2.9,0.2-4.6,5.1c0,0-0.5,4,0.6,9.8
								C60.3,69.3,63.5,68.4,65.4,66.5z"/>
							<path class="st22" d="M65.4,66.5c0-0.1,0-0.2,0-0.3c-1.9,1.7-4.8,2.7-6,3c0,0.1,0,0.2,0.1,0.3v0.1c1.3-0.4,4-1.2,6-2.9
								C65.4,66.6,65.4,66.5,65.4,66.5z"/>
						</g>
					</g>
				</g>
				<g>
					<g>
						<path class="st8" d="M36.3,54.6c0,0-1.4,2.1-1.1,24.4c0,0,1.9,1.2,4,0c0,0,1.1-4.9,0.8-18.3C40,60.7,40.3,55.9,36.3,54.6z"/>
						<path class="st8" d="M38.8,77.2c0,0,2.1,2.4,3.3,10.6c0.6,4.5,1.8,7.5,2,8c0,0-1.7,1.7-3.1,0.6c0,0-0.2-1.5-2-5.6
							c-1.8-4-3.7-9.2-3.8-11.8C35.3,79,36.5,77.2,38.8,77.2z"/>
						<path class="st8" d="M41.2,96.3c0,0,0.3,2.1,0.2,4c-0.1,1.8,0.9,4.6,0.9,4.6s-0.3,1.9,1.5,4.8c0,0,0.2,0.7,0.1,1.2
							c-0.1,0.6,0.5,1,1.1,0.5c0.6-0.4,0.6-1.1,0.6-1.1s0.4,0,0.6-0.3c0.2-0.3,0.2-1.6-1.5-4c0,0-0.7-3.3,0.1-3.5
							c0.8-0.3,0.8,0.7,1,1.2c0.2,0.6,1,2,2.2,1.4c0.4-0.2,0.4-0.4-0.8-2.7c-0.5-1-0.5-2.1-1.5-3.8c-1-1.7-1.3-2.3-1.6-2.9
							C44.3,95.8,43,94.6,41.2,96.3z"/>
					</g>
					<g>
						<path class="st8" d="M36.3,54.6c0,0-1.4,2.1-1.1,24.4c0,0,1.9,1.2,4,0c0,0,1.1-4.9,0.8-18.3C40,60.7,40.3,55.9,36.3,54.6z"/>
						<path class="st8" d="M38.8,77.2c0,0,2.1,2.4,3.3,10.6c0.6,4.5,1.8,7.5,2,8c0,0-1.7,1.7-3.1,0.6c0,0-0.2-1.5-2-5.6
							c-1.8-4-3.7-9.2-3.8-11.8C35.3,79,36.5,77.2,38.8,77.2z"/>
						<path class="st8" d="M41.2,96.3c0,0,0.3,2.1,0.2,4c-0.1,1.8,0.9,4.6,0.9,4.6s-0.3,1.9,1.5,4.8c0,0,0.2,0.7,0.1,1.2
							c-0.1,0.6,0.5,1,1.1,0.5c0.6-0.4,0.6-1.1,0.6-1.1s0.4,0,0.6-0.3c0.2-0.3,0.2-1.6-1.5-4c0,0-0.7-3.3,0.1-3.5
							c0.8-0.3,0.8,0.7,1,1.2c0.2,0.6,1,2,2.2,1.4c0.4-0.2,0.4-0.4-0.8-2.7c-0.5-1-0.5-2.1-1.5-3.8c-1-1.7-1.3-2.3-1.6-2.9
							C44.3,95.8,43,94.6,41.2,96.3z"/>
					</g>
					<g>
						<path class="st23" d="M40.5,69.5c-0.1,0.5-0.2,1-0.3,1.5c0,0-3.9-0.8-5.8-3c0,0,0-0.6,0.1-1.5C36.3,68.4,39.5,69.3,40.5,69.5z
							"/>
						<path class="st22" d="M34.5,66.5c0.3-3.2,1-10.6,2-11.9c0,0,2.9,0.2,4.6,5.1c0,0,0.5,4-0.6,9.8C39.5,69.3,36.3,68.4,34.5,66.5
							z"/>
						<path class="st24" d="M34.5,66.5c0-0.1,0-0.2,0-0.3c1.9,1.7,4.8,2.7,6,3c0,0.1,0,0.2-0.1,0.3v0.1c-1.3-0.4-4-1.2-6-2.9
							C34.3,66.6,34.3,66.5,34.5,66.5z"/>
					</g>
				</g>
				<g>
					<g>
						<path class="st6" d="M64.1,95.9c-9.5,0.5-15.4,8.1-15.4,8.1s2,5.8,2.6,10.8c0.5,4.9-0.2,12.5,0.6,15.7c0,0,4.2,3,8.6,0
							c0,0,0.3-6,1.2-10.7C62.7,115.2,66.4,100,64.1,95.9z"/>
					</g>
					<g>
						<path class="st6" d="M35,95.9c9.5,0.5,15.4,8.1,15.4,8.1s-2,5.8-2.6,10.8c-0.5,4.9,0.2,12.5-0.6,15.7c0,0-4.2,3-8.6,0
							c0,0-0.3-6-1.2-10.7C36.3,115.2,32.5,100,35,95.9z"/>
					</g>
				</g>
				<g>
					<path class="st9" d="M44.5,50.1c0,0-0.2-1.8,0.5-3.3c0,0-0.3,2.3,0.6,3c0,0,2-0.4,4.4-0.4v-3.5L35.3,35.2l-3.5-1.7
						c0,0,0.4,7.6-1.5,10.4c-2.1,3.1-1.4,5.3-0.3,6.4c0,0-1-1.4-0.3-3.4c0,0-0.5,3.7,3.3,4.2l0.6-0.3c0,0-1.1-0.6-1.4-1.7
						c0,0,0.9,1.6,2.9,1.9c0,0-1.7-1.4-1-3.6c0.3-0.9,0.3-1.8,0.3-1.8s0.2,0.6-0.1,2.3c-0.3,2.4,2.2,3.2,2.2,3.2l0.3-0.1
						c-0.7-0.6-0.7-1.3-0.7-1.3c0.2,0.5,0.7,0.9,1,1.1l0.8-0.3c0,0-0.6-1-0.2-2.5c0,0-0.1,1.6,0.4,2.4l0.6-0.2c0,0-0.2-2,1-4.2
						c0,0-0.7,2.9,0.7,4.7L44.5,50.1z"/>
					<path class="st9" d="M55.3,50.1c0,0,0.2-1.8-0.5-3.3c0,0,0.3,2.3-0.6,3c0,0-2-0.4-4.4-0.4v-3.5l14.5-10.7l3.5-1.7
						c0,0-0.4,7.6,1.5,10.4c2.1,3.1,1.4,5.3,0.3,6.4c0,0,1-1.4,0.3-3.4c0,0,0.5,3.7-3.3,4.2l-0.6-0.3c0,0,1.1-0.6,1.4-1.7
						c0,0-0.9,1.6-2.9,1.9c0,0,1.7-1.4,1-3.6c-0.3-0.9-0.3-1.8-0.3-1.8s-0.2,0.6,0.1,2.3c0.3,2.4-2.2,3.2-2.2,3.2L62.8,51
						c0.7-0.6,0.7-1.3,0.7-1.3c-0.2,0.5-0.7,0.9-1,1.1l-0.8-0.3c0,0,0.6-1,0.2-2.5c0,0,0.1,1.6-0.4,2.4L61,50.2c0,0,0.2-2-1-4.2
						c0,0,0.7,2.9-0.7,4.7L55.3,50.1z"/>
				</g>
				<path class="st8" d="M62.3,84.8c-1.9-3.1-4-7.4-1.5-14.1c2.2-6,0.7-9,0.7-9c2.2-3.7,1.9-7.1,1.9-7.1c-1.2-2.7-6.8-2.8-8.5-2.9
					c-1.7-0.1-1.6-4.1-1.6-4.1L50,48.2l-3.4-0.6c0,0,0.1,4-1.6,4.1c-1.7,0.1-7.3,0.3-8.5,2.9c0,0-0.4,3.3,1.9,7.1c0,0-1.5,3,0.7,9
					c2.4,6.7,0.3,11-1.5,14.1s-2.9,5.8-2.9,11.1c0,0,6.7,7.4,15.3,8.1l0,0l0,0l0,0l0,0c8.7-0.7,15.3-8.1,15.3-8.1
					C65.3,90.6,64.3,87.9,62.3,84.8z"/>
				<g>
					<path class="st9" d="M31.8,29.6c0-10,8.1-18.1,18.2-18.1c10,0,18.2,8.1,18.2,18.1c0,0.5,0,1-0.1,1.5c0,0.3,0.1,0.7,0.1,1.1
						c0.3-1.2,0.4-2.4,0.4-3.7c0-9.9-8.3-18-18.5-18s-18.5,8.1-18.5,18c0,1.3,0.1,2.5,0.4,3.7c0-0.4,0-0.7,0.1-1.1
						C31.8,30.6,31.8,30.1,31.8,29.6z"/>
					<path class="st6" d="M59.5,21.6c-6,7.1-14.6,9.3-14.6,9.3c4-1.4,6.4-5.8,6.4-5.8c-5.7,5.7-13.7,6.8-17.3,7.1v0.1
						c0.8,3.1-0.3,6.8,3.2,10.3c3.6,3.5,9.7,6.3,12.7,6.3s9.1-2.8,12.7-6.3s2.3-7.3,3.2-10.4v-0.1C65.6,27.8,63,24,59.5,21.6z"/>
					<path class="st8" d="M34,32.2c0.4,0,0.9-0.1,1.4-0.1c-0.6-0.5-1.2-0.9-1.1-1.3c-0.6-0.2-1.3-0.2-1.8,0c-1.4,0.7-1.9,2.7-1,4.6
						c0.7,1.5,2,2.4,3.3,2.4c-0.4-1.9-0.2-3.8-0.7-5.5C34,32.3,34,32.2,34,32.2z"/>
					<path class="st8" d="M67.4,30.8c-0.6-0.3-1.2-0.3-1.8-0.1c0.1,0.5,0.1,0.9,0.2,1.4v0.1c-0.5,1.7-0.3,3.6-0.7,5.6
						c1.3,0.1,2.6-0.9,3.3-2.4C69.3,33.5,68.8,31.5,67.4,30.8z"/>
					<path class="st25" d="M50,17c9.5,0,17.3,6.2,18.1,14.1c0-0.5,0.1-1,0.1-1.5c0-10-8.1-18.1-18.2-18.1c-10,0-18.2,8.1-18.2,18.1
						c0,0.5,0,1,0.1,1.5C32.5,23.2,40.3,17,50,17z"/>
					<path class="st9" d="M55.3,27.6c-1.1,0-2,0.5-2.5,1.2c0.2-1.1,1.2-1.9,2.5-1.9s2.3,0.8,2.5,1.9C57.3,28.1,56.5,27.6,55.3,27.6z
						"/>
					<path class="st9" d="M34.7,37.6c0,0.1,0,0.1,0,0.2c0,0,0,0-0.1-0.1c-0.5-0.4-1-0.9-1.3-1.5l0,0l0,0c-0.3-0.6-0.7-1.3-0.9-1.9
						c-0.3-1.1-0.5-2.2-0.6-3.3c0.8-7.8,8.6-14,18.2-14c9.5,0,17.3,6.2,18.1,14.1c-0.2,5.4-2.9,6.7-2.9,6.7c0.4-2,0.2-3.9,0.7-5.6
						v-0.1C65.5,28,63.3,24.4,60,22c-5.8,6.3-13.4,8.4-15.1,8.8c-0.1,0-0.1,0-0.1,0l0,0c-0.2,0-0.2,0.1-0.2,0.1
						c3.9-1.3,6.3-5.5,6.3-5.5l0,0c-0.2,0.2-0.5,0.4-0.7,0.6l0,0c-5.6,4.9-12.9,5.9-16.3,6.1v0.1C34.5,33.9,34.3,35.7,34.7,37.6
						L34.7,37.6z"/>
					<g>
						<g>
							<g>
								<ellipse cx="43.3" cy="32.5" rx="1.4" ry="2.5"/>
								<ellipse class="st10" cx="43.8" cy="32.9" rx="0.5" ry="0.9"/>
							</g>
							<path class="st11" d="M43.7,36.3c-0.7,0-1.3-0.5-1.6-1.2c0.1,1.1,0.8,1.9,1.6,1.9s1.5-0.8,1.6-1.9
								C45,35.9,44.3,36.3,43.7,36.3z"/>
						</g>
						<g>
							<g>
								<ellipse cx="56.3" cy="32.5" rx="1.4" ry="2.5"/>
								<ellipse class="st10" cx="56" cy="32.9" rx="0.5" ry="0.9"/>
							</g>
							<path class="st11" d="M56.2,36.3c0.7,0,1.3-0.5,1.6-1.2C57.7,36.2,57,37,56.2,37s-1.5-0.8-1.6-1.9
								C54.8,35.9,55.5,36.3,56.2,36.3z"/>
						</g>
					</g>
					<path class="st11" d="M49.8,37.7c0.6,0,1.1,0.3,1.4,0.9c-0.1-0.8-0.7-1.5-1.4-1.5s-1.3,0.6-1.4,1.5
						C48.8,38,49.3,37.7,49.8,37.7z"/>
					<g>
						<g>
							
								<image style="overflow:visible;enable-background:new    ;" width="321" height="321" xlink:href="A72BE9F1.png"  transform="matrix(0.2378 0 0 0.2378 0.25 0)">
							</image>
						</g>
						<g>
							
								<image style="overflow:visible;enable-background:new    ;" width="321" height="321" xlink:href="A72BE9F3.png"  transform="matrix(0.2378 0 0 0.2378 23.3047 0)">
							</image>
						</g>
					</g>
					<path class="st12" d="M49.8,42.5c0,0-0.7,0.2-2.6,0c0,1.1,1.2,2.7,2.6,2.7c1.4,0,2.6-1.7,2.6-2.7
						C50.7,42.7,49.8,42.5,49.8,42.5z"/>
					<path class="st26" d="M67.9,31.8L67.9,31.8c-0.4,0-0.8,0.1-1.3,0.2c-0.9,0.3-2.3,0.7-3,0.9c0,0,0,0,0-0.1
						c0.2-3.9-2.5-5.2-6.4-5.2c-4.3,0-6.4,1.3-6.4,5.2c0,0.1,0,0.1,0,0.2h-0.9l0,0l0,0l0,0H49c0-0.1,0-0.1,0-0.2
						c0-3.9-2.1-5.2-6.4-5.2c-3.9,0-6.6,1.3-6.4,5.2c0,0,0,0,0,0.1c-0.7-0.2-2.1-0.6-3-0.9c-0.5-0.2-0.9-0.2-1.2-0.2h-0.1
						c-0.2,0-0.4,0.2-0.4,0.4s0.2,0.4,0.4,0.4c0,0,0,0,0.1,0c0.2,0,0.5,0.1,1,0.2c1.1,0.3,2.9,0.9,3.4,1c0.6,3.3,3.1,6,6.3,6
						s5.8-2.6,6.3-6h1l0,0l0,0l0,0h1c0.5,3.4,3.1,6,6.3,6s5.7-2.7,6.3-6c0.5-0.1,2.3-0.7,3.4-1c0.5-0.1,0.8-0.2,1-0.2c0,0,0,0,0.1,0
						c0.2,0,0.4-0.2,0.4-0.4C68.3,32,68.2,31.8,67.9,31.8z M48.2,33.4v0.3c-0.3,3.1-2.7,5.6-5.6,5.6c-3.1,0-5.5-2.9-5.6-6.2
						c-0.2-3.4,2.2-4.6,5.6-4.6c3.8,0,5.6,1.1,5.6,4.6C48.3,33.1,48.3,33.2,48.2,33.4z M62.8,33c-0.2,3.3-2.5,6.2-5.6,6.2
						c-2.9,0-5.3-2.4-5.6-5.6v-0.3c0-0.1,0-0.2,0-0.3c0-3.4,1.9-4.6,5.6-4.6C60.8,28.5,63,29.6,62.8,33z"/>
				</g>
				<path class="st10" d="M46.5,48.7c0,0,3.5,0.3,3.5,4.6v1.8l-4.5-3.7L46.5,48.7z"/>
				<path class="st20" d="M49.8,55.2l-4.5-3.7l0,0c-0.2,0.1-0.3,0.2-0.5,0.2c-1.7,0.1-7.3,0.3-8.5,2.9c0,0-0.4,3.3,1.9,7.1
					c0,0-1.5,3,0.7,9c2.4,6.7,0.3,11-1.5,14.1s-2.9,5.8-2.9,11.1c0,0,5.8,4.2,15.4,4.2L49.8,55.2L49.8,55.2z"/>
				<path class="st3" d="M53.3,48.7c0,0-4.4,0.3-4.4,4.6v1.8l5.4-3.7L53.3,48.7z"/>
				<path class="st10" d="M49,55.2l5.4-3.7l0,0c0.2,0.1,0.3,0.2,0.5,0.2c1.7,0.1,7.3,0.3,8.5,2.9c0,0,0.4,3.3-1.9,7.1
					c0,0,1.5,3-0.7,9c-2.4,6.7-0.3,11,1.5,14.1c2,3.1,3,5.8,3,11.1c0,0-6.8,4.5-16.3,4.5V55.2z"/>
				<g>
					<g>
						<circle class="st27" cx="50" cy="60.4" r="0.7"/>
						<circle class="st4" cx="50.3" cy="60.2" r="0.7"/>
					</g>
					<g>
						<circle class="st27" cx="50" cy="64.7" r="0.7"/>
						<circle class="st4" cx="50.3" cy="64.5" r="0.7"/>
					</g>
					<g>
						<circle class="st27" cx="50" cy="69" r="0.7"/>
						<circle class="st4" cx="50.3" cy="68.9" r="0.7"/>
					</g>
					<g>
						<circle class="st27" cx="50" cy="73.3" r="0.7"/>
						<circle class="st4" cx="50.3" cy="73.2" r="0.7"/>
					</g>
					<g>
						<circle class="st27" cx="50" cy="77.6" r="0.7"/>
						<circle class="st4" cx="50.3" cy="77.5" r="0.7"/>
					</g>
					<g>
						<circle class="st27" cx="50" cy="82" r="0.7"/>
						<circle class="st4" cx="50.3" cy="81.8" r="0.7"/>
					</g>
					<g>
						<circle class="st27" cx="50" cy="86.3" r="0.7"/>
						<circle class="st4" cx="50.3" cy="86.1" r="0.7"/>
					</g>
					<g>
						<circle class="st27" cx="50" cy="90.6" r="0.7"/>
						<circle class="st4" cx="50.3" cy="90.4" r="0.7"/>
					</g>
				</g>
				<path class="st28" d="M49.5,94.6c0,0-8,0.2-14.8-2.2c0,0-2.6,11.5,1.7,29.2c0,0,6.7,3.4,13.1,3.4C49.5,125,49.5,94.6,49.5,94.6z
					"/>
				<path class="st25" d="M49.5,94.6c0,0,8,0.2,14.8-2.2c0,0,2.6,11.5-1.7,29.2c0,0-6.7,3.4-13.1,3.4C49.4,125,49.4,94.6,49.5,94.6z
					"/>
				<path class="st28" d="M56.3,51.7L56.3,51.7c0,0,0,10.2-6.7,15.3v34c0,0,9.5-0.2,16.6-4.7c0,0-0.4-7.1-4-12.9s-1.3-12.1-0.7-13.7
					c1.1-2.7,1.1-6.6,0.2-8.6c0,0-1.9-3.1-0.5-8.4C61,52.7,59.5,51.7,56.3,51.7z"/>
				<path class="st25" d="M42.8,51.7L42.8,51.7c0,0,0,10.2,6.7,15.3v34c0,0-9.5-0.2-16.6-4.7c0,0,0.4-7.1,4-12.9s1.3-12.1,0.7-13.7
					c-1.1-2.7-1.1-6.6-0.2-8.6c0,0,1.9-3.1,0.5-8.4C37.8,52.7,39.3,51.7,42.8,51.7z"/>
			</g>
			<g class="st1">
				<path class="st29" d="M298.5,97.6v48c0,0-14.2,0.5-18.8,7.4v-38L298.5,97.6z"/>
				<path class="st30" d="M298.5,97.6v48c0,0,14.2,0.5,18.8,7.4v-38L298.5,97.6z"/>
				<path class="st8" d="M311.3,56.1c0,0,2.1,1.5,9.2,22.7c0,0-1.4,1.8-3.8,1.3c0,0-2.9-4.2-7-16.9C309.6,63.1,308,58.6,311.3,56.1z
					"/>
				<path class="st31" d="M287.9,53.1c0,0,0.3-3-15.5,12.7c0,0,0.5,2.2,2.8,2.9c0,0,4.3-2.6,13.7-12.2
					C288.9,56.5,289.3,55.1,287.9,53.1z"/>
				<g>
					<path class="st6" d="M313.9,95.9c-9.5,0.5-15.4,8.1-15.4,8.1s2,5.8,2.6,10.8c0.5,4.9-0.2,12.5,0.6,15.7c0,0,4.2,3,8.6,0
						c0,0,0.3-6,1.2-10.7C312.5,115.2,316.3,100,313.9,95.9z"/>
				</g>
				<g>
					<path class="st6" d="M283,95.9c9.5,0.5,15.4,8.1,15.4,8.1s-2,5.8-2.6,10.8c-0.5,4.9,0.2,12.5-0.6,15.7c0,0-4.2,3-8.6,0
						c0,0-0.3-6-1.2-10.7C284.5,115.2,280.6,100,283,95.9z"/>
				</g>
				<g>
					<path class="st9" d="M293,50.1c0,0-0.2-1.8,0.5-3.3c0,0-0.3,2.3,0.6,3c0,0,2-0.4,4.4-0.4v-3.5L284,35.2l-3.5-1.7
						c0,0,0.4,7.6-1.5,10.4c-2.1,3.1-1.4,5.3-0.3,6.4c0,0-1-1.4-0.3-3.4c0,0-0.5,3.7,3.3,4.2l0.6-0.3c0,0-1.1-0.6-1.4-1.7
						c0,0,0.9,1.6,2.9,1.9c0,0-1.7-1.4-1-3.6c0.3-0.9,0.3-1.8,0.3-1.8s0.2,0.6-0.1,2.3c-0.3,2.4,2.2,3.2,2.2,3.2l0.3-0.1
						c-0.7-0.6-0.7-1.3-0.7-1.3c0.2,0.5,0.7,0.9,1,1.1l0.8-0.3c0,0-0.6-1-0.2-2.5c0,0-0.1,1.6,0.4,2.4l0.6-0.2c0,0-0.2-2,1-4.2
						c0,0-0.7,2.9,0.7,4.7L293,50.1z"/>
					<path class="st9" d="M303.9,50.1c0,0,0.2-1.8-0.5-3.3c0,0,0.3,2.3-0.6,3c0,0-2-0.4-4.4-0.4v-3.5l14.5-10.7l3.5-1.7
						c0,0-0.4,7.6,1.5,10.4c2.1,3.1,1.4,5.3,0.3,6.4c0,0,1-1.4,0.3-3.4c0,0,0.5,3.7-3.3,4.2l-0.6-0.3c0,0,1.1-0.6,1.4-1.7
						c0,0-0.9,1.6-2.9,1.9c0,0,1.7-1.4,1-3.6c-0.3-0.9-0.3-1.8-0.3-1.8s-0.2,0.6,0.1,2.3c0.3,2.4-2.2,3.2-2.2,3.2l-0.3-0.1
						c0.7-0.6,0.7-1.3,0.7-1.3c-0.2,0.5-0.7,0.9-1,1.1l-0.8-0.3c0,0,0.6-1,0.2-2.5c0,0,0.1,1.6-0.4,2.4l-0.6-0.2c0,0,0.2-2-1-4.2
						c0,0,0.7,2.9-0.7,4.7L303.9,50.1z"/>
				</g>
				<path class="st8" d="M311,84.8c-1.9-3.1-4-7.4-1.5-14.1c2.2-6,0.7-9,0.7-9c2.2-3.7,1.9-7.1,1.9-7.1c-1.2-2.7-6.8-2.8-8.5-2.9
					c-1.7-0.1-1.6-4.1-1.6-4.1l-3.4,0.6l-3.4-0.6c0,0,0.1,4-1.6,4.1s-7.3,0.3-8.5,2.9c0,0-0.4,3.3,1.9,7.1c0,0-1.5,3,0.7,9
					c2.4,6.7,0.3,11-1.5,14.1s-2.9,5.8-2.9,11.1c0,0,6.7,7.4,15.3,8.1l0,0l0,0l0,0l0,0c8.7-0.7,15.3-8.1,15.3-8.1
					C313.9,90.6,312.8,87.9,311,84.8z"/>
				<g>
					<path class="st9" d="M280.4,29.6c0-10,8.1-18.1,18.2-18.1c10,0,18.2,8.1,18.2,18.1c0,0.5,0,1-0.1,1.5c0,0.3,0.1,0.7,0.1,1.1
						c0.3-1.2,0.4-2.4,0.4-3.7c0-9.9-8.3-18-18.5-18s-18.5,8.1-18.5,18c0,1.3,0.1,2.5,0.4,3.7c0-0.4,0-0.7,0.1-1.1
						C280.4,30.6,280.4,30.1,280.4,29.6z"/>
					<path class="st6" d="M308,21.6c-6,7.1-14.6,9.3-14.6,9.3c4-1.4,6.4-5.8,6.4-5.8c-5.7,5.7-13.7,6.8-17.3,7.1v0.1
						c0.8,3.1-0.3,6.8,3.2,10.3c3.6,3.5,9.7,6.3,12.7,6.3s9.1-2.8,12.7-6.3s2.3-7.3,3.3-10.4v-0.1C314,27.8,311.6,24,308,21.6z"/>
					<path class="st8" d="M282.5,32.2c0.4,0,0.9-0.1,1.4-0.1c-0.6-0.5-1.2-0.9-1.1-1.3c-0.6-0.2-1.3-0.2-1.8,0
						c-1.4,0.7-1.9,2.7-1,4.6c0.7,1.5,2,2.4,3.3,2.4c-0.4-1.9-0.2-3.8-0.7-5.5C282.5,32.3,282.5,32.2,282.5,32.2z"/>
					<path class="st8" d="M316,30.8c-0.6-0.3-1.2-0.3-1.8-0.1c0.1,0.5,0.1,0.9,0.2,1.4v0.1c-0.5,1.7-0.3,3.6-0.7,5.6
						c1.3,0.1,2.6-0.9,3.3-2.4C317.9,33.5,317.5,31.5,316,30.8z"/>
					<path class="st9" d="M298.5,17c9.5,0,17.3,6.2,18.1,14.1c0-0.5,0.1-1,0.1-1.5c0-10-8.1-18.1-18.2-18.1
						c-10,0-18.2,8.1-18.2,18.1c0,0.5,0,1,0.1,1.5C281.1,23.2,289,17,298.5,17z"/>
					<path class="st9" d="M304,27.6c-1.1,0-2,0.5-2.5,1.2c0.2-1.1,1.2-1.9,2.5-1.9s2.3,0.8,2.5,1.9C306,28.1,305,27.6,304,27.6z"/>
					<path class="st9" d="M283.1,37.6c0,0.1,0,0.1,0,0.2c0,0,0,0-0.1-0.1c-0.5-0.4-1-0.9-1.3-1.5l0,0l0,0c-0.3-0.6-0.7-1.3-0.9-1.9
						c-0.3-1.1-0.5-2.2-0.6-3.3c0.8-7.9,8.6-14.1,18.1-14.1s17.3,6.2,18.1,14.1c-0.2,5.4-2.9,6.7-2.9,6.7c0.4-2,0.2-3.9,0.7-5.6V32
						c-0.3-4.1-2.5-7.7-5.8-10.1c-5.8,6.3-13.4,8.4-15.1,8.8c-0.1,0-0.1,0-0.1,0l0,0c-0.2,0-0.2,0.1-0.2,0.1
						c3.9-1.3,6.3-5.5,6.3-5.5l0,0c-0.2,0.2-0.5,0.4-0.7,0.6l0,0c-5.6,4.9-12.9,5.9-16.3,6.1v0.1C283,33.9,282.9,35.7,283.1,37.6
						L283.1,37.6z"/>
					<g>
						<g>
							<g>
								<ellipse cx="292" cy="32.5" rx="1.4" ry="2.5"/>
								<ellipse class="st10" cx="292.4" cy="32.9" rx="0.5" ry="0.9"/>
							</g>
							<path class="st11" d="M292.1,36.3c-0.7,0-1.3-0.5-1.6-1.2c0.1,1.1,0.8,1.9,1.6,1.9c0.8,0,1.5-0.8,1.6-1.9
								C293.5,35.9,292.9,36.3,292.1,36.3z"/>
						</g>
						<g>
							<g>
								<ellipse cx="305" cy="32.5" rx="1.4" ry="2.5"/>
								<ellipse class="st10" cx="304.5" cy="32.9" rx="0.5" ry="0.9"/>
							</g>
							<path class="st11" d="M304.8,36.3c0.7,0,1.3-0.5,1.6-1.2c-0.1,1.1-0.8,1.9-1.6,1.9c-0.8,0-1.5-0.8-1.6-1.9
								C303.4,35.9,304,36.3,304.8,36.3z"/>
						</g>
					</g>
					<path class="st11" d="M298.5,37.7c0.6,0,1.1,0.3,1.4,0.9c-0.1-0.8-0.7-1.5-1.4-1.5c-0.7,0-1.3,0.6-1.4,1.5
						C297.4,38,297.9,37.7,298.5,37.7z"/>
					<g>
						<g>
							
								<image style="overflow:visible;enable-background:new    ;" width="321" height="321" xlink:href="A72BE9F0.png"  transform="matrix(0.2378 0 0 0.2378 248.7954 0)">
							</image>
						</g>
						<g>
							
								<image style="overflow:visible;enable-background:new    ;" width="321" height="321" xlink:href="A72BE9FE.png"  transform="matrix(0.2378 0 0 0.2378 271.8501 0)">
							</image>
						</g>
					</g>
					<path class="st12" d="M298.5,42.5c0,0-0.7,0.2-2.6,0c0,1.1,1.2,2.7,2.6,2.7s2.6-1.7,2.6-2.7C299.1,42.7,298.5,42.5,298.5,42.5z
						"/>
					<path class="st32" d="M316.5,31.8h-0.1c-0.3,0-0.7,0.1-1.2,0.2c-0.9,0.3-2.3,0.7-3,0.9c0,0,0,0,0-0.1c0.2-3.9-2.5-5.2-6.4-5.2
						c-4.3,0-6.4,1.3-6.4,5.2c0,0.1,0,0.1,0,0.2h-0.9l0,0l0,0l0,0h-0.9c0-0.1,0-0.1,0-0.2c0-3.9-2.1-5.2-6.4-5.2
						c-3.9,0-6.6,1.3-6.4,5.2c0,0,0,0,0,0.1c-0.7-0.2-2.1-0.6-3-0.9c-0.5-0.2-0.9-0.2-1.2-0.2h-0.1c-0.2,0-0.4,0.2-0.4,0.4
						s0.2,0.4,0.4,0.4c0,0,0,0,0.1,0c0.2,0,0.5,0.1,1,0.2c1.1,0.3,2.9,0.9,3.4,1c0.6,3.3,3.1,6,6.3,6c3.2,0,5.8-2.6,6.3-6h1l0,0l0,0
						l0,0h1c0.5,3.4,3.1,6,6.3,6c3.2,0,5.7-2.7,6.3-6c0.5-0.1,2.3-0.7,3.4-1c0.5-0.1,0.8-0.2,1-0.2c0,0,0,0,0.1,0
						c0.2,0,0.4-0.2,0.4-0.4C316.9,32,316.8,31.8,316.5,31.8z M296.8,33.4v0.3c-0.3,3.1-2.7,5.6-5.6,5.6c-3.1,0-5.5-2.9-5.6-6.2
						c-0.2-3.4,2.2-4.6,5.6-4.6c3.8,0,5.6,1.1,5.6,4.6C296.8,33.1,296.8,33.2,296.8,33.4z M311.5,33c-0.2,3.3-2.5,6.2-5.6,6.2
						c-2.9,0-5.3-2.4-5.6-5.6v-0.3c0-0.1,0-0.2,0-0.3c0-3.4,1.9-4.6,5.6-4.6C309.3,28.5,311.6,29.6,311.5,33z"/>
				</g>
				<path class="st33" d="M313.9,95.9L313.9,95.9L313.9,95.9c0-2-0.2-3.7-0.5-5.2c-3,1.8-8.5,3-14.8,3c-0.1,0-0.1,0-0.2,0v10.5v-0.1
					c0.2,0.7,2,6.1,2.5,10.7c0.5,4.9-0.2,12.5,0.6,15.7c0,0,0.6,2.9,0.4,5.7c-0.2,2-0.4,6.3-0.1,12.3c0.1,2.5,0.3,5.2,0.6,8.2
					c0,0.2,0,0.4,0.1,0.6c1,0.4,2.1,0.6,3.4,0.6c0.9,0,1.9-0.1,2.7-0.4c0.2-1,0.4-1.9,0.6-3c0.4-1.7,0.8-3.7,1.1-5.9
					c0.7-4.6,1-9.9,0.4-14.3c-0.4-3.2-0.6-4-0.6-4s0.3-6,1.2-10.7C312.5,115.2,316.3,100,313.9,95.9z"/>
				<path class="st34" d="M283,95.9L283,95.9L283,95.9c0-2,0.2-3.7,0.5-5.2c3,1.8,8.5,3,14.8,3c0.1,0,0.1,0,0.2,0v10.5v-0.1
					c-0.2,0.7-2,6.1-2.5,10.7c-0.5,4.9,0.2,12.5-0.6,15.7c0,0-0.6,2.9-0.4,5.7c0.2,2,0.4,6.3,0.1,12.3c-0.1,2.5-0.3,5.2-0.6,8.2
					c0,0.2,0,0.4-0.1,0.6c-1,0.4-2.1,0.6-3.4,0.6c-0.9,0-1.9-0.1-2.7-0.4c-0.2-1-0.4-1.9-0.6-3c-0.4-1.7-0.8-3.7-1.1-5.9
					c-0.7-4.6-1-9.9-0.4-14.3c0.4-3.2,0.6-4,0.6-4s-0.3-6-1.2-10.7C284.5,115.2,280.6,100,283,95.9z"/>
				<path class="st15" d="M309.4,73.3c1.1-2.5,2.4-8,0.8-11.7c0,0,2.6-3,1.9-7.1c0,0-0.7-2.7-8.5-2.9c0,0-1.9,4.8-5,6.2V95
					c1,0,9.2,0.1,15.1-3.6c-1-3.6-0.9-4.5-2.6-8C309.5,80.2,308.4,75.8,309.4,73.3z"/>
				<g>
					<path class="st10" d="M302.5,50.9c0,0-0.5,3.6-4,6.9c0,0,0.3,1.1,1.5,2c1.4,0.9,2.2,2.9,2.1,3.8c0,0,3-4.1,3.7-6.5s1-5,2.1-4.9
						C308,52.2,302.8,49.5,302.5,50.9z"/>
					<g>
						<path class="st4" d="M302.1,63.8L302.1,63.8c-0.1,0-0.1-0.1-0.1-0.1c0-0.9-0.7-2.8-2.1-3.7c-1.3-0.9-1.6-2-1.6-2.1
							s0-0.1,0.1-0.1s0.1,0,0.1,0.1c0,0,0.3,1.1,1.5,1.9c1.3,0.8,2,2.5,2.2,3.6c0.7-1,2.9-4.2,3.5-6.2c0.2-0.6,0.3-1.2,0.5-1.8
							c0.5-1.8,0.8-3.2,1.7-3.2c0.1,0,0.1,0,0.1,0.1s-0.1,0.1-0.1,0.1l0,0c-0.7,0-1.1,1.4-1.5,3.1c-0.2,0.6-0.3,1.2-0.5,1.8
							C305.3,59.6,302.4,63.6,302.1,63.8C302.3,63.8,302.1,63.8,302.1,63.8z"/>
					</g>
				</g>
				<path class="st10" d="M287.6,73.3c-1.1-2.5-2.4-8-0.8-11.7c0,0-2.6-3-1.9-7.1c0,0,0.7-2.7,8.5-2.9c0,0,1.9,4.8,5,6.2V95
					c-1,0-9.2,0.1-15.1-3.6c1-3.6,0.9-4.5,2.6-8C287.5,80.2,288.6,75.8,287.6,73.3z"/>
				<g>
					<path class="st15" d="M294.5,50.9c0,0,0.5,3.6,4,6.9c0,0-0.3,1.1-1.5,2c-1.4,0.9-2.2,2.9-2.1,3.8c0,0-3-4.1-3.7-6.5
						s-1-5-2.1-4.9C289,52.2,294.3,49.5,294.5,50.9z"/>
					<g>
						<path class="st4" d="M294.9,63.8L294.9,63.8c0.1,0,0.1-0.1,0.1-0.1c0-0.9,0.7-2.8,2.1-3.7c1.3-0.9,1.6-2,1.6-2.1
							s0-0.1-0.1-0.1s-0.1,0-0.1,0.1c0,0-0.3,1.1-1.5,1.9c-1.3,0.8-2,2.5-2.2,3.6c-0.7-1-2.9-4.2-3.5-6.2c-0.2-0.6-0.3-1.2-0.5-1.8
							c-0.5-1.8-0.8-3.2-1.7-3.2c-0.1,0-0.1,0-0.1,0.1s0.1,0.1,0.1,0.1l0,0c0.7,0,1.1,1.4,1.5,3.1c0.2,0.6,0.3,1.2,0.5,1.8
							C291.8,59.6,294.6,63.6,294.9,63.8C294.8,63.8,294.8,63.8,294.9,63.8z"/>
					</g>
				</g>
				<g>
					<path class="st33" d="M295.6,8.6c-1.8-0.1-4.3-0.1-6.8,1.6c-2.6,1.7-3.3,8,10.9,14.8c14.2,6.8,20.7,1.3,20.7-1.3
						C320.5,21.4,316.8,9.7,295.6,8.6z"/>
					<path class="st35" d="M306.6,15.8c0,0,1.1-0.5,1.8-1.7l-1.1-1.1c0,0-0.9,0.8-3,1l-0.5,0.2l2,1.7L306.6,15.8L306.6,15.8z"/>
					
						<ellipse transform="matrix(0.7335 -0.6797 0.6797 0.7335 72.8935 212.8855)" class="st36" cx="307.9" cy="13.5" rx="0.3" ry="0.8"/>
					<path class="st34" d="M304.3,14.2c0,0,2,1.8,5.3,2s6,0.8,6.5,1.5c0.5,0.8-2.4,0.7-3.8,0.2s-4.7-1.4-7-1.7
						c-2.3-0.4-8.1-2.7-10-4.3s5.7,2.7,8.7,2.9c1.9,0.1-4.1-2.5-6-2.9s-3.8-1.5-3.8-1.5s1.9,0.8,3.5,0.7c1.5-0.1,6.3,1.8,6.9,2.3
						C305.1,14,304.3,14.2,304.3,14.2z"/>
				</g>
				<path class="st37" d="M284.8,53.9c0,0-8.3,6.1-12.5,11.9c0,0,0.5,2.8,3.7,3.9c0,0,5.8-2.6,10.8-8.1
					C286.9,61.6,288.3,57.9,284.8,53.9z"/>
				<g>
					<path class="st38" d="M301.6,81.1L301.6,81.1c-0.1,0-0.1-0.1-0.1-0.1c-0.2-9.6,1.2-17.1,2.5-21.7c1.4-5,2.8-7.7,2.8-7.7
						l0.1-0.1c1,0.1,1.6,0.3,2,0.8l0,0c1.4,4.7,0.3,10.7,0.3,10.7s0,0.1-0.1,0.1H309l-2.9-0.8l2.3,2.4v0.1
						C304.1,70.1,301.7,80.9,301.6,81.1C301.8,81.1,301.6,81.1,301.6,81.1z"/>
				</g>
				<path class="st39" d="M316,96.3c-2.4-9.1-4.1-11.3-5-16.2c-0.9-4.8,1.3-14.3-0.9-18.5c0,0,2.1-3.8,2.6-7.2c0,0-1-1.1-3.9-2.1
					l0.1,0.1l0,0c1.4,4.6,0.3,10.6,0.3,10.6s0,0.1-0.1,0.1H309l-2.9-0.8l2.3,2.4v0.1c-4.3,5.3-6.7,16.1-6.7,16.2
					c0,0.1-0.1,0.1-0.1,0.1l0,0c0,0-0.5,14.6,1.3,29.7c1.8,15.2,2.3,42.4,1.4,49.9c0,0,15.5-1,16.1-9.1
					C321,143.5,318.5,105.3,316,96.3z"/>
				<g>
					<path class="st39" d="M295.3,81c0-0.1-2.4-10.9-6.7-16.2v-0.1l2.3-2.4l-2.9,0.8h-0.1c0,0,0,0-0.1-0.1c0-0.1-1.1-6,0.3-10.7l0,0
						c0.4-0.5,1-0.7,2-0.8c0,0,0.1,0,0.1,0.1c0,0,1.4,2.8,2.8,7.7c1.3,4.6,2.7,12.1,2.5,21.7C295.4,81.1,295.4,81.1,295.3,81
						L295.3,81C295.3,81.1,295.3,81.1,295.3,81z"/>
				</g>
				<path class="st37" d="M280.9,96.3c2.4-9.1,4.1-11.3,5-16.2c0.9-4.8-1.3-14.3,0.9-18.5c0,0-2.1-3.8-2.6-7.2c0,0,1-1.1,3.9-2.1
					l-0.1,0.1l0,0c-1.4,4.6-0.3,10.6-0.3,10.7c0,0,0,0.1,0.1,0.1h0.1l2.9-0.8l-2.3,2.4v0.1c4.3,5.3,6.7,16.1,6.7,16.2
					c0,0.1,0.1,0.1,0.1,0.1l0,0c0,0,0.5,14.6-1.3,29.7c-1.8,15.2-2.3,42.4-1.4,49.9c0,0-15.5-1-16.1-9.1
					C275.9,143.5,278.5,105.3,280.9,96.3z"/>
				<g>
					<path class="st8" d="M275,63.9c0,0,2.6-1.2,11,0.9c4.1,1,6.8,1,7.3,0.9c0,0-1.4,3-3,3.9c0,0-1.6-0.1-3.5-0.2
						c-4.4-0.1-9.8,0.2-12.9-1.6C273.8,67.7,273.1,65.7,275,63.9z"/>
					<g>
						<path class="st6" d="M291.5,66.4c0,0-2,1.1-2.2,4.4c0,0,2,0.8,2.7,1.6c0.7,0.7,1.4,2,4,2.7c2.9,0.8,2.8-1.2,2.8-1.2
							s0.8-0.1,1.1-0.5c0.4-0.4,0.4-0.9,0-1.2c0,0,0.7-0.1,1-0.8c0.3-0.7-0.2-1.2-0.5-1.5c0,0,0.6-0.2,0.9-0.9c0,0,0.7,0.3,1.2-0.1
							c0.5-0.3,0.3-0.6-0.1-0.8c-0.5-0.1-0.8-0.7-1-1c-0.2-0.4-0.8-0.9-2.4-1.6c-1.7-0.7-2.1-0.2-2.8,0c-0.7,0.2-1.4,0.3-2.3,0.9
							C292.9,67,291.5,66.4,291.5,66.4z"/>
						<path class="st26" d="M295.3,74.9c-0.7-0.3-1.3-0.6-1.7-0.9l-2.8,5.6l0,0c0,0,0,0.1-0.1,0.1c-0.5,1-0.5,2,0,2.2
							s1.3-0.4,1.8-1.4v-0.1l0,0L295.3,74.9z"/>
						<g>
							<g>
								<path class="st26" d="M299.3,66.8l5.4-10.4c0.2-0.4,0-0.8-0.3-1l-0.4-0.2c-0.4-0.2-0.8,0-1,0.3l-5.7,11
									c0.2,0.1,0.5,0.1,0.7,0.1C298.1,66.7,298.5,66.5,299.3,66.8z"/>
								<path class="st40" d="M302,61.9l3-5.7c0.2-0.4,0-0.9-0.4-1.1l-0.5-0.2c-0.4-0.2-0.9,0-1.1,0.4l-3,5.7
									C300.5,61.3,301.1,61.8,302,61.9z"/>
							</g>
							<g>
								<path class="st33" d="M307.9,53c0.3-1.1-0.8-0.5-1.6-1.8c-0.8-1.2-0.1-1.8-0.3-2.5c-0.2-0.7-1.1-0.5-1.1-0.5
									c-1.9,1.6-2.2,3.2-2.2,3.2c-0.5,2,0.4,4,2,4.4c0.6,0.2,1.2,0.1,1.8-0.2l0,0l0,0c0,0,0,0,0.1,0c0.8-0.3,1.5-1.1,2.1-2
									C308.5,53.7,307.6,54.1,307.9,53z"/>
								<path class="st41" d="M309.9,45.3c-0.3-0.5-0.8-1-1.4-1.2c-1.1-0.5-2.1-0.3-2.2-0.3s-0.1,0.1-0.1,0.1c0,0.1,0.1,0.1,0.1,0.1
									c0.1,0,0.3,0,0.4,0.1c0.4,0.2,0.8,0.5,0.8,1.1c0,0.5-0.2,1.2-1.6,2.1c-0.4,0.3-0.7,0.5-1.1,0.8c0,0-0.1,0.1,0,0.1l0.1,0.1
									c0,0,0.4-0.1,0.7,0c0.2,0.1,0.3,0.2,0.3,0.4c0.1,0.2,0,0.4,0,0.7c-0.1,0.5-0.2,1,0.3,1.9c0.3,0.5,0.7,0.7,1.1,0.9l0.2,0.1
									c0.3,0.1,0.4,0.2,0.3,0.7c-0.1,0.4,0,0.7,0.2,0.8c0.3,0.1,0.6,0,0.7-0.1l0,0C310.4,51.3,311.1,47.5,309.9,45.3z"/>
								
									<ellipse transform="matrix(0.4143 -0.9102 0.9102 0.4143 131.339 307.59)" class="st41" cx="304.7" cy="51.8" rx="0.4" ry="0.4"/>
							</g>
						</g>
					</g>
					<path class="st39" d="M272.3,69c0,0,6.4,2.3,13.4,1.9c1.9,0,3.7-0.6,5.1-0.2c0,0,2.5-3.7,1.8-5.5c0,0-3.9,0.1-7.3-0.9
						c-2.8-0.8-9.4-2.2-11.7-0.6C273.5,63.6,271,66.6,272.3,69z"/>
					<path class="st38" d="M294.4,65.5c0,0,0,5.2-3.2,7.4c-0.7,0.5-1.4-0.1-1.9-0.2c-2.2-0.3-4.8,0.1-7.4-1.2c-1.1-0.9,0-5.2,3-8.3
						c0.6-0.6,0.4,0,1.9,0.3s5.3,1.3,6.3,1.2C294.4,64.6,294.4,65.5,294.4,65.5z"/>
				</g>
				<path class="st42" d="M329,93.5c0,0-4.6,2.9-5.3,6.7c0,0.5,3.4-2,5.3-6.3C329,93.7,329.1,93.5,329,93.5z"/>
				<path class="st8" d="M316.6,80.1c0,0,0.3,3.2,5.4,9.7c2.8,3.5,4.2,6.5,4.4,7c0,0,2.4,0,2.6-1.9c0,0-1-1.2-2.6-5.3
					c-1.6-4.1-4.1-9-5.9-10.9C320.5,78.7,318.4,78.4,316.6,80.1z"/>
				<path class="st8" d="M329,94.9c0,0,1.4,1.7,2.7,2.9c1.3,1.2,2.7,3.9,2.7,3.9s1.6,1,2.4,4.4c0,0,0.3,0.6,0.8,1s0.3,1-0.4,1.2
					c-0.7,0.2-1.2-0.4-1.2-0.4s-0.2,0.3-0.6,0.2c-0.4-0.1-1.3-1-1.9-3.9c0,0-1.9-2.8-2.6-2.4c-0.8,0.4-0.1,1,0.2,1.6
					c0.3,0.6,0.7,2.1-0.5,2.6c-0.4,0.2-0.6,0-1.4-2.4c-0.4-1-1.2-1.8-1.8-3.7c-0.5-1.9-0.8-2.6-1-3.1C326.4,96.8,326.5,95,329,94.9z
					"/>
				<path class="st39" d="M312.8,54.4c0,0,6.2,17,7.9,22.9c0.5,1.4,6,10.5,8.2,16.3c0,0-3.6,0.7-5.1,5c0,0-5-7.7-8.6-15.3
					c-3.6-7.6-5.1-21.6-5.1-21.6S310.4,59.5,312.8,54.4z"/>
				<path class="st38" d="M329.5,91.9c-1.3-3.2-4.4-8.6-4.4-8.6c-0.4-0.3-1.2-0.2-1.7,0c-0.1,0-0.2,0.1-0.2,0.1
					c-1.1,0.4-2.7,1.3-4.1,2.4c-0.1,0-0.1,0.1-0.2,0.1c-1.7,1.3-2.3,2.9-1.4,3.9c2.1,2.4,3.9,8,4.3,9.8c0.4,1.7,1.7,1.2,1.7,1.2l0,0
					l0,0l0,0c0.2-0.1,0.7-0.4,1.3-0.9c0.5-0.4,1-0.9,1.6-1.6c0-0.1-0.1-0.2-0.1-0.3c-1.1,1.3-2.1,2.2-2.6,2.3l0,0l0,0
					c-0.1,0-0.1,0-0.1,0l0,0c0,0-0.1,0-0.1-0.1c0-0.2,0.1-0.4,0.2-0.7c0-0.1,0-0.1,0.1-0.2c0-0.1,0.1-0.3,0.2-0.4
					c0-0.1,0.1-0.2,0.1-0.3c0.1-0.1,0.1-0.2,0.2-0.4c0-0.1,0.1-0.2,0.1-0.3c0.1-0.1,0.1-0.2,0.2-0.3c0.1-0.1,0.1-0.2,0.2-0.3
					c0.1-0.1,0.1-0.2,0.2-0.3c0.1-0.1,0.1-0.2,0.2-0.3c0.1-0.1,0.1-0.2,0.2-0.2c0.2-0.2,0.4-0.5,0.6-0.7l0,0l0,0
					c0.1-0.1,0.2-0.2,0.3-0.4c0.1-0.2,0.3-0.4,0.6-0.6c0.5-0.5,1-0.9,1.4-1.1c0.4-0.3,0.6-0.4,0.6-0.4h0.1l0,0l0,0c0,0,0,0,0,0.1
					c0,0,0,0,0,0.1c0,0,0,0.1-0.1,0.2c-0.1,0.2-0.2,0.4-0.3,0.6c0.1,0.1,0.1,0.2,0.2,0.2l0,0c0-0.1,0.1-0.2,0.1-0.2l0,0
					c0.1-0.1,0.1-0.2,0.1-0.3l0,0C330,92.7,329.8,92.6,329.5,91.9z"/>
				<g>
					<path class="st43" d="M318.5,114.1h-0.1c-6.9-4.9-8.5-11-8.5-11.1s0-0.2,0.2-0.3c0.1,0,0.2,0,0.3,0.2c0,0.1,1.6,6,8.3,10.8
						c0.1,0.1,0.1,0.2,0.1,0.3C318.6,114.1,318.6,114.1,318.5,114.1z"/>
				</g>
				<g>
					<path class="st43" d="M278.6,114.1h0.1c6.9-4.9,8.5-11,8.5-11.1s0-0.2-0.2-0.3c-0.1,0-0.2,0-0.3,0.2c0,0.1-1.6,6-8.3,10.8
						c-0.1,0.1-0.1,0.2-0.1,0.3C278.5,114.1,278.5,114.1,278.6,114.1z"/>
				</g>
			</g>
			<g class="st1">
				<g>
					<path class="st6" d="M442.1,95.7c-9.5,0.5-15.4,8.1-15.4,8.1s2,5.8,2.6,10.8c0.5,4.9-0.2,12.5,0.6,15.7c0,0,4.2,3,8.6,0
						c0,0,0.3-6,1.2-10.7C440.8,115,444.5,99.8,442.1,95.7z"/>
				</g>
				<path class="st6" d="M413.3,57.9c0,0-1.8,1.8-5.7,23.8c0,0,1.7,1.5,4,0.8c0,0,2-4.6,4.2-17.8C415.6,64.7,416.8,60,413.3,57.9z"
					/>
				<path class="st8" d="M440.3,57.9c0,0,1.8,1.8,5.3,23.9c0,0-1.7,1.5-4,0.7c0,0-1.9-4.6-3.9-17.9
					C437.6,64.6,436.6,59.9,440.3,57.9z"/>
				<path class="st8" d="M441.5,82.5c0,0-0.2,3.2,3.7,10.4c2.2,3.9,3.1,7.1,3.1,7.6c0,0,2.4,0.4,2.9-1.4c0,0-0.8-1.3-1.7-5.7
					c-0.9-4.3-2.6-9.6-4-11.7C445.5,81.8,443.5,81.1,441.5,82.5z"/>
				<g>
					<path class="st6" d="M411.4,95.7c9.5,0.5,15.4,8.1,15.4,8.1s-2,5.8-2.6,10.8s0.2,12.5-0.6,15.7c0,0-4.2,3-8.6,0
						c0,0-0.3-6-1.2-10.7C412.8,115,409,99.8,411.4,95.7z"/>
				</g>
				<g>
					<path class="st9" d="M421.3,53.4c0,0-0.2-1.8,0.5-3.3c0,0-0.3,2.3,0.6,3c0,0,2-0.4,4.4-0.4v-3.5l-14.5-10.7l-3.5-1.7
						c0,0,0.4,7.6-1.5,10.4c-2.1,3.1-1.4,5.3-0.3,6.4c0,0-1-1.4-0.3-3.4c0,0-0.5,3.7,3.3,4.2l0.6-0.3c0,0-1.1-0.6-1.4-1.7
						c0,0,0.9,1.6,2.9,1.9c0,0-1.7-1.4-1-3.6c0.3-0.9,0.3-1.8,0.3-1.8s0.2,0.6-0.1,2.3c-0.3,2.4,2.2,3.2,2.2,3.2l0.3-0.1
						C413,53.7,413,53,413,53c0.2,0.5,0.7,0.9,1,1.1l0.8-0.3c0,0-0.6-1-0.2-2.5c0,0-0.1,1.6,0.4,2.4l0.6-0.2c0,0-0.2-2,1-4.2
						c0,0-0.7,2.9,0.7,4.7L421.3,53.4z"/>
					<path class="st9" d="M432.1,53.4c0,0,0.2-1.8-0.5-3.3c0,0,0.3,2.3-0.6,3c0,0-2-0.4-4.4-0.4v-3.5l14.6-10.7l3.5-1.7
						c0,0-0.4,7.6,1.5,10.4c2.1,3.1,1.4,5.3,0.3,6.4c0,0,1-1.4,0.3-3.4c0,0,0.5,3.7-3.3,4.2l-0.6-0.3c0,0,1.1-0.6,1.4-1.7
						c0,0-0.9,1.6-2.9,1.9c0,0,1.7-1.4,1-3.6c-0.3-0.9-0.3-1.8-0.3-1.8s-0.2,0.6,0.1,2.3c0.3,2.4-2.2,3.2-2.2,3.2l-0.3-0.1
						c0.7-0.6,0.7-1.3,0.7-1.3c-0.2,0.5-0.7,0.9-1,1.1l-0.8-0.3c0,0,0.6-1,0.2-2.5c0,0,0.1,1.6-0.4,2.4l-0.6-0.2c0,0,0.2-2-1-4.2
						c0,0,0.7,2.9-0.7,4.7L432.1,53.4z"/>
				</g>
				<path class="st8" d="M439.3,88.2c-1.9-3.1-4-7.4-1.5-14.1c2.2-6,0.7-9,0.7-9c2.2-3.7,1.9-7.1,1.9-7.1c-1.2-2.7-6.8-2.8-8.5-2.9
					c-1.7-0.1-1.6-4.1-1.6-4.1l-3.4,0.6l-3.4-0.6c0,0,0.1,4-1.6,4.1s-7.3,0.3-8.5,2.9c0,0-0.4,3.3,1.9,7.1c0,0-1.5,3,0.7,9
					c2.4,6.7,0.3,11-1.5,14.1s-2.9,5.8-2.9,11.1c0,0,6.7,7.4,15.3,8.1l0,0l0,0l0,0l0,0c8.7-0.7,15.3-8.1,15.3-8.1
					C442,94,441,91.2,439.3,88.2z"/>
				<g>
					<path class="st9" d="M408.5,32.9c0-10,8.1-18.1,18.2-18.1c10,0,18.2,8.1,18.2,18.1c0,0.5,0,1-0.1,1.5c0,0.3,0.1,0.7,0.1,1.1
						c0.3-1.2,0.4-2.4,0.4-3.7c0-9.9-8.3-18-18.5-18s-18.5,8.1-18.5,18c0,1.3,0.1,2.5,0.4,3.7c0-0.4,0-0.7,0.1-1.1
						C408.5,33.9,408.5,33.4,408.5,32.9z"/>
					<path class="st6" d="M436.3,24.9c-6,7.1-14.6,9.3-14.6,9.3c4-1.4,6.4-5.8,6.4-5.8c-5.7,5.7-13.7,6.8-17.3,7.1v0.1
						c0.8,3.1-0.3,6.8,3.2,10.3c3.6,3.5,9.7,6.3,12.7,6.3s9.1-2.8,12.7-6.3s2.3-7.3,3.3-10.4v-0.1C442.4,31.1,439.9,27.3,436.3,24.9
						z"/>
					<path class="st8" d="M410.8,35.6c0.4,0,0.9-0.1,1.4-0.1c-0.6-0.5-1.2-0.9-1.1-1.3c-0.6-0.2-1.3-0.2-1.8,0
						c-1.4,0.7-1.9,2.7-1,4.6c0.7,1.5,2,2.4,3.3,2.4c-0.4-1.9-0.2-3.8-0.7-5.5C410.8,35.6,410.8,35.6,410.8,35.6z"/>
					<path class="st8" d="M444.3,34.1c-0.6-0.3-1.2-0.3-1.8-0.1c0.1,0.5,0.1,0.9,0.2,1.4v0.1c-0.5,1.7-0.3,3.6-0.7,5.6
						c1.3,0.1,2.6-0.9,3.3-2.4C446.1,36.9,445.6,34.8,444.3,34.1z"/>
					<path class="st9" d="M432.1,31c-1.1,0-2,0.5-2.5,1.2c0.2-1.1,1.2-1.9,2.5-1.9s2.3,0.8,2.5,1.9C434.1,31.5,433.3,31,432.1,31z"
						/>
					<path class="st9" d="M411.5,41c0,0.1,0,0.1,0,0.2c0,0,0,0-0.1-0.1c-0.5-0.4-1-0.9-1.3-1.5l0,0l0,0c-0.3-0.6-0.7-1.3-0.9-1.9
						c-0.3-1.1-0.5-2.2-0.6-3.3c0.8-7.9,8.6-14.1,18.1-14.1s17.3,6.2,18.1,14.1c-0.2,5.4-2.9,6.7-2.9,6.7c0.4-2,0.2-3.9,0.7-5.6
						v-0.1c-0.3-4.1-2.5-7.7-5.8-10.1c-5.8,6.3-13.4,8.4-15.1,8.8c-0.1,0-0.1,0-0.1,0l0,0c-0.2,0-0.2,0.1-0.2,0.1
						c3.9-1.3,6.3-5.5,6.3-5.5l0,0c-0.2,0.2-0.5,0.4-0.7,0.6l0,0c-5.6,4.9-12.9,5.9-16.3,6.1v0.1C411.3,37.3,411.1,39.1,411.5,41
						L411.5,41z"/>
					<g>
						<g>
							<g>
								<ellipse cx="420.1" cy="35.8" rx="1.4" ry="2.5"/>
								<ellipse class="st10" cx="420.6" cy="36.3" rx="0.5" ry="0.9"/>
							</g>
							<path class="st11" d="M420.5,39.7c-0.7,0-1.3-0.5-1.6-1.2c0.1,1.1,0.8,1.9,1.6,1.9c0.8,0,1.5-0.8,1.6-1.9
								C421.8,39.2,421.1,39.7,420.5,39.7z"/>
						</g>
						<g>
							<g>
								<ellipse cx="433.1" cy="35.8" rx="1.4" ry="2.5"/>
								<ellipse class="st10" cx="432.8" cy="36.3" rx="0.5" ry="0.9"/>
							</g>
							<path class="st11" d="M433,39.7c0.7,0,1.3-0.5,1.6-1.2c-0.1,1.1-0.8,1.9-1.6,1.9c-0.8,0-1.5-0.8-1.6-1.9
								C431.6,39.2,432.3,39.7,433,39.7z"/>
						</g>
					</g>
					<path class="st11" d="M426.6,41c0.6,0,1.1,0.3,1.4,0.9c-0.1-0.8-0.7-1.5-1.4-1.5c-0.7,0-1.3,0.6-1.4,1.5
						C425.5,41.4,426,41,426.6,41z"/>
					<g>
						<g>
							
								<image style="overflow:visible;enable-background:new    ;" width="321" height="325" xlink:href="A72BE9F5.png"  transform="matrix(0.2378 0 0 0.2348 377.0581 3.3496)">
							</image>
						</g>
						<g>
							
								<image style="overflow:visible;enable-background:new    ;" width="321" height="325" xlink:href="A72BE9F7.png"  transform="matrix(0.2378 0 0 0.2348 400.1128 3.3496)">
							</image>
						</g>
					</g>
					<path class="st12" d="M426.6,45.8c0,0-0.7,0.2-2.6,0c0,1.1,1.2,2.7,2.6,2.7s2.6-1.7,2.6-2.7C427.5,46.1,426.6,45.8,426.6,45.8z
						"/>
				</g>
				<path class="st44" d="M450.5,27.5c-0.5-0.2-2.9-1.4-5.4-5s-8.6-11.5-22.5-10s-15.3,16-15.4,17.8s1.4,4.1,1.4,4.1
					c0.8-7.9,8.6-14.1,18.1-14.1c8.7,0,16,5.2,17.7,12.1c0.5-0.2,1.5-0.8,2.4-2.2c1.1-1.9,0.7,0.5-2.1,3.7c0,0.2,0.1,0.3,0.1,0.5
					l0,0l0,0l0.5,0.6C451.3,31.7,451,27.7,450.5,27.5z"/>
				<path class="st45" d="M446.9,30.3c-0.8,1.4-1.8,2-2.4,2.2c0.1,0.5,0.2,1,0.3,1.5C447.5,30.8,448,28.4,446.9,30.3z"/>
				<path class="st44" d="M452,40.4c-0.9,0.1-2.9-0.6-4.4-2.9c-0.9-1.4-1.6-1.9-2.1-2c0.3,0.9,0.3,2.1-0.2,3.2
					c-0.1,0.3-0.3,0.6-0.5,0.8c0,0.6,0,1.2,0.1,1.9c0.4,0.2,0.9,0.3,1.6,0.4C451.3,42.8,452.9,40.4,452,40.4z"/>
				<path class="st45" d="M448.4,41c-1.7-0.2-2.8-1.2-3.4-1.7c-0.1,0.1-0.2,0.2-0.2,0.4c0,0.1,0,0.2,0,0.3
					C446,41.8,451.1,41.3,448.4,41z"/>
				<path class="st46" d="M455.5,106.7c0,0-0.9-2.8-2-4.3c-1.1-1.4-2.2-3.3-2.2-3.3c-2.5-0.3-2.9,1.4-2.9,1.4c0,0.1,0,0.2,0,0.3
					c0,0-0.9,1.7-0.2,4.9c0.7,3.2,0.6,3.5,1.7,4l0,0c0.4,0.2,0.8,0.2,1.1,0.3c0,0,0,0,0.1,0c0.4,2.3,1.7,1.8,1.9,1.4
					c0.2-0.3,0.7-1.2,1.3-2c0.3-0.5,0.6-1,0.9-1.2C455.6,107.5,455.5,106.7,455.5,106.7z"/>
				<g>
					<path class="st4" d="M456,128.9c-3-2.3-4.4-16.3-4.4-18.8c0-2,0-2.4-0.4-2.6c-0.2,0.1-0.3,0.5-0.3,1.1
						c-0.1,1.8-0.8,3.9-0.8,3.9c0.1-0.4,0.5-2.7,0.5-4c0-0.6,0.1-0.9,0.2-1.1c-0.5-0.3-0.9,0.1-0.9,0.7c-0.5,11.3-7.9,20.1-5.2,23.7
						c1.2,1.6,2.9,2.5,4.5,3.1c0-0.9-0.1-3,0.3-6.1c0,0-0.1,2.9,0.8,6.5c2,0.5,3.6,0.4,3.6,0.4c-0.7-2.2-1-4.8-1-4.8
						C455,130.3,456,128.9,456,128.9z"/>
					<path class="st47" d="M450,112.6c0,0,0.7-2.1,0.8-3.9c0-0.6,0.2-0.9,0.3-1.1c-0.1,0-0.2-0.1-0.3-0.1h-0.1
						c-0.1,0.1-0.2,0.4-0.2,1.1C450.5,109.9,450.3,112.1,450,112.6z"/>
					<path class="st47" d="M453.9,135.6c0,0-2.9-7.9-2.6-19.2c0,0,0.7,13.3,3.8,19L453.9,135.6z"/>
				</g>
				<path class="st48" d="M439.1,56.6c0,0,3.9,2.3,5.9,12.1c0,0-3.2,2.9-7.7,3.7l-1.4-6.5L439.1,56.6z"/>
				<path class="st49" d="M445.4,65.6c0-0.2-0.2-0.3-0.3-0.3c-0.2,0-0.3,0-0.5,0.1c-2.6,2.3-6.7,4-8.3,4.7c-0.2,0.1-0.4,0.3-0.3,0.6
					l0.5,2.4c0,0.2,0.3,0.4,0.5,0.4h0.1c5.2-0.9,8.8-4.2,8.9-4.4c0.1-0.1,0.2-0.3,0.1-0.5C445.9,67.6,445.6,66.6,445.4,65.6z"/>
				<g>
					<path class="st50" d="M414.3,56.6c0,0-3.9,2.3-5.9,12.1c0,0,3.2,2.9,7.7,3.7l1.4-6.5L414.3,56.6z"/>
					<path class="st51" d="M408,65.6c0-0.2,0.2-0.3,0.3-0.3c0.2,0,0.3,0,0.5,0.1c2.6,2.3,6.7,4,8.3,4.7c0.2,0.1,0.4,0.3,0.3,0.6
						l-0.5,2.4c0,0.2-0.3,0.4-0.5,0.4h-0.1c-5.2-0.9-8.8-4.2-8.9-4.4c-0.1-0.1-0.2-0.3-0.1-0.5C407.5,67.6,407.8,66.6,408,65.6z"/>
				</g>
				<path class="st46" d="M449.8,93c-0.5-2.5-1.3-5.4-2.2-7.7c-1.2-0.3-3.9,0.2-5.4,2.1c0.5,1.5,1.4,3.4,2.6,5.7
					c2.2,3.9,3.5,7.1,3.6,7.5c0,0,2.4,0.4,2.9-1.4C451.3,99.1,450.8,97.3,449.8,93z"/>
				<path class="st52" d="M411.5,94.9c0,0-2.3,0.8-1,13.4s4,25.1,2.9,36.5c0,0,4.4,2.8,10.6,0c0,0,0.7-17.1,0.3-22.4
					c-0.4-5.3,0.7-13.2,2.3-13.2V100L411.5,94.9z"/>
				<path class="st53" d="M441.9,94.9c0,0,2.3,0.8,1,13.4s-4,25.1-2.9,36.5c0,0-4.4,2.8-10.6,0c0,0-0.7-17.1-0.3-22.4
					c0.4-5.3-0.7-13.2-2.3-13.2V100L441.9,94.9z"/>
				<g>
					<path class="st48" d="M419.6,55.1c-2.4,0.2-5.7,0.8-6.6,2.8c0,0-0.4,3.3,1.9,7.1c0,0-1.5,3,0.7,9.1c2.5,6.8,0.3,11.1-1.6,14.2
						s-2.9,5.9-2.9,11.2c0,0,6.7,7.5,15.4,8.2l0,0l0,0V60C423.5,60,420.8,57.9,419.6,55.1z"/>
					<path class="st50" d="M439.3,88.3c-1.9-3.2-4-7.5-1.6-14.2c2.2-6.1,0.7-9.1,0.7-9.1c2.3-3.8,1.9-7.1,1.9-7.1
						c-0.9-2-4.3-2.6-6.7-2.8c-1,2.8-3.8,4.9-7,4.9v47.7l0,0l0,0l0,0c8.7-0.7,15.4-8.2,15.4-8.2C442.1,94.2,441.1,91.4,439.3,88.3z"
						/>
					<path class="st41" d="M433.6,55.1c-0.5,0-0.9-0.1-1.3-0.1c-1,2.2-3.1,3.7-5.7,3.7V60C429.9,60,432.5,57.9,433.6,55.1z"/>
					<path class="st50" d="M426.6,60v-1.3c-2.5,0-4.7-1.5-5.7-3.7c-0.4,0-0.8,0.1-1.3,0.1C420.8,57.9,423.5,60,426.6,60z"/>
				</g>
				<g>
					<path class="st54" d="M426.6,67.3c0,0-4.4,0-7.7-2.1l-1.6,0.7c0,0-0.5,1.8-2.9,2.4c0,0-0.4,1.8,0.7,6.6
						c1.2,4.8-4.1,12.4-5.2,24.7s-1.1,25-3.3,27.9s9.4,9.3,20,9.3V67.3z"/>
					<path class="st55" d="M426.6,67.3c0,0,4.4,0,7.7-2.1l1.6,0.7c0,0,0.5,1.8,2.9,2.4c0,0,0.4,1.8-0.7,6.6
						c-1.2,4.8,4.1,12.4,5.2,24.7s1.1,25,3.3,27.9s-9.4,9.3-20,9.3V67.3z"/>
					<path class="st56" d="M418.1,55.3c0,0-1.7-0.3-2.7,0.7c0,0,1.8,4.4,1.9,10.4l2.7-0.2C420,66.2,420.1,58.9,418.1,55.3z"/>
					<path class="st57" d="M435.1,55.3c0,0,1.7-0.3,2.7,0.7c0,0-1.8,4.4-1.9,10.4l-2.7-0.2C433.3,66.2,433.1,58.9,435.1,55.3z"/>
				</g>
				<path class="st6" d="M409.8,78.4c0,0,3,1.1,8,7.6c2.7,3.6,5.3,5.7,5.7,6c0,0-0.7,3.2-2.6,2.9c0,0-0.9-1.2-4.5-3.9
					c-3.6-2.6-7.6-7.1-8.9-9.3C407.5,81.7,407.8,79.6,409.8,78.4z"/>
				<g>
					<g>
						<g>
							<path class="st58" d="M429.5,93.4L399,152.7c0.3,0.3,0.6,0.5,0.9,0.7c0.4,0.2,0.7,0.3,1.1,0.3l30.4-59.1
								c-0.7-0.7-1.1-0.6-1.5-0.8C429.9,93.7,429.6,93.5,429.5,93.4z"/>
						</g>
						<path class="st46" d="M423.5,91.9c0,0-1.8-0.5-2.7,2.7c0,0,1.3,2.3,1.9,3.2c0.5,0.9,1,2.3,3.3,3.5c2.7,1.4,3-0.6,3-0.6
							s0.8,0.1,1.2-0.2c0.4-0.3,0.6-0.8,0.3-1.1c0,0,0.7,0.1,1.2-0.5c0.4-0.6,0.1-1.3-0.2-1.5c0,0,0.7-0.1,1.1-0.7
							c0,0,0.6,0.4,1.2,0.2c0.6-0.2,0.5-0.6,0.1-0.8c-0.4-0.2-0.6-0.8-0.8-1.2c-0.1-0.4-0.5-1.1-2-2.1s-2-0.6-2.7-0.6
							s-1.4,0-2.5,0.4C424.6,92.8,423.5,91.9,423.5,91.9z"/>
						<path class="st58" d="M449.6,57.1l-0.3-0.2c-0.5-0.3-1.1-0.1-1.3,0.4l-18.6,36c0.2,0.2,0.4,0.3,0.5,0.4
							c0.3,0.2,0.7,0.1,1.5,0.8l18.6-36.2C450.4,57.9,450.1,57.3,449.6,57.1z"/>
					</g>
					<path class="st46" d="M417.8,85.6c-0.6-0.8-1.3-1.6-1.8-2.2c-1.2-0.2-4,1.4-3.9,4.1c1.3,1.3,2.7,2.6,4.1,3.6
						c3.6,2.6,4.7,3.8,4.7,3.8c1.9,0.3,2.6-2.9,2.6-2.9C423,91.7,420.5,89.2,417.8,85.6z"/>
				</g>
			</g>
		</g>
	</g>
</g>
</svg>
