<svg version="1.1"
	 xmlns="http://www.w3.org/2000/svg" xmlns:xlink="http://www.w3.org/1999/xlink" xmlns:a="http://ns.adobe.com/AdobeSVGViewerExtensions/3.0/"
	 x="0px" y="0px" width="64px" height="52px" viewBox="0 0 64 52" style="enable-background:new 0 0 64 52;" xml:space="preserve">
<style type="text/css">
	.st0{fill:#EF7D33;}
</style>
<defs>
</defs>
<g>
	<g>
		<path class="st0" d="M61,52H3c-1.7,0-3-1.3-3-3V1c0-0.6,0.4-1,1-1h22c0.6,0,1,0.4,1,1v7h37c1.7,0,3,1.3,3,3v38
			C64,50.7,62.7,52,61,52z M2,2v47c0,0.6,0.4,1,1,1h58c0.6,0,1-0.4,1-1V11c0-0.6-0.4-1-1-1H23c-0.6,0-1-0.4-1-1V2H2z"/>
		<path class="st0" d="M56,9h-2V6H23V4h32c0.6,0,1,0.4,1,1V9z"/>
		<rect x="9" y="8" class="st0" width="14" height="2"/>
		<path class="st0" d="M51,48H9c-0.6,0-1-0.4-1-1V17c0-0.6,0.4-1,1-1h42c0.6,0,1,0.4,1,1v30C52,47.6,51.6,48,51,48z M10,46h40V18H10
			V46z"/>
		<path class="st0" d="M55,44h-4v-2h3V14H14v3h-2v-4c0-0.6,0.4-1,1-1h42c0.6,0,1,0.4,1,1v30C56,43.6,55.6,44,55,44z"/>
		<path class="st0" d="M39.3,47.7L22,30.4L9.7,42.7l-1.4-1.4l13-13c0.2-0.2,0.4-0.3,0.7-0.3l0,0c0.3,0,0.5,0.1,0.7,0.3l18,18
			L39.3,47.7z"/>
		<path class="st0" d="M32.7,39.7l-1.4-1.4l10-10c0.4-0.4,1-0.4,1.4,0l9,9l-1.4,1.4L42,30.4L32.7,39.7z"/>
		<path class="st0" d="M32,31c-2.8,0-5-2.2-5-5s2.2-5,5-5s5,2.2,5,5C37,28.8,34.8,31,32,31z M32,23c-1.7,0-3,1.3-3,3
			c0,1.7,1.3,3,3,3c1.7,0,3-1.3,3-3C35,24.3,33.7,23,32,23z"/>
	</g>
</g>
</svg>
