<?xml version="1.0" encoding="utf-8"?>
<!-- Generator: Adobe Illustrator 21.0.2, SVG Export Plug-In . SVG Version: 6.00 Build 0)  -->
<svg version="1.1" id="圖層_1" xmlns="http://www.w3.org/2000/svg" xmlns:xlink="http://www.w3.org/1999/xlink" x="0px" y="0px"
	 width="478px" height="122.5px" viewBox="0 0 478 122.5" style="enable-background:new 0 0 478 122.5;" xml:space="preserve">
<style type="text/css">
	.st0{clip-path:url(#SVGID_2_);}
	.st1{opacity:0.65;}
	.st2{fill:#F3D2B9;}
	.st3{fill:#EACBB2;}
	.st4{fill:#311301;}
	.st5{fill:#40210F;}
	.st6{fill:#FFFFFF;}
	.st7{fill:#E9C1A6;}
	.st8{fill:#EF8585;}
	.st9{fill:#3E3A39;}
	.st10{fill:#595757;}
	.st11{fill:#4C4948;}
	.st12{fill:#888888;}
	.st13{fill:#2E2624;}
	.st14{fill:#231815;}
	.st15{fill:#B4B4B5;}
	.st16{fill:#C8C9CA;}
	.st17{fill:#342E2C;}
	.st18{fill:#0D0D0D;}
	.st19{fill:#080808;}
	.st20{fill:#717071;}
	.st21{fill:#B3B3B3;}
	.st22{fill:#DBDCDC;}
	.st23{fill:#F7F7F7;}
	.st24{fill:#9E9E9F;}
	.st25{fill:#87766D;}
	.st26{fill:#808080;}
	.st27{fill:#C9CACA;}
	.st28{fill:#EEEEEF;}
	.st29{fill:#749284;}
	.st30{fill:#89A097;}
	.st31{fill:#666666;}
	.st32{fill:#EF8200;}
	.st33{fill:#F08C00;}
	.st34{fill:#F18D00;}
	.st35{fill:#F4A45C;}
	.st36{fill:#8DB09E;}
	.st37{fill:#1D4866;}
	.st38{fill:#1A4460;}
	.st39{fill:#123A55;}
	.st40{fill:#0D354F;}
	.st41{fill:#ED7700;}
	.st42{fill:#A97660;}
	.st43{fill:#A4715A;}
	.st44{fill:#A36D57;}
	.st45{fill:#985F47;}
	.st46{fill:#AE7C67;}
	.st47{fill:#B98C77;}
	.st48{fill:#8C5039;}
	.st49{fill:#81422B;}
	.st50{fill:#A6735C;}
	.st51{fill:#AD7C67;}
	.st52{fill:#C39C89;}
	.st53{fill:#EDDFD6;}
	.st54{fill:#CDDF74;}
	.st55{fill:#B5D681;}
	.st56{fill:#E3EB98;}
	.st57{fill:#FFF799;}
	.st58{fill:#FFF571;}
	.st59{fill:#FFFCDB;}
	.st60{fill:#EC6D6D;}
	.st61{fill:#F4B2BA;}
</style>
<g>
	<defs>
		<rect id="SVGID_1_" y="-0.5" width="478" height="124.2"/>
	</defs>
	<clipPath id="SVGID_2_">
		<use xlink:href="#SVGID_1_"  style="overflow:visible;"/>
	</clipPath>
	<g class="st0">
		<g class="st1">
			<g>
				<path class="st2" d="M417.2,93.5c-9.5,0.5-15.4,8.1-15.4,8.1s2,5.8,2.6,10.8c0.5,4.9-0.2,12.5,0.6,15.7c0,0,4.2,3,8.6,0
					c0,0,0.3-6,1.2-10.7S419.5,97.6,417.2,93.5z"/>
			</g>
			<g>
				<path class="st2" d="M386.5,93.5c9.5,0.5,15.4,8.1,15.4,8.1s-2,5.8-2.6,10.8c-0.5,4.9,0.2,12.5-0.6,15.7c0,0-4.2,3-8.6,0
					c0,0-0.3-6-1.2-10.7S384,97.6,386.5,93.5z"/>
			</g>
			<g>
				<path class="st3" d="M415.3,52.2c0,0,1.4,2.1,1.1,24.4c0,0-1.9,1.2-4,0c0,0-1.1-4.9-0.8-18.3C411.5,58.4,411.5,53.6,415.3,52.2z
					"/>
				<path class="st3" d="M412.3,76.7c0,0-0.8,3.1,1.8,10.9c1.5,4.2,1.8,7.6,1.8,8.1c0,0,2.3,0.8,3.1-0.9c0,0-0.5-1.5-0.7-5.9
					s-0.9-9.9-1.9-12.2C416.3,76.7,414.5,75.6,412.3,76.7z"/>
				<path class="st3" d="M419,94.7c0,0,0.7,2,1.6,3.6c0.9,1.6,1.2,4.5,1.2,4.5s1.1,1.5,0.8,5c0,0,0.1,0.7,0.4,1.2s0,1.1-0.7,1
					s-1-0.7-1-0.7s-0.3,0.2-0.6,0c-0.3-0.2-0.9-1.4-0.5-4.3c0,0-0.8-3.3-1.7-3.1c-0.9,0.2-0.4,1-0.4,1.6s0,2.2-1.4,2.3
					c-0.4,0-0.5-0.2-0.5-2.8c0-1.1-0.5-2.1-0.4-4.1c0.1-2,0.1-2.7,0.1-3.3C416,95.6,416.5,94,419,94.7z"/>
			</g>
			<path d="M418.3,88.9c0,0.2,0,0.3,0,0.5c0.6,0.4,1,0.9,0.8,1.2c-0.1,0.2-0.4,0.4-0.7,0.5c-0.1,0-0.2,0-0.3,0
				c-0.5,0-1.2-0.1-1.9-0.3c-0.2-0.1-0.5-0.2-0.7-0.3c-0.2-0.1-0.4-0.2-0.6-0.3c0.1,0.5,0.3,1,0.4,1.4c0.2,0.1,0.4,0.2,0.6,0.2l0,0
				c0.9,0.3,1.7,0.4,2.4,0.4c0.1,0,0.2,0,0.3,0c0.9-0.1,1.6-0.3,1.8-0.9C420.5,90.6,419.8,89.6,418.3,88.9z"/>
			<path d="M420.8,93.9c-0.2-0.6-1-1-2.2-1.1c0,0.2,0.1,0.4,0.1,0.5c0.3,0.1,0.6,0.3,0.6,0.5c0.1,0.2-0.1,0.5-0.4,0.8
				c-0.4,0.4-1.2,0.8-2.1,1c-0.3,0.1-0.6,0.1-0.9,0.2c0,0.3,0,0.6,0,1.2c0.4,0,0.8-0.1,1.2-0.2c0.9-0.2,1.7-0.6,2.3-0.9
				C420.3,95.2,421,94.5,420.8,93.9z"/>
			<path class="st4" d="M368,17.7c1.8,0.1,4-0.8,6.6-5.9c2.6-5.1,8.3-3.3,8.3-3.3c-3.3-2-7.3-0.1-7.3-0.1c6.3-3.7,12-1.6,14.3,1.5
				c1.8,2.4,1.8,5.6-0.2,7.2c-1.2,1-2.8,1.1-4.3,0.6c-0.6,0.8-1.2,1.6-1.8,2c-1.2,1-2.2,1.6-3.1,2l0,0c0,0-0.8,1.2-2.2,2
				c-0.3,1.8,0.1,4,0.1,4c-0.9-0.9-1.3-2.2-1.5-3c-0.6,0.6-0.8,1.2-0.8,1.2c-0.8,2.1-1.9,3.7-1.9,3.7c1.2-5.4,0.5-8.4,0.5-8.4
				c-0.8,3.6-3.9,5.2-3.9,5.2s2.7-2,2.5-6.1c0-0.1,0-0.1,0-0.2l0,0c-0.1-2.2,0-3.6,0.1-4.5C370.8,18.2,368,17.7,368,17.7z"/>
			<path class="st4" d="M435.5,17.7c-1.8,0.1-4-0.8-6.6-5.9c-2.6-5.1-8.3-3.3-8.3-3.3c3.3-2,7.3-0.1,7.3-0.1
				c-6.3-3.7-12-1.6-14.3,1.5c-1.8,2.4-1.8,5.6,0.2,7.2c1.2,1,2.8,1.1,4.3,0.6c0.6,0.8,1.2,1.6,1.8,2c1.2,1,2.2,1.6,3.1,2l0,0
				c0,0,0.8,1.2,2.2,2c0.3,1.8-0.1,4-0.1,4c0.9-0.9,1.3-2.2,1.5-3c0.6,0.6,0.8,1.2,0.8,1.2c0.8,2.1,1.9,3.7,1.9,3.7
				c-1.2-5.4-0.5-8.4-0.5-8.4c0.8,3.6,3.9,5.2,3.9,5.2s-2.7-2-2.5-6.1c0-0.1,0-0.1,0-0.2l0,0c0.1-2.2,0-3.6-0.1-4.5
				C432.7,18.2,435.5,17.7,435.5,17.7z"/>
			<path class="st3" d="M388.3,52.2c0,0-1.3-2.2-21.7-11.3c0,0-1.9,1.2-1.7,3.7c0,0,13,9.3,25.2,14.7
				C390.2,59.3,385.5,55.2,388.3,52.2z"/>
			<path class="st3" d="M365,44.6c0,0-2.6-1.9-5.5-9.6c-1.5-4.2-3.4-7-3.7-7.4c0,0,1.3-2,3-1.2c0,0,0.5,1.5,3.2,5s5.6,8.2,6.2,10.7
				C368,42,367.3,44,365,44.6z"/>
			<g>
				<path class="st5" d="M396.3,47.7c0,0-0.2-1.8,0.5-3.3c0,0-0.3,2.3,0.6,3c0,0,2-0.4,4.4-0.4v-3.5l-14.5-10.7l-3.5-1.7
					c0,0,0.4,7.6-1.5,10.4c-2.1,3.1-1.4,5.3-0.3,6.4c0,0-1-1.4-0.3-3.4c0,0-0.5,3.7,3.3,4.2l0.6-0.3c0,0-1.1-0.6-1.4-1.7
					c0,0,0.9,1.6,2.9,1.9c0,0-1.7-1.4-1-3.6c0.3-0.9,0.3-1.8,0.3-1.8s0.2,0.6-0.1,2.3c-0.3,2.4,2.2,3.2,2.2,3.2l0.3-0.1
					c-0.7-0.6-0.7-1.3-0.7-1.3c0.2,0.5,0.7,0.9,1,1.1l0.8-0.3c0,0-0.6-1-0.2-2.5c0,0-0.1,1.6,0.4,2.4l0.6-0.2c0,0-0.2-2,1-4.2
					c0,0-0.7,2.9,0.7,4.7L396.3,47.7z"/>
				<path class="st5" d="M407.2,47.7c0,0,0.2-1.8-0.5-3.3c0,0,0.3,2.3-0.6,3c0,0-2-0.4-4.4-0.4v-3.5l14.5-10.7l3.5-1.7
					c0,0-0.4,7.6,1.5,10.4c2.1,3.1,1.4,5.3,0.3,6.4c0,0,1-1.4,0.3-3.4c0,0,0.5,3.7-3.3,4.2l-0.6-0.3c0,0,1.1-0.6,1.4-1.7
					c0,0-0.9,1.6-2.9,1.9c0,0,1.7-1.4,1-3.6c-0.3-0.9-0.3-1.8-0.3-1.8s-0.2,0.6,0.1,2.3c0.3,2.4-2.2,3.2-2.2,3.2l-0.3-0.1
					c0.7-0.6,0.7-1.3,0.7-1.3c-0.2,0.5-0.7,0.9-1,1.1l-0.8-0.3c0,0,0.6-1,0.2-2.5c0,0,0.1,1.6-0.4,2.4l-0.6-0.2c0,0,0.2-2-1-4.2
					c0,0,0.7,2.9-0.7,4.7L407.2,47.7z"/>
			</g>
			<path class="st2" d="M414.3,82.4c-1.9-3.1-4-7.4-1.5-14.1c2.2-6,0.7-9,0.7-9c2.2-3.7,1.9-7.1,1.9-7.1c-1.2-2.7-6.8-2.8-8.5-2.9
				c-1.7-0.1-1.6-4.1-1.6-4.1l-3.4,0.6l-3.4-0.6c0,0,0.1,4-1.6,4.1s-7.3,0.3-8.5,2.9c0,0-0.4,3.3,1.9,7.1c0,0-1.5,3,0.7,9
				c2.4,6.7,0.3,11-1.5,14.1s-2.9,5.8-2.9,11.1c0,0,6.7,7.4,15.3,8.1l0,0l0,0l0,0l0,0c8.7-0.7,15.3-8.1,15.3-8.1
				C417.2,88.3,416,85.5,414.3,82.4z"/>
			<path class="st5" d="M383.7,27.2c0-10,8.1-18.1,18.2-18.1c10.1,0,18.2,8.1,18.2,18.1c0,0.5,0,1-0.1,1.5c0,0.3,0.1,0.7,0.1,1.1
				c0.3-1.2,0.4-2.4,0.4-3.7c0-9.9-8.3-18-18.5-18s-18.5,8.1-18.5,18c0,1.3,0.1,2.5,0.4,3.7c0-0.4,0-0.7,0.1-1.1
				C383.7,28.2,383.7,27.7,383.7,27.2z"/>
			<path class="st6" d="M411.3,19.2c-6,7.1-14.6,9.3-14.6,9.3c4-1.4,6.4-5.8,6.4-5.8c-5.7,5.7-13.7,6.8-17.3,7.1v0.1
				c0.8,3.1-0.3,6.8,3.2,10.3c3.6,3.5,9.7,6.3,12.7,6.3s9.1-2.8,12.7-6.3c3.6-3.5,2.3-7.3,3.3-10.4v-0.1
				C417.5,25.4,415,21.6,411.3,19.2z"/>
			<path class="st3" d="M385.8,29.8c0.4,0,0.9-0.1,1.4-0.1c-0.6-0.5-1.2-0.9-1.1-1.3c-0.6-0.2-1.3-0.2-1.8,0c-1.4,0.7-1.9,2.7-1,4.6
				c0.7,1.5,2,2.4,3.3,2.4c-0.4-1.9-0.2-3.8-0.7-5.5C385.8,29.9,385.8,29.9,385.8,29.8z"/>
			<path class="st3" d="M419.3,28.4c-0.6-0.3-1.2-0.3-1.8-0.1c0.1,0.5,0.1,0.9,0.2,1.4v0.1c-0.5,1.7-0.3,3.6-0.7,5.6
				c1.3,0.1,2.6-0.9,3.3-2.4C421.2,31.2,420.8,29.1,419.3,28.4z"/>
			<path class="st5" d="M401.8,14.7c9.5,0,17.3,6.2,18.1,14.1c0-0.5,0.1-1,0.1-1.5c0-10-8.1-18.1-18.2-18.1
				c-10,0-18.2,8.1-18.2,18.1c0,0.5,0,1,0.1,1.5C384.5,20.8,392.3,14.7,401.8,14.7z"/>
			<path class="st5" d="M407.3,25.3c-1.1,0-2,0.5-2.5,1.2c0.2-1.1,1.2-1.9,2.5-1.9s2.3,0.8,2.5,1.9
				C409.3,25.8,408.3,25.3,407.3,25.3z"/>
			<path class="st7" d="M401.8,35.3c0.6,0,1.1,0.3,1.4,0.9c-0.1-0.8-0.7-1.5-1.4-1.5s-1.3,0.6-1.4,1.5
				C400.7,35.7,401.2,35.3,401.8,35.3z"/>
			<path class="st8" d="M401.8,39.6c0,0-0.8,0.2-2.7,0c0,1,1.2,2.7,2.7,2.7s2.7-1.7,2.7-2.7C402.5,39.8,401.8,39.6,401.8,39.6z"/>
			<path class="st9" d="M402.2,28.2c-0.1-0.2-0.3-0.4-0.5-0.4h-4.5l-1.4-4.3c-0.2-0.5-0.9-0.5-1.1,0l-1.4,4.3h-4.5
				c-0.2,0-0.5,0.2-0.5,0.4c-0.1,0.2,0,0.5,0.2,0.6l3.6,2.6l-1.4,4.3c-0.1,0.2,0,0.5,0.2,0.6s0.5,0.1,0.7,0l3.6-2.6l3.6,2.6
				c0.1,0.1,0.2,0.1,0.3,0.1c0.1,0,0.2,0,0.3-0.1c0.2-0.1,0.3-0.4,0.2-0.6l-1.4-4.3l3.6-2.6C402.2,28.7,402.3,28.4,402.2,28.2z"/>
			<g>
				<g>
					
						<image style="overflow:visible;enable-background:new    ;" width="77" height="77" xlink:href="6C49FEDE.png"  transform="matrix(1 0 0 1 351.9992 -2.5164)">
					</image>
				</g>
				<g>
					
						<image style="overflow:visible;enable-background:new    ;" width="77" height="77" xlink:href="6C49FEE2.png"  transform="matrix(1 0 0 1 374.9992 -2.5164)">
					</image>
				</g>
			</g>
			<g>
				<g>
					<g>
						<ellipse cx="395.3" cy="30.1" rx="1.4" ry="2.5"/>
						<ellipse class="st6" cx="395.7" cy="30.6" rx="0.5" ry="0.9"/>
					</g>
				</g>
				<g>
					<g>
						<ellipse cx="408.3" cy="30.1" rx="1.4" ry="2.5"/>
						<ellipse class="st6" cx="407.8" cy="30.6" rx="0.5" ry="0.9"/>
					</g>
				</g>
			</g>
			<path class="st5" d="M386.5,35.3c0,0.1,0,0.1,0,0.2c0,0,0,0-0.1-0.1c-0.5-0.4-1-0.9-1.3-1.5l0,0l0,0c-0.3-0.6-0.7-1.3-0.9-1.9
				c-0.3-1.1-0.5-2.2-0.6-3.3c0.8-7.9,8.6-14.1,18.1-14.1s17.3,6.2,18.1,14.1c-0.2,5.4-2.9,6.7-2.9,6.7c0.4-2,0.2-3.9,0.7-5.6v-0.1
				c-0.3-4.1-2.5-7.7-5.8-10.1c-5.8,6.3-13.4,8.4-15.1,8.8c-0.1,0-0.1,0-0.1,0l0,0c-0.2,0-0.2,0.1-0.2,0.1c3.9-1.3,6.3-5.5,6.3-5.5
				l0,0c-0.2,0.2-0.5,0.4-0.7,0.6l0,0c-5.6,4.9-12.9,5.9-16.3,6.1v0.1C386.3,31.6,386.2,33.4,386.5,35.3L386.5,35.3z"/>
			<path class="st9" d="M402.7,38.7c-0.6-0.5-0.9,0.3-0.9,0.3s-0.4-0.7-0.9-0.3c-0.6,0.5-2.4,0.7-2.4,0.7s2.3,0.8,3.3,0.2
				c1,0.6,3.3-0.2,3.3-0.2S403.3,39.2,402.7,38.7z"/>
			<path class="st9" d="M404,40.1c-1,1.6-2.3,1.7-2.3,1.7s-1.3,0-2.3-1.7c-0.4-0.8-1.1-0.7-1.1-0.7s0.3,0.1,0.7,0.9
				c0.4,0.9,1.2,2.2,2.6,2.2c1.4,0,2.2-1.4,2.6-2.2c0.4-0.9,0.7-0.9,0.7-0.9S404.3,39.3,404,40.1z"/>
			<g>
				<path class="st10" d="M401.8,60.8c-3.5,0-5.1-2.6-5.5-5.7c-0.3-2.2-0.5-4.4-0.9-5.7c-0.5,0-1.2,0.1-1.8,0.2
					c1.1,8-3.4,9.7-3.4,9.7s-1.5,3,0.7,9c0.5,1.3,0.8,2.5,0.9,3.6c1.3,0.6,4.1,2.7,10,2.8L401.8,60.8L401.8,60.8z"/>
			</g>
			<g>
				<path class="st11" d="M401.8,60.8c3.5,0,5.1-2.6,5.5-5.7c0.3-2.2,0.5-4.4,0.9-5.7c0.5,0,1.2,0.1,1.8,0.2c-1.1,8,3.4,9.7,3.4,9.7
					s1.5,3-0.7,9c-0.5,1.3-0.8,2.5-0.9,3.6c-1.3,0.6-4.1,2.7-10,2.8V60.8L401.8,60.8z"/>
			</g>
			<g>
				<path class="st12" d="M390.2,59.5c-0.1,0-0.2-0.1-0.2-0.2c0-0.1,0-0.3,0.1-0.3c0.2-0.1,4.3-1.6,3.2-9.1c0-0.1,0.1-0.3,0.2-0.3
					c0.1,0,0.3,0.1,0.3,0.2C395,57.8,390.5,59.4,390.2,59.5C390.3,59.5,390.2,59.5,390.2,59.5z"/>
			</g>
			<g>
				<path class="st12" d="M413.5,59.5C413.3,59.5,413.3,59.5,413.5,59.5c-0.3-0.1-4.8-1.8-3.6-9.7c0-0.1,0.1-0.2,0.3-0.2
					c0.1,0,0.2,0.1,0.2,0.3c-1.1,7.5,3.1,9.1,3.2,9.1c0.1,0,0.2,0.2,0.1,0.3C413.7,59.5,413.5,59.5,413.5,59.5z"/>
			</g>
			<path class="st9" d="M408.3,49.5c-0.1,0-0.3,0-0.3,0.2c-0.4,1.2-0.6,3.2-0.9,5.1l-0.1,0.5c-0.2,1.6-1.1,5.3-5.2,5.3l0,0l0,0
				c-4.1,0-5-3.7-5.2-5.3l-0.1-0.5c-0.2-1.9-0.5-3.9-0.9-5.1c0-0.1-0.2-0.2-0.3-0.2s-0.2,0.2-0.2,0.3c0.4,1.2,0.6,3.1,0.8,5l0.1,0.5
				c0.5,3.6,2.5,5.7,5.7,5.7l0,0l0,0c3.2,0,5.3-2.1,5.7-5.7l0.1-0.5c0.2-1.9,0.5-3.9,0.8-5C408.5,49.7,408.3,49.5,408.3,49.5z"/>
			<g>
				<path class="st13" d="M406,48.9c-0.5-0.6-0.7-1.6-0.8-2.4c-0.8,0.5-2.1,0.8-3.5,0.8c-1.4,0-2.6-0.3-3.4-0.7
					c-0.1,0.9-0.3,1.9-0.8,2.4c1.2,0.5,2.7,0.7,4.2,0.7C403.3,49.7,404.8,49.4,406,48.9z"/>
				<g>
					<path class="st6" d="M401.8,47.3c-1.3,0-2.6-0.3-3.5-0.7c-0.1,0-0.1-0.1-0.1-0.2c0-0.1,0.1-0.1,0.2-0.1
						c0.9,0.4,2.1,0.7,3.4,0.7s2.6-0.3,3.4-0.7c0.1,0,0.1,0,0.2,0.1c0,0.1,0,0.1,0,0.2C404.5,47.1,403.2,47.3,401.8,47.3z"/>
				</g>
			</g>
			<g>
				<g>
					<circle class="st9" cx="398.7" cy="48.1" r="0.2"/>
					<circle class="st9" cx="400.3" cy="48.4" r="0.2"/>
					<circle class="st9" cx="401.8" cy="48.6" r="0.2"/>
				</g>
				<g>
					<circle class="st9" cx="404.8" cy="48.1" r="0.2"/>
					<circle class="st9" cx="403.3" cy="48.4" r="0.2"/>
					<circle class="st9" cx="401.8" cy="48.6" r="0.2"/>
				</g>
			</g>
			<g>
				<path class="st14" d="M401.7,54.3c-2.1,0-4-1.6-5.2-4.3c0-0.1,0-0.2,0.1-0.2c0.1,0,0.2,0,0.2,0.1c1.1,2.6,3,4.2,4.9,4.2
					c2.1,0,4-1.7,5.1-4.6c0-0.1,0.1-0.1,0.2-0.1c0.1,0,0.1,0.1,0.1,0.2C405.8,52.5,403.8,54.3,401.7,54.3z"/>
			</g>
			<polygon class="st9" points="402,56.9 402,54.5 401.5,54.5 401.5,56.9 401,56.9 401,57.3 401.5,57.3 401.5,57.9 402,57.9 
				402,57.3 402.7,57.3 402.7,56.9 			"/>
			<path class="st6" d="M401.8,53.9L401.8,53.9C401.8,53.9,401.8,53.9,401.8,53.9l0.1,0.7c0,0,0,0.1-0.1,0.1l0,0c0,0-0.1,0-0.1-0.1
				L401.8,53.9L401.8,53.9z"/>
			<g>
				<g>
					<path class="st14" d="M406.3,78.9c-5.6,0-9.3-4.2-9.3-4.2c-0.1-0.1-0.1-0.2,0-0.3c0-0.1,0.2-0.2,0.2-0.2c4.9,0.1,7.8-1.3,9-2
						c-5.8-1-9.5-4.3-9.5-4.4c-0.1-0.1-0.1-0.2-0.1-0.3c0-0.1,0.1-0.2,0.2-0.2c5.4,0.4,8.3-1.7,9.4-2.6c-7.2-0.7-9.7-3.9-9.8-4
						s-0.1-0.3,0-0.4c0.1-0.1,0.3-0.1,0.4,0c0,0,2.6,3.3,10,3.9c0.1,0,0.2,0.1,0.2,0.2s0,0.2,0,0.3c-0.1,0.1-3,3.4-9.4,3.2
						c1.3,1,4.7,3.3,9.3,3.8c0.1,0,0.2,0.1,0.2,0.2s0,0.2-0.1,0.3c-0.1,0.1-2.9,2.5-9.2,2.5c1.1,1.1,4.4,3.8,8.9,3.6
						c0.1,0,0.3,0.1,0.3,0.3c0,0.1-0.1,0.3-0.2,0.3C406.7,78.9,406.5,78.9,406.3,78.9z"/>
				</g>
				<g>
					<path class="st14" d="M397.3,78.9c5.6,0,9.3-4.2,9.3-4.2c0.1-0.1,0.1-0.2,0-0.3c0-0.1-0.2-0.2-0.2-0.2c-4.9,0.1-7.8-1.3-9-2
						c5.8-1,9.5-4.3,9.5-4.4c0.1-0.1,0.1-0.2,0.1-0.3c0-0.1-0.1-0.2-0.2-0.2c-5.4,0.4-8.3-1.7-9.4-2.6c7.2-0.7,9.7-3.9,9.8-4
						c0.1-0.1,0.1-0.3,0-0.4c-0.1-0.1-0.3-0.1-0.4,0c0,0-2.6,3.3-10,3.9c-0.1,0-0.2,0.1-0.2,0.2s0,0.2,0,0.3c0.1,0.1,3,3.4,9.4,3.2
						c-1.3,1-4.7,3.3-9.3,3.8c-0.1,0-0.2,0.1-0.2,0.2s0,0.2,0.1,0.3c0.1,0.1,2.9,2.5,9.2,2.5c-1.1,1.1-4.4,3.8-8.9,3.6
						c-0.1,0-0.3,0.1-0.3,0.3c0,0.1,0.1,0.3,0.2,0.3C397,78.9,397,78.9,397.3,78.9z"/>
				</g>
			</g>
			<g>
				<path class="st13" d="M406.8,49.2c0,0,6.1,0.1,10,1.6c0,0,0.4,6.4-3,9.8c0,0,1.1,6.3,1,16.2c0,0-2.5,2.7-9.8,3.1V61.7
					L406.8,49.2z"/>
				<g>
					<g>
						<path class="st6" d="M405,80.2c-0.1,0-0.1,0-0.2-0.1c0,0-0.1-0.1-0.1-0.2V61.7l1.8-12.5c0-0.1,0.1-0.2,0.3-0.2
							c0.1,0,0.2,0.1,0.2,0.3l-1.8,12.4v17.9c6.9-0.5,9.4-3,9.4-3c0.1-0.1,0.3-0.1,0.4,0c0.1,0.1,0.1,0.3,0,0.4
							C414.8,77.1,412.3,79.7,405,80.2L405,80.2z"/>
					</g>
					<g>
						<path class="st6" d="M413.8,60.9c-0.1,0-0.1,0-0.2-0.1c-0.1-0.1-0.1-0.3,0-0.4c3.2-3.2,2.9-9.5,2.9-9.6s0.1-0.3,0.2-0.3
							c0.1,0,0.3,0.1,0.3,0.2c0,0.3,0.3,6.6-3,10C414,60.9,413.8,60.9,413.8,60.9z"/>
					</g>
				</g>
				<g>
					<g>
						<path class="st15" d="M412.3,59.7c-0.5,0.6-2.3,2.7-5.8,3.6l0.1,0.4c4-1,6-3.7,6-3.8L412.3,59.7z"/>
						<path class="st16" d="M412.3,59.7l-0.3-0.2c0,0-1.9,2.5-5.6,3.5l0.1,0.3C409.8,62.4,411.8,60.3,412.3,59.7z"/>
					</g>
					<g>
						<g>
							<rect x="406.8" y="63.3" class="st12" width="0.2" height="0.6"/>
							<path class="st16" d="M406.8,63.8L406.8,63.8c-0.2,0-0.4,0.2-0.4,0.4v1.3c0,0.2,0.2,0.4,0.4,0.4l0,0c0.2,0,0.4-0.2,0.4-0.4
								v-1.3C407.3,64,407,63.8,406.8,63.8z"/>
						</g>
						<circle class="st12" cx="406.8" cy="63.3" r="0.1"/>
					</g>
				</g>
				<g>
					<g>
						<path class="st15" d="M413.2,68.9c-0.5,0.6-2.3,2.7-5.8,3.6l0.1,0.4c4-1,6-3.7,6-3.8L413.2,68.9z"/>
						<path class="st16" d="M413.2,68.9l-0.3-0.2c0,0-1.9,2.5-5.6,3.5l0.1,0.3C410.8,71.6,412.8,69.5,413.2,68.9z"/>
					</g>
					<g>
						<g>
							<rect x="407.7" y="72.5" class="st12" width="0.2" height="0.6"/>
							<path class="st16" d="M407.8,73L407.8,73c-0.2,0-0.4,0.2-0.4,0.4v1.3c0,0.2,0.2,0.4,0.4,0.4l0,0c0.2,0,0.4-0.2,0.4-0.4v-1.3
								C408.3,73.2,408,73,407.8,73z"/>
						</g>
						<circle class="st12" cx="407.8" cy="72.5" r="0.1"/>
					</g>
				</g>
				<g>
					<path class="st9" d="M409.8,53.4c-1.3,0-2.4,1.1-2.4,2.4s1.1,2.4,2.4,2.4s2.4-1.1,2.4-2.4S411.3,53.4,409.8,53.4z M409.8,58.1
						c-1.2,0-2.2-1-2.2-2.2s1-2.2,2.2-2.2s2.2,1,2.2,2.2S411,58.1,409.8,58.1z"/>
					<path class="st9" d="M411.8,55.3L411.8,55.3L411.8,55.3c-0.3-0.8-1-1.3-1.8-1.3c-0.9,0-1.6,0.6-1.8,1.3l0,0l0,0
						c-0.1,0.2-0.1,0.4-0.1,0.6c0,0.6,0.3,1.2,0.8,1.6l0,0l0,0c0.3,0.2,0.7,0.4,1.1,0.4c0.4,0,0.8-0.1,1.1-0.4l0,0l0,0
						c0.5-0.4,0.8-0.9,0.8-1.6C411.8,55.7,411.8,55.5,411.8,55.3z M411.5,55.3h-1.3l-0.4-1.2C410.8,54.1,411.3,54.6,411.5,55.3z
						 M410.3,55.3C410.3,55.3,410.3,55.4,410.3,55.3h1.3l-1,0.7c0,0,0,0,0,0.1l0.4,1.1l-1-0.7l0,0l0,0l-1,0.7l0.4-1.1c0,0,0,0,0-0.1
						l-1-0.7h1.2l0,0l0.4-1.1L410.3,55.3z M409.8,54.1l-0.4,1.2h-1.3C408.5,54.6,409,54.1,409.8,54.1z M408.8,57.3
						c-0.4-0.3-0.7-0.8-0.7-1.4c0-0.2,0-0.3,0.1-0.5l1,0.7L408.8,57.3z M409.8,57.7c-0.4,0-0.7-0.1-1-0.3l1-0.7l1,0.7
						C410.7,57.6,410.3,57.7,409.8,57.7z M411,57.3l-0.4-1.2l1-0.7c0,0.2,0.1,0.3,0.1,0.5C411.8,56.5,411.5,57,411,57.3z"/>
				</g>
			</g>
			<g>
				<path class="st13" d="M396.8,49.2c0,0-6.1,0.1-10,1.6c0,0-0.4,6.4,3,9.8c0,0-1.1,6.3-1,16.2c0,0,2.5,2.7,9.8,3.1V61.7
					L396.8,49.2z"/>
				<g>
					<g>
						<path class="st6" d="M398.5,80.2c0.1,0,0.1,0,0.2-0.1c0,0,0.1-0.1,0.1-0.2V61.7l-1.8-12.5c0-0.1-0.1-0.2-0.3-0.2
							c-0.1,0-0.2,0.1-0.2,0.3l1.8,12.4v17.9c-6.9-0.5-9.4-3-9.4-3c-0.1-0.1-0.3-0.1-0.4,0c-0.1,0.1-0.1,0.3,0,0.4
							C388.7,77.1,391.2,79.7,398.5,80.2L398.5,80.2z"/>
					</g>
					<g>
						<path class="st6" d="M389.7,60.9c0.1,0,0.1,0,0.2-0.1c0.1-0.1,0.1-0.3,0-0.4c-3.2-3.2-2.9-9.5-2.9-9.6s-0.1-0.3-0.2-0.3
							c-0.1,0-0.3,0.1-0.3,0.2c0,0.3-0.3,6.6,3,10C389.5,60.9,389.7,60.9,389.7,60.9z"/>
					</g>
				</g>
				<g>
					<g>
						<path class="st15" d="M391.3,59.7c0.5,0.6,2.3,2.7,5.8,3.6l-0.1,0.4c-4-1-6-3.7-6-3.8L391.3,59.7z"/>
						<path class="st16" d="M391.3,59.7l0.3-0.2c0,0,1.9,2.5,5.6,3.5l-0.1,0.3C393.7,62.4,391.8,60.3,391.3,59.7z"/>
					</g>
					<g>
						<g>
							<rect x="396.6" y="63.3" class="st12" width="0.2" height="0.6"/>
							<path class="st16" d="M396.7,63.8L396.7,63.8c0.2,0,0.4,0.2,0.4,0.4v1.3c0,0.2-0.2,0.4-0.4,0.4l0,0c-0.2,0-0.4-0.2-0.4-0.4
								v-1.3C396.3,64,396.5,63.8,396.7,63.8z"/>
						</g>
						<circle class="st12" cx="396.7" cy="63.3" r="0.1"/>
					</g>
				</g>
				<g>
					<g>
						<path class="st15" d="M390.3,68.9c0.5,0.6,2.3,2.7,5.8,3.6l-0.1,0.4c-4-1-6-3.7-6-3.8L390.3,68.9z"/>
						<path class="st16" d="M390.3,68.9l0.3-0.2c0,0,1.9,2.5,5.6,3.5l-0.1,0.3C392.7,71.6,390.8,69.5,390.3,68.9z"/>
					</g>
					<g>
						<g>
							<rect x="395.7" y="72.5" class="st12" width="0.2" height="0.6"/>
							<path class="st16" d="M395.8,73L395.8,73c0.2,0,0.4,0.2,0.4,0.4v1.3c0,0.2-0.2,0.4-0.4,0.4l0,0c-0.2,0-0.4-0.2-0.4-0.4v-1.3
								C395.3,73.2,395.5,73,395.8,73z"/>
						</g>
						<circle class="st12" cx="395.8" cy="72.5" r="0.1"/>
					</g>
				</g>
			</g>
			<g>
				<path class="st17" d="M386.8,88.8c0,0-2.5,7-0.8,17.2s2.3,13.3,2.1,15c-0.2,1.6-0.1,2.5,0.6,3.6c0.7,1.2-0.9,3.5-0.5,6.5
					c0.4,3,0.4,15,1.7,20.7s-2,4.9,0.5,8.1s8.2,0.7,9,0s-0.3-3.6,0-5.3s0.7-17.6,0.3-22.2c-0.4-4.6,0.3-5.8,0.2-10.5
					s0.4-17.3,1.9-17.3V88.8H386.8z"/>
				<path class="st13" d="M416.5,88.8c0,0,2.5,7,0.8,17.2s-2.3,13.3-2.1,15c0.2,1.6,0.1,2.5-0.6,3.6c-0.7,1.2,0.9,3.5,0.5,6.5
					c-0.4,3-0.4,15-1.7,20.7c-1.3,5.7,2,4.9-0.5,8.1s-8.2,0.7-9,0s0.3-3.6,0-5.3s-0.7-17.6-0.3-22.2c0.4-4.6-0.3-5.8-0.2-10.5
					c0.1-4.7-0.4-17.3-1.9-17.3V88.8H416.5z"/>
			</g>
			<g>
				<path class="st18" d="M385.8,97c0.2,0,0.5-0.1,1-0.2c1.6-0.3,4.5-0.9,7.1-1.6c2.9-0.8,3.3-4.3,3.1-6l-1,0.1c0,0,0.4,4.1-2.4,4.9
					c-2.5,0.7-5.4,1.3-7,1.6c-0.5,0.1-0.8,0.2-1,0.2L385.8,97z"/>
			</g>
			<g>
				<path class="st17" d="M418,98.2c-0.1-0.2-0.8-0.2-1.3-0.3c-1.6-0.3-4.5-0.9-7.1-1.6c-2.9-0.8-3.3-4.3-3.1-6l1,0.1
					c0,0-0.4,4.1,2.4,4.9c2.5,0.7,5.4,1.3,7,1.6c0.5,0.1,0.8,0.2,1,0.2L418,98.2z"/>
			</g>
			<g>
				<g>
					<path class="st6" d="M401.8,91.8L401.8,91.8c-6.3,0-12-1.1-14.8-2.8c-0.2-0.1-0.3-0.4-0.3-0.7c0.3-1.3,0.5-2,0.6-2.2
						c0.1-0.3,0.4-0.4,0.6-0.3c3.4,1.6,8.5,2.5,13.9,2.5l0,0c5.4,0,10.5-0.9,13.9-2.5c0.1-0.1,0.3,0,0.4,0c0.1,0,0.1,0.1,0.2,0.2
						c0,0,0.1,0.1,0.1,0.2c0,0,0.3,0.7,0.6,2.1c0.1,0.3,0,0.6-0.3,0.7C413.8,90.7,408.2,91.8,401.8,91.8z M387.8,86.3
						c0,0.1-0.3,0.8-0.6,2.1c2.7,1.7,8.3,2.7,14.6,2.7v0.3v-0.3c6.3,0,11.9-1.1,14.6-2.8c-0.3-1.3-0.5-2.1-0.5-2.1
						c-3.5,1.6-8.6,2.5-14,2.6h-0.1l0,0C396.3,88.9,391.2,87.9,387.8,86.3z"/>
				</g>
				<path class="st18" d="M401.8,88.6c-5.4,0-10.5-0.9-13.9-2.5c-0.1-0.1-0.3,0-0.3,0.2c0,0-0.3,0.8-0.6,2.1c0,0.1,0,0.3,0.1,0.4
					c2.8,1.7,8.4,2.8,14.7,2.8l0,0c0.1,0,0.2-0.1,0.2-0.3V89C402,88.7,401.8,88.6,401.8,88.6z"/>
				<path class="st19" d="M416,86.2C416,86.2,416,86.1,416,86.2l-0.2-0.2c-0.1,0-0.1,0-0.2,0c-3.4,1.6-8.5,2.6-14,2.6
					c-0.1,0-0.2,0.1-0.2,0.3v2.3c0,0.1,0,0.2,0.1,0.2c0,0.1,0.1,0.1,0.2,0.1c6.3,0,12-1.1,14.7-2.8c0.1-0.1,0.2-0.2,0.1-0.4
					C416.3,86.9,416,86.2,416,86.2z"/>
			</g>
			<g>
				<ellipse class="st9" cx="401.8" cy="90.1" rx="3.8" ry="2.7"/>
				<ellipse class="st17" cx="401.8" cy="90.1" rx="3.5" ry="2.4"/>
				<ellipse class="st13" cx="401.8" cy="90.1" rx="2.5" ry="1.7"/>
			</g>
			<g>
				<g>
					<circle class="st20" cx="388" cy="88" r="0.3"/>
					<circle class="st20" cx="389.8" cy="88.7" r="0.3"/>
					<circle class="st20" cx="392" cy="89.1" r="0.3"/>
					<circle class="st20" cx="394.3" cy="89.5" r="0.3"/>
					<circle class="st20" cx="396.5" cy="89.7" r="0.3"/>
				</g>
				<g>
					<circle class="st20" cx="415.8" cy="88" r="0.3"/>
					<circle class="st20" cx="414" cy="88.7" r="0.3"/>
					<circle class="st20" cx="411.8" cy="89.1" r="0.3"/>
					<circle class="st20" cx="409.5" cy="89.5" r="0.3"/>
					<circle class="st20" cx="407.3" cy="89.7" r="0.3"/>
				</g>
			</g>
			<path class="st14" d="M372.2,113.7c0,0,3.7-37,18.8-63.9c0,0,1-0.4,2.6-0.3c0,0-15.2,23-18.2,64.3L372.2,113.7z"/>
			<path class="st14" d="M402.3,72.8c0,0,5.8-16.5,5.6-23.5c0,0,1-0.2,2.3,0.2c0,0-1.8,13.1-7.8,23.6L402.3,72.8z"/>
			<g>
				<path class="st21" d="M402,73.2l0.3-0.1l0.1,0.4c0,0.1,0.2,0.1,0.3,0.1c0.1-0.1,0.2-0.2,0.2-0.3l-0.4-1.1c0-0.1-0.2-0.1-0.3-0.1
					c-0.1,0.1-0.2,0.2-0.2,0.3l0.1,0.4l-0.4,0.1C402,73,402,73.1,402,73.2z"/>
				<path class="st21" d="M371.8,113.5l-0.2,0.2l-0.3-0.3c-0.1-0.1-0.2,0-0.3,0.1s-0.2,0.2-0.1,0.3l0.8,0.9c0.1,0.1,0.2,0,0.3-0.1
					s0.2-0.2,0.1-0.3l-0.3-0.3l0.3-0.3C372,113.7,371.8,113.6,371.8,113.5z"/>
				<g>
					<g>
						<path class="st9" d="M375.8,90.7c2.1-0.4,12.3-1.8,12.8-6.7c-0.9,1.5-2,2.8-3.6,3.5c-4.5,1.9-12.2,1.7-15.7,5.3
							c-3.6,3.6-4.4,9.9,1.2,19.2c0.4,0.6,0.7,1.2,1.1,1.7l2.1-21C373.8,92.7,373.7,91,375.8,90.7z"/>
						<path class="st14" d="M409.8,96.7c-0.7-1.3-1.4,0.8-3.8,1.3c-2.4,0.5-6.4,0.1-6.6-5c-0.3-5.1,1.7-8,1.7-8s-2.5,0.6-3.7-0.8
							s-1-5.7,3.4-9.1c4.4-3.4-3.5-3.9-7.3,0.3c-2.4,2.6-3.4,6-4.9,8.6c-0.6,4.8-10.7,6.3-12.8,6.7c-2.2,0.4-2.1,2-2.1,2l-2.1,21
							c5.9,8,16.1,10.9,20.3,4.4c4.5-7,3-12.1,10.8-14S410.5,98,409.8,96.7z"/>
					</g>
					<path class="st22" d="M381,102.1c0,0-0.1-0.6,4.1,5.4s1.3,10.4,3.6,11.1c0.9,0.3,2.7-1.3,3.2-2.1c3.4-6.9,2.8-10.8,9.9-12.9
						c6.6-2,7.6-3.8,6.9-4.9c-0.4-0.7-1.4,0.6-3.8,0.7c-2.3,0.2-6-1.2-6.3-5.9c-0.2-4.7-1.6-6.9-1.6-6.9s-0.6-1-1.3-0.9
						s-3,4.6-8.5,7.2s-9.6,4.4-7.6,8.6C381.5,105.6,381,102.1,381,102.1z"/>
					<g>
						<path class="st10" d="M394.5,89.9l4,4.5l38-33.9l-2.6-3.3C432,58.7,394.5,89.9,394.5,89.9z"/>
						<path class="st14" d="M450.7,46.4c-2.6,0.5-14.9,6.6-15.9,7.2c0,0,0.2,2.6-0.9,3.5l0,0l2.6,3.3l0,0c0,0,2-1.5,4.5,0.1
							c0,0,7-8.3,8.4-8.8c1.4-0.5,2.8,1.1,4-1.4S453.3,45.9,450.7,46.4z"/>
					</g>
					<g>
						
							<rect x="383.5" y="97.7" transform="matrix(0.751 -0.6603 0.6603 0.751 28.9519 279.8717)" class="st23" width="4.1" height="7.7"/>
						<path class="st24" d="M386.7,105.9C386.7,105.9,386.5,105.9,386.7,105.9C386.5,105.9,386.5,105.9,386.7,105.9l-5.2-5.8V100
							l3.1-2.7c0,0,0,0,0.1,0c0,0,0,0,0.1,0l5.1,5.8v0.1L386.7,105.9L386.7,105.9z M381.7,100.1l5,5.7l3-2.6l-5-5.7L381.7,100.1z"/>
					</g>
					<g>
						<path class="st25" d="M382.7,109.6c-0.1,0-0.2,0-0.3-0.1l-5.1-5.8c-0.1-0.1-0.1-0.1-0.1-0.2s0-0.2,0.1-0.2l3.1-2.7
							c0.1-0.1,0.1-0.1,0.2-0.1c0.1,0,0.2,0,0.2,0.1l5.1,5.8c0.1,0.1,0.1,0.3,0,0.5l-3.1,2.7C382.8,109.6,382.8,109.6,382.7,109.6z"
							/>
					</g>
					<g>
						<path class="st25" d="M382.7,109.6c-0.1,0-0.2,0-0.3-0.1l-5.1-5.8c-0.1-0.1-0.1-0.1-0.1-0.2s0-0.2,0.1-0.2l3.1-2.7
							c0.1-0.1,0.1-0.1,0.2-0.1c0.1,0,0.2,0,0.2,0.1l5.1,5.8c0.1,0.1,0.1,0.3,0,0.5l-3.1,2.7C382.8,109.6,382.8,109.6,382.7,109.6z"
							/>
					</g>
					<g>
						
							<rect x="389.3" y="93.6" transform="matrix(0.751 -0.6603 0.6603 0.751 32.8801 282.107)" class="st23" width="2.3" height="7.7"/>
						<path class="st24" d="M392.3,101.2L392.3,101.2C392.2,101.2,392.2,101.2,392.3,101.2l-5.2-5.8c0,0,0,0,0-0.1c0,0,0,0,0-0.1
							l1.7-1.5h0.1l5.1,5.8v0.1L392.3,101.2L392.3,101.2z M387.3,95.3l5,5.7l1.6-1.4l-5-5.7L387.3,95.3z"/>
					</g>
					<g>
						
							<rect x="393" y="90.4" transform="matrix(0.751 -0.6603 0.6603 0.751 35.9205 283.7314)" class="st23" width="2.3" height="7.7"/>
						<path class="st24" d="M395.8,98L395.8,98L395.8,98l-5.2-5.8v-0.1l1.7-1.5c0,0,0,0,0.1,0c0,0,0,0,0.1,0l5.1,5.8v0.1L395.8,98
							C396,98,395.8,98,395.8,98z M390.8,92.2l5,5.7l1.6-1.4l-5-5.7L390.8,92.2z"/>
					</g>
					<g>
						<g>
							<path class="st26" d="M435.8,51.7c0-0.1,0-0.1,0-0.2c-0.1,0.2-0.2,0.4-0.1,0.6c0.1,0.4,0.5,0.7,1,0.6
								c0.4-0.1,0.6-0.4,0.6-0.8c-0.1,0.2-0.3,0.3-0.5,0.3C436.5,52.4,436,52.2,435.8,51.7z"/>
							<path class="st27" d="M436.3,51.2c-0.2,0-0.4,0.2-0.5,0.3c0,0.1,0,0.1,0,0.2c0.1,0.4,0.5,0.7,1,0.6c0.2,0,0.4-0.2,0.5-0.3
								c0-0.1,0-0.1,0-0.2C437.3,51.4,436.8,51.1,436.3,51.2z"/>
						</g>
						<g>
							<path class="st26" d="M438.3,50.6c0-0.1,0-0.1,0-0.2c-0.1,0.2-0.2,0.4-0.1,0.6c0.1,0.4,0.5,0.7,1,0.6
								c0.4-0.1,0.6-0.4,0.6-0.8c-0.1,0.2-0.3,0.3-0.5,0.3C438.8,51.3,438.5,51,438.3,50.6z"/>
							<path class="st27" d="M438.8,50c-0.2,0-0.4,0.2-0.5,0.3c0,0.1,0,0.1,0,0.2c0.1,0.4,0.5,0.7,1,0.6c0.2,0,0.4-0.2,0.5-0.3
								c0-0.1,0-0.1,0-0.2C439.8,50.2,439.3,49.9,438.8,50z"/>
						</g>
						<g>
							<path class="st26" d="M440.8,49.4c0-0.1,0-0.1,0-0.2c-0.1,0.2-0.2,0.4-0.1,0.6c0.1,0.4,0.5,0.7,1,0.6
								c0.4-0.1,0.6-0.4,0.6-0.8c-0.1,0.2-0.3,0.3-0.5,0.3C441.3,50.1,441,49.8,440.8,49.4z"/>
							<path class="st27" d="M441.3,48.9c-0.2,0-0.4,0.2-0.5,0.3c0,0.1,0,0.1,0,0.2c0.1,0.4,0.5,0.7,1,0.6c0.2,0,0.4-0.2,0.5-0.3
								c0-0.1,0-0.1,0-0.2C442.3,49,441.8,48.8,441.3,48.9z"/>
						</g>
						<g>
							<path class="st26" d="M443.3,48.2c0-0.1,0-0.1,0-0.2c-0.1,0.2-0.2,0.4-0.1,0.6c0.1,0.4,0.5,0.7,1,0.6
								c0.4-0.1,0.6-0.4,0.6-0.8c-0.1,0.2-0.3,0.3-0.5,0.3C443.8,48.9,443.5,48.7,443.3,48.2z"/>
							<path class="st27" d="M443.8,47.7c-0.2,0-0.4,0.2-0.5,0.3c0,0.1,0,0.1,0,0.2c0.1,0.4,0.5,0.7,1,0.6c0.2,0,0.4-0.2,0.5-0.3
								c0-0.1,0-0.1,0-0.2C444.7,47.9,444.3,47.6,443.8,47.7z"/>
						</g>
						<g>
							<path class="st26" d="M445.8,47.1c0-0.1,0-0.1,0-0.2c-0.1,0.2-0.2,0.4-0.1,0.6c0.1,0.4,0.5,0.7,1,0.6
								c0.4-0.1,0.6-0.4,0.6-0.8c-0.1,0.2-0.3,0.3-0.5,0.3C446.3,47.8,446,47.5,445.8,47.1z"/>
							<path class="st27" d="M446.3,46.5c-0.2,0-0.4,0.2-0.5,0.3c0,0.1,0,0.1,0,0.2c0.1,0.4,0.5,0.7,1,0.6c0.2,0,0.4-0.2,0.5-0.3
								c0-0.1,0-0.1,0-0.2C447.2,46.7,446.8,46.4,446.3,46.5z"/>
						</g>
						<g>
							<path class="st26" d="M448.3,45.9c0-0.1,0-0.1,0-0.2c-0.1,0.2-0.2,0.4-0.1,0.6c0.1,0.4,0.5,0.7,1,0.6
								c0.4-0.1,0.6-0.4,0.6-0.8c-0.1,0.2-0.3,0.3-0.5,0.3C448.8,46.6,448.5,46.3,448.3,45.9z"/>
							<path class="st27" d="M448.8,45.4c-0.2,0-0.4,0.2-0.5,0.3c0,0.1,0,0.1,0,0.2c0.1,0.4,0.5,0.7,1,0.6c0.2,0,0.4-0.2,0.5-0.3
								c0-0.1,0-0.1,0-0.2C449.7,45.5,449.3,45.3,448.8,45.4z"/>
						</g>
					</g>
					<g>
						
							<ellipse transform="matrix(0.9757 -0.2192 0.2192 0.9757 -12.6606 86.2899)" class="st10" cx="382.5" cy="100.2" rx="0.2" ry="0.2"/>
						
							<ellipse transform="matrix(0.9757 -0.2192 0.2192 0.9757 -12.8369 86.4882)" class="st10" cx="383.4" cy="101.1" rx="0.2" ry="0.2"/>
						
							<ellipse transform="matrix(0.9757 -0.2192 0.2192 0.9757 -13.0204 86.6657)" class="st10" cx="384.1" cy="102" rx="0.2" ry="0.2"/>
						
							<ellipse transform="matrix(0.9757 -0.2192 0.2192 0.9757 -13.1758 86.8569)" class="st10" cx="384.8" cy="102.8" rx="0.2" ry="0.2"/>
						
							<ellipse transform="matrix(0.9757 -0.2192 0.2192 0.9757 -13.352 87.0553)" class="st10" cx="385.7" cy="103.7" rx="0.2" ry="0.2"/>
						
							<ellipse transform="matrix(0.9757 -0.2192 0.2192 0.9757 -13.5283 87.2537)" class="st10" cx="386.5" cy="104.6" rx="0.2" ry="0.2"/>
					</g>
					<g>
						<path class="st23" d="M386.5,104.7C386.5,104.7,386.3,104.7,386.5,104.7c-0.1-0.1-0.1-0.1-0.1-0.1l63.4-56.1h0.1v0.1
							L386.5,104.7L386.5,104.7z"/>
					</g>
					<g>
						<path class="st23" d="M385.7,103.8L385.7,103.8c-0.1-0.1-0.1-0.1-0.1-0.1l61.6-54h0.1v0.1L385.7,103.8L385.7,103.8z"/>
					</g>
					<g>
						<path class="st23" d="M384.8,102.9L384.8,102.9C384.8,102.8,384.8,102.8,384.8,102.9l59.8-52h0.1V51L384.8,102.9
							C385,102.9,385,102.9,384.8,102.9z"/>
					</g>
					<g>
						<path class="st23" d="M384.2,102.1C384,102.1,384,102.1,384.2,102.1C384,102,384,102,384,102l58.1-49.9h0.1v0.1L384.2,102.1
							C384.2,102,384.2,102.1,384.2,102.1z"/>
					</g>
					<g>
						<path class="st23" d="M383.3,101.2C383.3,101.2,383.3,101.2,383.3,101.2C383.3,101.1,383.3,101.1,383.3,101.2l56.3-47.9h0.1
							v0.1L383.3,101.2L383.3,101.2z"/>
					</g>
					<g>
						<path class="st23" d="M382.5,100.3L382.5,100.3C382.5,100.2,382.5,100.2,382.5,100.3L437,54.5h0.1v0.1L382.5,100.3
							L382.5,100.3z"/>
					</g>
					<g>
						
							<ellipse transform="matrix(0.9757 -0.2192 0.2192 0.9757 -1.3169 97.1477)" class="st27" cx="437.2" cy="54.5" rx="0.6" ry="0.6"/>
						
							<ellipse transform="matrix(0.9757 -0.2192 0.2192 0.9757 -0.9871 97.6877)" class="st27" cx="439.8" cy="53.3" rx="0.6" ry="0.6"/>
						
							<ellipse transform="matrix(0.9757 -0.2192 0.2192 0.9757 -0.6645 98.2068)" class="st27" cx="442.3" cy="52.1" rx="0.6" ry="0.6"/>
						
							<ellipse transform="matrix(0.9757 -0.2192 0.2192 0.9757 -0.3419 98.726)" class="st27" cx="444.8" cy="50.9" rx="0.6" ry="0.6"/>
						
							<ellipse transform="matrix(0.9757 -0.2192 0.2192 0.9757 -1.923732e-02 99.2451)" class="st27" cx="447.3" cy="49.7" rx="0.6" ry="0.6"/>
						
							<ellipse transform="matrix(0.9757 -0.2192 0.2192 0.9757 0.3106 99.7851)" class="st27" cx="449.9" cy="48.5" rx="0.6" ry="0.6"/>
					</g>
					<path class="st28" d="M451.2,48.9c-0.7,0.1-1.1,0.8-0.9,1.5c0.1,0.7,0.8,1.1,1.5,0.9c0.7-0.1,1.1-0.8,0.9-1.5
						C452.5,49.2,451.8,48.7,451.2,48.9z M452.2,49.5l-0.5,0.1l-0.3-0.5C451.7,49.1,452,49.3,452.2,49.5z M451.2,49.2l-0.1,0.6
						l-0.5,0.1C450.5,49.6,450.8,49.3,451.2,49.2z M450.5,50.3c0-0.1,0-0.1,0-0.2l0.5,0.2l-0.1,0.6
						C450.8,50.8,450.5,50.6,450.5,50.3z M451.7,51c-0.2,0-0.3,0-0.5,0l0.4-0.4l0.5,0.2C452,50.9,451.8,51,451.7,51z M451.5,50.4
						L451.5,50.4C451.5,50.4,451.5,50.4,451.5,50.4l-0.5,0.4l0.1-0.6v-0.1l-0.5-0.2l0.6-0.1c0,0,0.1,0,0.1-0.1l0.1-0.6l0.3,0.5
						c0,0,0,0,0.1,0l0.6-0.1l-0.4,0.4V50l0.3,0.5L451.5,50.4z M452.3,50.6l-0.3-0.5l0.4-0.4c0,0.1,0,0.1,0.1,0.2
						C452.5,50.2,452.3,50.4,452.3,50.6z"/>
					<g>
						
							<ellipse transform="matrix(0.9757 -0.2192 0.2192 0.9757 -14.4053 87.9501)" class="st23" cx="389.2" cy="108.9" rx="1.2" ry="1.2"/>
						<path class="st24" d="M389.5,110.1c-0.7,0.2-1.4-0.3-1.5-1c-0.2-0.7,0.3-1.4,1-1.5c0.7-0.2,1.4,0.3,1.5,1
							C390.5,109.3,390,110,389.5,110.1z M388.8,107.8c-0.6,0.1-1,0.7-0.9,1.3c0.1,0.6,0.7,1,1.3,0.9s1-0.7,0.9-1.3
							C390,108,389.5,107.6,388.8,107.8z"/>
					</g>
					<g>
						
							<ellipse transform="matrix(0.9757 -0.2192 0.2192 0.9757 -15.4221 88.3969)" class="st23" cx="390.7" cy="113.7" rx="0.8" ry="0.8"/>
						<path class="st24" d="M390.8,114.5c-0.5,0.1-0.9-0.2-1-0.6c-0.1-0.5,0.2-0.9,0.6-1c0.5-0.1,0.9,0.2,1,0.6
							C391.5,113.9,391.3,114.4,390.8,114.5z M390.5,113c-0.4,0.1-0.6,0.4-0.5,0.8c0.1,0.4,0.4,0.6,0.8,0.5c0.4-0.1,0.6-0.4,0.5-0.8
							C391.3,113.2,390.8,112.9,390.5,113z"/>
					</g>
				</g>
			</g>
			<path class="st3" d="M356.5,28.6c0,0,1.6,1.2,3-0.8c0,0-0.8-2.8-0.4-4.1c0.2-0.7,0.7-2.8-0.4-4c-1.9-1.7-3-6.7-3.2-7.4
				s-0.9-1.8-1.4-0.9c-0.5,0.9,0,3.4,0.6,6c0,0-1.7,0.1-1.6,1.3c0,0-1.3,0-1.3,1c0,0-1.9-2.7-2.5-3c-0.6-0.3-1.2-0.1-0.9,0.9
				c0.3,1,2.7,4.2,2.7,4.2s0.5,2.3,2.5,4C355.7,27.4,356.5,28.6,356.5,28.6z"/>
			<path d="M360.2,26.5c-0.3-0.2-0.6-0.2-1-0.1c0,0.2,0.1,0.4,0.1,0.6h0.1c0.2,0.1,0.3,0.4,0.3,0.7c0,0.1,0,0.2,0,0.3
				c-0.1,0.4-0.3,1-0.6,1.5c-0.4,0.5-0.8,1-1.2,1.2c-0.1,0-0.1,0-0.1,0.1c-0.3,0.1-0.6,0.2-0.8,0.1c-0.3-0.2-0.3-0.8,0-1.6
				c-0.1-0.2-0.2-0.3-0.3-0.4c-0.6,1.2-0.6,2.4,0.1,2.9c0.4,0.2,0.9,0.2,1.4-0.1c0.1,0,0.1,0,0.2-0.1c0.6-0.3,1.1-0.8,1.6-1.5
				c0.2-0.3,0.4-0.6,0.5-0.9c0-0.1,0.1-0.1,0.1-0.2C360.8,27.9,360.8,26.9,360.2,26.5z"/>
		</g>
		<g class="st1">
			<g>
				<path class="st2" d="M275.8,90.2c-8.2,4.9-9.8,14.4-9.8,14.4s4.5,4.2,7.3,8.3c2.8,4.1,5.7,11.1,7.9,13.6c0,0,5.2,0.7,7.6-4
					c0,0-2.6-5.4-3.9-10S279.8,92.7,275.8,90.2z"/>
			</g>
			<g>
				<path class="st2" d="M250.7,96.5c9.5,0.5,15.4,8.1,15.4,8.1s-2,5.8-2.6,10.8c-0.5,4.9,0.2,12.5-0.6,15.7c0,0-4.2,3-8.6,0
					c0,0-0.3-6-1.2-10.7C252.1,115.8,248.3,100.6,250.7,96.5z"/>
			</g>
			<path class="st29" d="M245.9,36.1c0,0-1.9-2.4-4.7-1.2c-2.8,1.1-3.8,0-4.2-0.4s-0.5,0.3,0.9,2.1c1.3,1.8,3.5,3.5,5.7,3.3
				C245.8,39.7,245.9,36.1,245.9,36.1z"/>
			<path class="st30" d="M243.3,36.6c0,0-3.3,0.2-4,4s-2.3,4-2.9,4s0,0.7,2.5,0.7s5.3-1,6.5-3.4S243.3,36.6,243.3,36.6z"/>
			<path class="st29" d="M245.7,37c0,0-2.8,1.7-2.8,3.8s-1.4,2.9-1.9,3.3c-0.5,0.3,0.1,0.3,2.3-0.9s4.4-3.1,5.1-4.8
				S245.7,37,245.7,37z"/>
			<path class="st3" d="M249.7,55.2c0,0-1.5,2-2.4,24.3c0,0,1.8,2.8,4,1.7c0,0,1.4-6.3,1.7-19.7C253.1,61.5,253.4,56.7,249.7,55.2z"
				/>
			<path class="st3" d="M248.9,84.4c0,0-3-1.3-7.5-8.2c-2.4-3.8-4.9-6.1-5.3-6.4c0,0,0.8-2.3,2.6-1.9c0,0,0.8,1.3,4.2,4.2
				c3.4,2.9,7.3,6.7,8.4,9C251.3,81.2,250.9,83.3,248.9,84.4z"/>
			<g>
				<path class="st5" d="M257.2,50.5c0,0-0.5-1.8,0.1-3.3c0,0,0,2.3,0.9,2.9c0,0,1.9-0.6,4.3-0.9l-0.5-3.5l-15.8-8.8l-3.7-1.3
					c0,0,1.4,7.5-0.2,10.5c-1.7,3.3-0.7,5.4,0.5,6.3c0,0-1.2-1.3-0.8-3.3c0,0,0,3.7,3.8,3.8l0.6-0.3c0,0-1.1-0.4-1.6-1.5
					c0,0,1.1,1.5,3.1,1.5c0,0-1.8-1.2-1.4-3.4c0.2-0.9,0.1-1.8,0.1-1.8s0.3,0.6,0.2,2.3c0,2.4,2.6,2.9,2.6,2.9l0.3-0.2
					c-0.7-0.5-0.9-1.2-0.9-1.2c0.2,0.4,0.8,0.8,1.1,1l0.8-0.4c0,0-0.7-0.9-0.5-2.4c0,0,0.1,1.6,0.7,2.3l0.6-0.3c0,0-0.5-1.9,0.4-4.3
					c0,0-0.4,3,1.3,4.6L257.2,50.5z"/>
				<path class="st5" d="M268,49.1c0,0,0-1.8-0.9-3.2c0,0,0.6,2.2-0.2,3c0,0-2-0.1-4.4,0.2l-0.5-3.5L275,33.2l3.3-2.2
					c0,0,0.6,7.6,2.8,10.1c2.5,2.8,2,5.1,1.1,6.3c0,0,0.8-1.6-0.1-3.4c0,0,0.9,3.6-2.8,4.6l-0.6-0.2c0,0,1-0.7,1.2-1.9
					c0,0-0.7,1.7-2.6,2.2c0,0,1.5-1.6,0.5-3.7c-0.4-0.9-0.5-1.7-0.5-1.7s-0.1,0.7,0.4,2.3c0.6,2.3-1.8,3.4-1.8,3.4l-0.4-0.1
					c0.6-0.7,0.6-1.3,0.6-1.3c-0.1,0.5-0.6,1-0.8,1.3l-0.9-0.2c0,0,0.4-1.1-0.1-2.5c0,0,0.3,1.6-0.1,2.4l-0.6-0.1c0,0,0-2-1.5-4.1
					c0,0,1.1,2.8-0.1,4.8L268,49.1z"/>
			</g>
			<path class="st3" d="M277.7,83.5c-2.1-3-4.5-7.1-2.5-14c1.8-6.2,0.1-9,0.1-9c2-3.9,1.4-7.2,1.4-7.2c-1.4-2.6-7-2.3-8.7-2.3
				s-1.9-4-1.9-4l-3.4,0.9l-3.5-0.4c0,0,0.4,4-1.3,4.2c-1.7,0.2-7.3,0.8-8.3,3.5c0,0-0.1,3.3,2.3,6.9c0,0-1.2,3.1,1.3,8.9
				c2.9,6.6,1.1,11-0.6,14.2c-1.6,3.2-2.5,6-2.1,11.3c0,0,7.2,6.9,15.9,7l0,0l0,0l0,0l0,0c8.6-1.3,14.7-9.2,14.7-9.2
				C281,89.1,279.7,86.5,277.7,83.5z"/>
			<g>
				<path class="st5" d="M241.9,31.8c-1.3-9.9,5.7-19,15.7-20.3c9.9-1.3,19,5.7,20.3,15.7c0.1,0.5,0.1,1,0.1,1.5
					c0.1,0.3,0.1,0.7,0.2,1c0.1-1.2,0.1-2.5-0.1-3.7c-1.3-9.9-10.5-16.8-20.7-15.5c-10.2,1.3-17.4,10.4-16.1,20.2
					c0.2,1.3,0.5,2.5,0.9,3.6c0-0.4-0.1-0.7-0.1-1.1C242.2,32.8,242.1,32.3,241.9,31.8z"/>
				<path class="st2" d="M268.4,20.3c-5.1,7.8-13.3,11.1-13.3,11.1c3.8-1.9,5.6-6.6,5.6-6.6c-4.9,6.4-12.7,8.5-16.2,9.2v0.1
					c1.2,2.9,0.6,6.8,4.5,9.8c4,3,10.4,5,13.4,4.6s8.7-3.9,11.8-7.8c3.1-3.9,1.4-7.6,1.9-10.7v-0.1
					C275.3,25.7,272.4,22.3,268.4,20.3z"/>
				<path class="st3" d="M244.4,34.2c0.4-0.1,0.8-0.2,1.3-0.3c-0.6-0.4-1.3-0.8-1.3-1.2c-0.6-0.1-1.3-0.1-1.8,0.3
					c-1.3,0.8-1.5,2.9-0.4,4.7c0.9,1.4,2.3,2.2,3.5,2C245.1,37.8,245.1,35.9,244.4,34.2C244.4,34.2,244.4,34.2,244.4,34.2z"/>
				<path class="st3" d="M277.5,28.5c-0.6-0.2-1.2-0.1-1.8,0.2c0.1,0.4,0.3,0.9,0.4,1.4v0.1c-0.3,1.8,0.1,3.6,0,5.7
					c1.2-0.1,2.5-1.2,3-2.8C279.8,30.9,279,28.9,277.5,28.5z"/>
				<path class="st5" d="M265.2,26.9c-1.1,0.1-1.9,0.7-2.3,1.5c0-1.1,0.9-2,2.2-2.2c1.3-0.2,2.4,0.5,2.7,1.5
					C267.2,27.1,266.2,26.8,265.2,26.9z"/>
				<path class="st5" d="M245.9,39.5c0,0.1,0,0.1,0.1,0.2c0,0,0,0-0.1,0c-0.6-0.3-1.1-0.8-1.5-1.3l0,0l0,0c-0.4-0.6-0.8-1.2-1.1-1.8
					c-0.5-1-0.8-2.1-1-3.2c-0.3-7.9,6.7-15.1,16.1-16.3c9.4-1.2,18,3.9,19.7,11.6c0.5,5.4-2,7.1-2,7.1c0.1-2-0.3-3.9,0-5.7V30
					c-0.8-4-3.5-7.3-7.1-9.3c-4.9,7-12.2,10.1-13.8,10.7c-0.1,0-0.1,0.1-0.1,0.1l0,0c-0.1,0.1-0.2,0.1-0.2,0.1
					c3.7-1.8,5.6-6.2,5.6-6.2l0,0c-0.2,0.2-0.4,0.5-0.6,0.7l0,0c-4.9,5.5-12.1,7.5-15.3,8.2v0.1C245.2,35.8,245.3,37.6,245.9,39.5
					L245.9,39.5z"/>
				<g>
					<g>
						<g>
							<ellipse transform="matrix(0.9917 -0.1282 0.1282 0.9917 -2.1613 32.8171)" cx="253.9" cy="33.2" rx="1.4" ry="2.5"/>
							
								<ellipse transform="matrix(0.9917 -0.1282 0.1282 0.9917 -2.2082 32.8842)" class="st6" cx="254.4" cy="33.6" rx="0.5" ry="0.9"/>
						</g>
						<path class="st7" d="M254.6,37c-0.7,0.1-1.4-0.3-1.8-0.9c0.2,1,1,1.8,1.9,1.6c0.8-0.1,1.4-1,1.4-2.1
							C255.9,36.4,255.3,36.9,254.6,37z"/>
					</g>
					<g>
						<g>
							<ellipse transform="matrix(0.9917 -0.1282 0.1282 0.9917 -1.8368 34.4563)" cx="266.8" cy="31.5" rx="1.4" ry="2.5"/>
							
								<ellipse transform="matrix(0.9917 -0.1282 0.1282 0.9917 -1.9175 34.4113)" class="st6" cx="266.4" cy="32.1" rx="0.5" ry="0.9"/>
						</g>
						<path class="st7" d="M267,35.4c0.7-0.1,1.3-0.6,1.5-1.4c0,1.1-0.5,2-1.4,2.1c-0.8,0.1-1.6-0.6-1.9-1.6
							C265.7,35.1,266.4,35.5,267,35.4z"/>
					</g>
				</g>
				<path class="st7" d="M261,37.5c0.6-0.1,1.2,0.2,1.5,0.7c-0.2-0.8-0.9-1.4-1.6-1.3c-0.7,0.1-1.2,0.8-1.2,1.6
					C260,38,260.4,37.6,261,37.5z"/>
				<g>
					<g>
						
							<image style="overflow:visible;enable-background:new    ;" width="77" height="78" xlink:href="6C49FEE5.png"  transform="matrix(1 0 0 1 210.9992 0.4836)">
						</image>
					</g>
					<g>
						
							<image style="overflow:visible;enable-background:new    ;" width="77" height="78" xlink:href="6C49FEE6.png"  transform="matrix(1 0 0 1 233.9992 -2.5164)">
						</image>
					</g>
				</g>
				<path class="st8" d="M261.5,42.3c0,0-0.7,0.3-2.6,0.3c0.1,1,1.5,2.6,2.9,2.4c1.4-0.2,2.3-2,2.2-3.1
					C262.4,42.5,261.5,42.3,261.5,42.3z"/>
				<path class="st31" d="M278.2,29.4H278c-0.3,0.1-0.7,0.2-1.1,0.4c-0.9,0.4-2.2,1-2.9,1.3c0,0,0,0,0-0.1c-0.3-3.9-3.1-4.8-7-4.3
					c-4.2,0.5-6.2,2.1-5.7,5.9c0,0.1,0,0.1,0,0.2l-0.9,0.1l0,0l0,0l0,0l-0.9,0.1c0-0.1,0-0.1,0-0.2c-0.5-3.8-2.8-4.8-7-4.3
					c-3.9,0.5-6.4,2.1-5.7,5.9c0,0,0,0,0,0.1c-0.8-0.1-2.2-0.4-3.1-0.5c-0.5-0.1-0.9-0.1-1.2-0.1h-0.1c-0.2,0-0.4,0.3-0.3,0.5
					c0,0.2,0.2,0.4,0.4,0.4c0,0,0,0,0.1,0c0.2,0,0.5,0,1,0.1c1.1,0.2,3,0.5,3.5,0.6c1,3.2,3.8,5.6,7,5.2c3.2-0.4,5.5-3.3,5.5-6.7
					l1-0.1l0,0l0,0l0,0l1-0.1c0.9,3.3,3.8,5.5,7,5.1c3.2-0.4,5.3-3.4,5.4-6.8c0.5-0.2,2.2-1,3.2-1.5c0.4-0.2,0.7-0.3,1-0.3
					c0,0,0,0,0.1,0c0.2,0,0.4-0.3,0.3-0.5C278.5,29.6,278.4,29.4,278.2,29.4z M258.8,33.5v0.3c0.1,3.1-2,5.9-4.9,6.2
					c-3.1,0.4-5.8-2.1-6.4-5.4c-0.6-3.4,1.6-4.8,5-5.2c3.7-0.5,5.7,0.4,6.2,3.8C258.8,33.2,258.8,33.4,258.8,33.5z M273.3,31.3
					c0.2,3.3-1.7,6.5-4.8,6.9c-2.9,0.4-5.6-1.7-6.3-4.8l-0.1-0.3c0-0.1,0-0.2-0.1-0.3c-0.4-3.4,1.3-4.8,5-5.2
					C270.5,27,273,27.8,273.3,31.3z"/>
			</g>
			<path class="st32" d="M253.9,68.2c0,0-4.3,0.1-7.5-2.1c0,0,1.3-9.4,3.7-11.7L253.9,68.2z"/>
			<g>
				<path class="st2" d="M272.7,56.8c0,0,0-2.5,13.2-20.6c0,0,2.3,0.1,3.3,2.3c0,0-2,4.6-10,15.4C279.3,53.9,276.7,57.9,272.7,56.8z
					"/>
				<path class="st2" d="M289.3,38.6c0,0,2.5-2.1,4.8-10c1.2-4.3,3.1-7,3.4-7.4c0,0-1.6-2.2-3.2-1.2c0,0-0.4,1.5-2.8,5.2
					c-2.4,3.7-5,8.5-5.5,11.1C286,36.2,286.9,38.2,289.3,38.6z"/>
			</g>
			<g>
				<path class="st33" d="M255.9,51.9c-2.3,0.4-5.6,1.2-6.3,3.2c0,0-0.1,3.3,2.3,6.9c0,0-1.2,3.1,1.3,8.9c2.9,6.6,1.1,11-0.6,14.2
					c-1.6,3.2-2.5,6-2.1,11.3c0,0,7.2,6.9,15.9,7l0,0l0,0l-3.3-47.3C260,56.4,257.2,54.6,255.9,51.9z"/>
				<path class="st32" d="M277.7,83.4c-2.1-3-4.5-7.1-2.5-14c1.8-6.2,0.1-9,0.1-9c2-3.9,1.4-7.2,1.4-7.2c-1.1-1.9-4.4-2.3-6.8-2.3
					c-0.8,2.9-3.4,5.1-6.6,5.3l3.3,47.3l0,0l0,0l0,0c8.6-1.3,14.7-9.2,14.7-9.2C281,89,279.7,86.4,277.7,83.4z"/>
				<path class="st34" d="M269.8,50.9c-0.5,0-0.9,0-1.3,0c-0.8,2.2-2.8,3.9-5.3,4.1l0.1,1.2C266.4,56,269,53.8,269.8,50.9z"/>
				<path class="st35" d="M263.2,56.2L263,55c-2.5,0.2-4.8-1.2-5.9-3.3c-0.4,0-0.8,0.1-1.3,0.2C257.2,54.6,260,56.4,263.2,56.2z"/>
			</g>
			<path class="st36" d="M275.3,17.3c-7-9-18-8.5-18-8.5s-10.7,2.3-15.2,12.8c-2.2,6.9,0,12.1,0,12.1l0.2-0.3
				c-0.3-7.9,6.7-15.1,16.1-16.3c9.3-1.2,17.8,3.8,19.7,11.4v0.2l0.2,0.3C278.3,29,279,23.4,275.3,17.3z"/>
			<path class="st37" d="M254.9,52c0,0-1.9,0.1-2.9,0.9c0,0,1.3,6.4,5.8,12.4l3.1-0.2C261,65.1,256.2,59.3,254.9,52z"/>
			<path class="st38" d="M270.9,50.9c0,0,1.9-0.1,3,0.4c0,0-0.4,6.5-4,13.1l-3.1,0.2C266.7,64.7,270.7,58.3,270.9,50.9z"/>
			<path class="st39" d="M263.9,65.1l-6.9,0.5c0,0-2.7,2.2-3.1,6.6c0,0-0.2,7.4-1.8,13.4c2.1,0.8,7.2,2.3,13.4,2L263.9,65.1z"/>
			<path class="st39" d="M252.8,85.8c-0.2,0.7-0.5,1.3-0.7,2c-2.6,6-3.6,20.7,0,35.3c0.6,3.6-0.6,14.6,0,27.6s1.4,12.3,0.8,15.7
				c-0.6,3.4,3.7,4,5.7,4.4s6.3-1.6,5.6-3.6c-0.7-2-1-10.1-0.6-15.8c0.4-5.7-0.6-13,0.4-17.1s-0.7-24,4.1-25.5l-2-20.1
				C259.9,88.5,254.9,86.7,252.8,85.8z"/>
			<path class="st40" d="M278.5,83.9c-2.5-5.7-3.7-13.1-3.7-13.1c-1-4.3-4-6.1-4-6.1l-7,0.5l1.6,22.5
				C269.5,87.4,274,86.4,278.5,83.9z"/>
			<path class="st22" d="M261,64.8l-3.4,0.2c-0.2,0-0.3,0.2-0.3,0.4l0,0c0,0.2,0.2,0.3,0.4,0.3l3.4-0.2c0.2,0,0.3-0.2,0.3-0.4l0,0
				C261.4,65,261.3,64.8,261,64.8z"/>
			<path class="st22" d="M266.7,64.5l3.4-0.2c0.2,0,0.4,0.1,0.4,0.3l0,0c0,0.2-0.1,0.4-0.3,0.4l-3.4,0.2c-0.2,0-0.4-0.1-0.4-0.3l0,0
				C266.3,64.6,266.5,64.5,266.7,64.5z"/>
			<path class="st40" d="M287,114.3c-3.7-14.7-3.9-20.8-8.1-29c-0.3-0.6-1-0.8-1.5-1.3c-3.1,4.1-9.8,1.2-12,4.7
				c0.6,7-0.6,14.6,2.6,20.1c4.9,0.7,11,17.9,13.8,21c2.8,3.2,5.4,10.2,8.4,14.9c3,4.8,6.5,12.1,6.8,14.2c0.4,2.1,5.1,1.8,6.7,0.5
				c1.6-1.3,5.1-3.9,3-6.6c-2.2-2.7-1.2-2.4-6.7-14.2C294.5,126.9,288.2,117.8,287,114.3z"/>
			<g>
				<path class="st37" d="M252.3,84.7c0,0,3.9,2.7,13.1,2.5l0.2,2.9c0,0-9.1,0.6-14.2-2.4C251.4,87.6,251.2,85.7,252.3,84.7z"/>
				<path class="st37" d="M278,82.9c0,0-3.5,3.2-12.7,4.3l0.2,2.9c0,0,9.1-0.6,13.7-4.4C279.4,85.7,279.3,83.8,278,82.9z"/>
			</g>
			<path class="st41" d="M281.2,55.3c0,0,0.7-6.1-4.1-7.3c0,0-1,2.1-3.2,3.4c2.3,3,0,0,0,0s2,4.8,1.4,9
				C277.5,59.7,280.3,57.4,281.2,55.3z"/>
			<path class="st3" d="M236.2,69.9c0,0-1.3-1-3-1.6s-3.9-2.6-3.9-2.6s-1.9-0.4-3.9-3.2c0,0-0.5-0.4-1.1-0.6s-0.7-0.8-0.1-1.2
				c0.6-0.4,1.3-0.1,1.3-0.1s0.1-0.4,0.5-0.4c0.4-0.1,1.6,0.4,3.2,2.9c0,0,2.8,1.9,3.3,1.2c0.6-0.7-0.3-1-0.8-1.4
				c-0.4-0.4-1.5-1.6-0.5-2.6c0.3-0.3,0.5-0.2,2.3,1.7c0.7,0.8,1.8,1.2,3,2.8s1.9,2.8,2.3,3.2C238.7,68,238.6,69.8,236.2,69.9z"/>
			<path class="st2" d="M294.3,20.3c0,0,0.7,1.3,3.2,0.9c0,0,1.3-0.6,2.3-2.1s1.9-3.2,1-3.8c0,0,1-1,0.5-1.6s-1.5,0.3-1.6-0.2
				c-0.1-0.5,3.8-5.6,3.1-6.2s-2.9,3-4,4.9c-0.3,0.6-0.9,0.2-0.9-0.4s0.5-5.2-0.3-5.4s-0.9,4.6-1.3,5.7c-0.4,1.1-1.5,3-1.7,4.6
				S294.8,18.7,294.3,20.3z"/>
			<path class="st2" d="M294.2,20.3c0,0,0.3-1,0-2.1c-0.3-1.1,0.8-2.1,1.9-2.6c1-0.5,0.9-0.9,1.7-1s2.2-0.1,2.2,0.4
				s-0.6,1.6-2.1,1.6c0,0,0.6,1.6-0.5,3.1C296,21.1,295,21,295,21S294.4,20.6,294.2,20.3z"/>
		</g>
		<g class="st1">
			<g>
				<path class="st42" d="M84.1,97c-6.9,3.8-13.2,5.4-18,5.9c-4.7,0.5-8.1,0.1-9.5-0.2c-0.2-0.1-0.5-0.1-0.7-0.2l0,0l0,0
					c-0.9-0.1-1.9-0.1-2.9,0.1h-0.1c-4.2,0.9-4.9,4.8-4.2,8.7c0.4,2.2-0.2,4.1,1.7,5.1l0,0c0,0,10.9,5.4,27.4-2.6
					c8.7-4.2,12.6-10.3,15.6-15c0,0,4.2-6,1.9-11c-2.9-3.7,0,0,0,0S91.4,92.9,84.1,97z"/>
			</g>
			<g>
				<path class="st6" d="M59.3,135.8c0.1,0,0.1,0,0.2-0.1c0.1-0.1,0.2-0.3,0-0.4c-2-2.5-4-8.4-4.1-16c1.4-24.1-8.7-51.8-8.8-52.1
					C46.5,67,46.4,67,46.2,67C46,67.1,46,67.2,46,67.4c0.1,0.3,10.2,27.9,8.8,51.9c0.1,7.8,2.2,13.9,4.3,16.4
					C59.2,135.8,59.2,135.8,59.3,135.8z"/>
			</g>
			<g>
				<path class="st6" d="M50,138.5c0.1,0,0.2,0,0.2-0.1c8.3-8.6,6.5-27.4,5.1-42.5c-0.6-6-1.1-11.7-0.9-15.7
					c0.8-13.6,7.6-20.4,7.7-20.4c0.1-0.1,0.1-0.3,0-0.4c-0.1-0.1-0.3-0.1-0.4,0c-0.1,0.1-7.1,7-7.9,20.8c-0.2,4,0.3,9.5,0.9,15.8
					c1.4,15,3.2,33.6-4.9,42c-0.1,0.1-0.1,0.3,0,0.4C49.9,138.5,49.9,138.5,50,138.5z"/>
			</g>
			<g>
				<path class="st6" d="M59.3,141.6c0.1,0,0.2-0.1,0.3-0.2c0.1-0.2,0-0.3-0.2-0.4c0,0-4.8-2.6-3-30.3c1.8-28.4-9.7-60.8-9.8-61.2
					c-0.1-0.2-0.2-0.2-0.4-0.2C46,49.4,46,49.5,46,49.7c0.1,0.3,11.5,32.7,9.7,60.9c-1.8,28.5,3.2,30.9,3.4,31
					C59.3,141.6,59.3,141.6,59.3,141.6z"/>
			</g>
			<path class="st43" d="M58.3,118.1c0,0-1.7,0.8-5.5,0.5s-6.2-5.7-5.2-12s6.1-7.3,11.1-6.3c4.9,1,4.5,10.4,4.1,12.2
				S61,116.7,58.3,118.1z"/>
			<g>
				<path class="st42" d="M134.6,97.9c0,0-5.8-1.8-5-10c-0.6,0.6,0,0,0,0s6-1.8,12.4-7.1c6.1-5.1,9.7-10.4,12-14.7
					c2.2-4.2,3-7.5,3.2-8.9c0-0.2,0.1-0.5,0.1-0.7l0,0l0,0c0.2-0.9,0.6-1.8,1.1-2.7c0,0,0-0.1,0.1-0.1c2.3-3.6,6.3-2.9,9.6-0.8
					c1.9,1.2,4.1,3.4,4.1,3.4S166.4,90.4,134.6,97.9"/>
			</g>
			<g>
				<g>
					<path class="st5" d="M107.9,88.7c0,0-0.2-1.5,0.4-2.7c0,0-0.3,1.9,0.5,2.5c0,0,1.6-0.3,3.6-0.3v-2.9l-12.1-8.9l-2.9-1.5
						c0,0,0.3,6.3-1.3,8.7c-1.7,2.6-1.1,4.4-0.3,5.3c0,0-0.8-1.2-0.3-2.8c0,0-0.4,3,2.8,3.5l0.5-0.2c0,0-0.9-0.5-1.2-1.4
						c0,0,0.7,1.3,2.4,1.6c0,0-1.4-1.2-0.8-3c0.2-0.8,0.2-1.5,0.2-1.5s0.1,0.5,0,1.9c-0.3,2,1.8,2.6,1.8,2.6l0.3-0.1
						c-0.5-0.5-0.6-1-0.6-1c0.1,0.4,0.6,0.8,0.8,1l0.7-0.3c0,0-0.5-0.8-0.1-2c0,0-0.1,1.3,0.4,2l0.5-0.2c0,0-0.2-1.6,0.8-3.5
						c0,0-0.6,2.4,0.6,3.9L107.9,88.7z"/>
					<path class="st5" d="M116.9,88.7c0,0,0.2-1.5-0.4-2.7c0,0,0.3,1.9-0.5,2.5c0,0-1.6-0.3-3.6-0.3v-2.9l12.1-8.9l2.9-1.5
						c0,0-0.3,6.3,1.3,8.7c1.7,2.6,1.1,4.4,0.3,5.3c0,0,0.8-1.2,0.3-2.8c0,0,0.4,3-2.8,3.5l-0.5-0.2c0,0,0.9-0.5,1.2-1.4
						c0,0-0.7,1.3-2.4,1.6c0,0,1.4-1.2,0.8-3c-0.2-0.8-0.2-1.5-0.2-1.5s-0.1,0.5,0,1.9c0.3,2-1.8,2.6-1.8,2.6l-0.3-0.1
						c0.5-0.5,0.6-1,0.6-1c-0.1,0.4-0.6,0.8-0.8,1l-0.7-0.3c0,0,0.5-0.8,0.1-2c0,0,0.1,1.3-0.4,2l-0.5-0.2c0,0,0.2-1.6-0.8-3.5
						c0,0,0.6,2.4-0.6,3.9L116.9,88.7z"/>
				</g>
				<g>
					<path class="st5" d="M97.3,71.7c0-8.3,6.8-15.1,15.1-15.1s15.1,6.7,15.1,15.1c0,0.4,0,0.8-0.1,1.2c0,0.3,0,0.6,0,0.9
						c0.2-1,0.3-2,0.3-3.1c0-8.3-6.9-14.9-15.4-14.9s-15.4,6.7-15.4,14.9c0,1.1,0.1,2.1,0.3,3.1c0-0.3,0-0.6,0-0.9
						C97.4,72.6,97.3,72.2,97.3,71.7z"/>
					<path class="st2" d="M120.3,65.1c-5,5.9-12.1,7.7-12.1,7.7c3.3-1.2,5.3-4.8,5.3-4.8c-4.7,4.7-11.4,5.7-14.4,5.9V74
						c0.7,2.5-0.3,5.6,2.7,8.5s8,5.2,10.5,5.2s7.6-2.3,10.5-5.2c3-2.9,1.9-6.1,2.7-8.6v-0.1C125.4,70.2,123.4,67.1,120.3,65.1z"/>
					<path class="st3" d="M99.2,73.9c0.3,0,0.7-0.1,1.1-0.1c-0.5-0.4-1-0.8-0.9-1.1c-0.5-0.2-1-0.2-1.5,0c-1.2,0.6-1.6,2.3-0.8,3.8
						c0.6,1.2,1.7,2,2.7,2C99.4,77,99.6,75.4,99.2,73.9C99.2,74,99.2,73.9,99.2,73.9z"/>
					<path class="st3" d="M127,72.7c-0.5-0.2-1-0.2-1.5-0.1c0.1,0.4,0.1,0.8,0.1,1.2v0.1c-0.4,1.4-0.3,3-0.6,4.7c1,0,2.2-0.7,2.8-2
						C128.5,75,128.1,73.3,127,72.7z"/>
					<path class="st5" d="M112.4,61.3c7.9,0,14.4,5.1,15,11.7c0-0.4,0.1-0.8,0.1-1.2c0-8.3-6.8-15.1-15.1-15.1s-15.1,6.7-15.1,15.1
						c0,0.4,0,0.8,0.1,1.2C98,66.4,104.5,61.3,112.4,61.3z"/>
					<path class="st5" d="M116.9,70.1c-0.9,0-1.7,0.4-2.1,1c0.1-0.9,1-1.6,2.1-1.6s1.9,0.7,2.1,1.6
						C118.6,70.5,117.8,70.1,116.9,70.1z"/>
					<path d="M106.5,74.3c-0.9,0.1-1.6,0.6-1.9,1.3c0-0.9,0.7-1.7,1.8-1.9c1.1-0.2,2,0.4,2.3,1.2C108.2,74.5,107.3,74.2,106.5,74.3z
						"/>
					<path class="st5" d="M99.7,78.4c0,0.1,0,0.1,0,0.2c0,0,0,0-0.1,0c-0.4-0.3-0.8-0.7-1.1-1.2l0,0l0,0c-0.3-0.5-0.6-1.1-0.7-1.6
						c-0.3-0.9-0.4-1.8-0.5-2.8c0.6-6.5,7.1-11.7,15-11.7s14.4,5.1,15,11.7c-0.2,4.5-2.4,5.6-2.4,5.6c0.3-1.6,0.2-3.2,0.6-4.7v-0.1
						c-0.2-3.4-2.1-6.4-4.8-8.4c-4.8,5.2-11.1,7-12.5,7.3c-0.1,0-0.1,0-0.1,0l0,0c-0.1,0-0.2,0-0.2,0c3.2-1.1,5.3-4.5,5.3-4.5l0,0
						c-0.2,0.2-0.4,0.3-0.6,0.5l0,0c-4.6,4-10.7,4.9-13.5,5.1v0.1C99.5,75.3,99.5,76.9,99.7,78.4L99.7,78.4z"/>
					<g>
						<g>
							<path class="st7" d="M107.2,77.4c-0.6,0-1.1-0.4-1.4-1c0.1,0.9,0.7,1.6,1.4,1.6c0.7,0,1.3-0.7,1.4-1.6
								C108.3,77,107.8,77.4,107.2,77.4z"/>
						</g>
						<g>
							<g>
								<ellipse cx="117.8" cy="74.1" rx="1.2" ry="2"/>
								<ellipse class="st6" cx="117.4" cy="74.5" rx="0.4" ry="0.7"/>
							</g>
							<path class="st7" d="M117.6,77.4c0.6,0,1.1-0.4,1.4-1c-0.1,0.9-0.7,1.6-1.4,1.6c-0.7,0-1.3-0.7-1.4-1.6
								C116.5,77,117,77.4,117.6,77.4z"/>
						</g>
					</g>
					<path class="st7" d="M112.4,78.5c0.5,0,0.9,0.3,1.2,0.7c-0.1-0.7-0.6-1.2-1.2-1.2s-1.1,0.5-1.2,1.2
						C111.5,78.8,111.9,78.5,112.4,78.5z"/>
					<g>
						<g>
							
								<image style="overflow:visible;enable-background:new    ;" width="76" height="77" xlink:href="6C49FEE4.png"  transform="matrix(1 0 0 1 64.9992 40.4837)">
							</image>
						</g>
						<g>
							
								<image style="overflow:visible;enable-background:new    ;" width="76" height="77" xlink:href="6C49FEE3.png"  transform="matrix(1 0 0 1 83.9992 40.4837)">
							</image>
						</g>
					</g>
					<path class="st8" d="M112.4,82.5c0,0-0.6,0.2-2.1,0c0,0.9,1,2.3,2.1,2.3c1.2,0,2.1-1.4,2.1-2.3C113,82.7,112.4,82.5,112.4,82.5
						z"/>
					<path class="st9" d="M127.4,73.6L127.4,73.6c-0.3,0-0.7,0.1-1.1,0.2c-0.8,0.2-1.9,0.6-2.5,0.8c0,0,0,0,0-0.1
						c0.2-3.2-2-4.3-5.3-4.3c-3.5,0-5.3,1.1-5.3,4.3c0,0.1,0,0.1,0,0.2h-0.8l0,0l0,0l0,0h-0.8c0-0.1,0-0.1,0-0.2
						c0-3.2-1.8-4.3-5.3-4.3c-3.3,0-5.5,1.1-5.3,4.3c0,0,0,0,0,0.1c-0.6-0.2-1.8-0.5-2.5-0.8c-0.4-0.1-0.7-0.2-1-0.2h-0.1
						c-0.2,0-0.3,0.2-0.3,0.4c0,0.2,0.1,0.3,0.3,0.4l0,0c0.2,0,0.4,0,0.8,0.2c0.9,0.3,2.4,0.7,2.8,0.9c0.5,2.8,2.5,5,5.2,5
						s4.9-2.1,5.2-4.9h0.8l0,0l0,0l0,0h0.8c0.4,2.8,2.6,4.9,5.2,4.9c2.7,0,4.7-2.2,5.2-5c0.4-0.1,1.9-0.6,2.8-0.9
						c0.4-0.1,0.6-0.2,0.8-0.2l0,0c0.2,0,0.3-0.2,0.3-0.4C127.7,73.8,127.6,73.6,127.4,73.6z M111,74.9v0.2
						c-0.2,2.6-2.2,4.6-4.7,4.6c-2.6,0-4.5-2.4-4.7-5.1c-0.2-2.8,1.8-3.8,4.7-3.8c3.1,0,4.7,0.9,4.7,3.8C111,74.7,111,74.8,111,74.9
						z M123.2,74.6c-0.2,2.8-2.1,5.1-4.7,5.1c-2.4,0-4.4-2-4.7-4.6v-0.2c0-0.1,0-0.2,0-0.3c0-2.8,1.6-3.8,4.7-3.8
						C121.4,70.8,123.3,71.8,123.2,74.6z"/>
				</g>
			</g>
			<path class="st44" d="M76.7,38.8c-3.1-1.6-4.2-5.5-2.5-8.9c1.7-3.3,5.6-4.8,8.6-3.2c1.6,0.8,2.6,2.2,3,3.9c2.1-1.9,4.5-3.5,7-4.9
				c-1.1-3.2-3.2-6-6.4-7.6c-6.7-3.4-15.1-0.3-18.9,7.1c-3.7,7.3-1.3,16,5.4,19.4c0.9,0.5,1.9,0.8,2.8,1c0.7-2.2,1.7-4.2,2.8-6.2
				C78,39.3,77.3,39.1,76.7,38.8z"/>
			<path class="st45" d="M82.8,26.7c-3.1-1.6-6.9-0.1-8.6,3.2c-1.7,3.3-0.6,7.3,2.5,8.9c0.6,0.3,1.3,0.5,2,0.6
				c1.9-3.3,4.4-6.2,7.2-8.8C85.5,28.9,84.4,27.5,82.8,26.7z"/>
			<path class="st46" d="M103.1,39.6c2-2.1,5.4-3.5,9.3-3.5V20.7l0,0c-7.1,0-13.8,1.8-19.5,4.9c-2.5,1.4-4.9,3.1-7,4.9
				c-2.9,2.6-5.3,5.5-7.2,8.8c-1.1,2-2.1,4-2.8,6.2c-1.1,3.4-1.8,7-1.8,10.7c0,19.6,17.2,35.5,38.4,35.5l0,0v-3l0,0
				c-15.2,0.1-27.4-11.3-27.4-25.3C85.1,52.5,92.6,43.1,103.1,39.6z M91.7,37.9c0-0.1,0-0.1,0-0.2c0.1-0.6,0.3-1.1,0.7-1.4
				c0.4-0.4,1-0.7,1.6-0.7c1.3,0,2.3,1,2.3,2.3s-1,2.3-2.3,2.3S91.7,39.2,91.7,37.9z"/>
			<path class="st47" d="M112.4,87.8c-9.1,0-16.4-7.4-16.4-16.4S103.4,55,112.4,55l0,0v-1.3c-6.2,0-11.1-5.4-11.1-9.7
				c0-1.6,0.7-3.1,1.9-4.3c-10.6,3.4-18.1,12.8-18.1,23.7c0,14,12.2,25.3,27.3,25.3l0,0V87.8L112.4,87.8z"/>
			<path class="st48" d="M103.1,39.6c-1.2,1.2-1.9,2.7-1.9,4.3c0,4.3,5,9.7,11.1,9.7V38.1v-2C108.5,36.1,105.1,37.5,103.1,39.6z"/>
			<path class="st49" d="M94.1,35.5c-0.6,0-1.2,0.3-1.6,0.7s-0.6,0.9-0.7,1.4c0,0.1,0,0.1,0,0.2c0,1.3,1,2.3,2.3,2.3s2.3-1,2.3-2.3
				S95.4,35.5,94.1,35.5z"/>
			<path class="st46" d="M148.1,38.8c3.1-1.6,4.2-5.5,2.5-8.9c-1.7-3.3-5.6-4.8-8.6-3.2c-1.6,0.8-2.6,2.2-3,3.9
				c-2.1-1.9-4.5-3.5-7-4.9c1.1-3.2,3.2-6,6.4-7.6c6.7-3.4,15.1-0.3,18.9,7.1c3.7,7.3,1.3,16-5.4,19.4c-0.9,0.5-1.9,0.8-2.8,1
				c-0.7-2.2-1.7-4.2-2.8-6.2C146.8,39.3,147.4,39.1,148.1,38.8z"/>
			<path class="st44" d="M141.9,26.7c3.1-1.6,6.9-0.1,8.6,3.2c1.7,3.3,0.6,7.3-2.5,8.9c-0.6,0.3-1.3,0.5-2,0.6
				c-1.9-3.3-4.4-6.2-7.2-8.8C139.3,28.9,140.4,27.5,141.9,26.7z"/>
			<path class="st47" d="M148.9,45.5c-0.7-2.2-1.7-4.2-2.8-6.2c-1.9-3.3-4.4-6.2-7.2-8.8c-2.1-1.9-4.5-3.5-7-4.9
				c-5.7-3.1-12.4-4.9-19.5-4.9l0,0v15.4c3.9,0,7.3,1.4,9.3,3.5c10.5,3.5,18.1,12.9,18.1,23.8c0,14-12.2,25.3-27.3,25.3l0,0v3l0,0
				c21.2,0,38.4-15.9,38.4-35.5C150.8,52.5,150.1,48.9,148.9,45.5z M130.6,40.2c-1.3,0-2.3-1-2.3-2.3s1-2.3,2.3-2.3
				c0.6,0,1.2,0.3,1.6,0.7s0.6,0.9,0.7,1.4c0,0.1,0,0.1,0,0.2C133.1,39.2,132,40.2,130.6,40.2z"/>
			<path class="st50" d="M112.4,91.7c-6.2,0-12-1.4-17.2-3.8C89,99,79.1,120.6,83.5,138.5c6.2,25.3,28.6,22.8,28.9,22.8l0,0
				C112.4,161.3,112.4,91.7,112.4,91.7z"/>
			<path class="st51" d="M112.4,91.7v69.7l0,0c0.3,0,22.7,2.5,28.9-22.8c4.4-18-5.5-39.5-11.7-50.6
				C124.5,90.4,118.6,91.7,112.4,91.7z"/>
			<path class="st52" d="M112.4,87.8c9.1,0,16.4-7.4,16.4-16.4S121.4,55,112.4,55l0,0v-1.3c6.2,0,11.1-5.4,11.1-9.7
				c0-1.6-0.7-3.1-1.9-4.3c10.5,3.5,18.1,12.9,18.1,23.8c0,14-12.2,25.3-27.3,25.3l0,0V87.8L112.4,87.8z"/>
			<path class="st45" d="M121.7,39.6c1.2,1.2,1.9,2.7,1.9,4.3c0,4.3-5,9.7-11.1,9.7V38.1v-2C116.3,36.1,119.7,37.5,121.7,39.6z"/>
			<path class="st48" d="M130.6,35.5c0.6,0,1.2,0.3,1.6,0.7s0.6,0.9,0.7,1.4c0,0.1,0,0.1,0,0.2c0,1.3-1,2.3-2.3,2.3s-2.3-1-2.3-2.3
				S129.5,35.5,130.6,35.5z"/>
			<g>
				<circle class="st23" cx="94.5" cy="36.6" r="0.9"/>
				<circle class="st23" cx="131.1" cy="36.6" r="0.9"/>
			</g>
			
				<ellipse transform="matrix(0.1621 -0.9868 0.9868 0.1621 58.1818 147.8537)" class="st53" cx="116.2" cy="39.7" rx="2" ry="4.5"/>
			<path class="st47" d="M112.4,54.9c-9.1,0-16.4,7.4-16.4,16.4s7.4,16.4,16.4,16.4c9.1,0,16.4-7.4,16.4-16.4S121.5,54.9,112.4,54.9
				z M112.4,86.9c-8.3,0-14.9-6.7-14.9-14.9c0-8.3,6.7-14.9,14.9-14.9s14.9,6.7,14.9,14.9C127.3,80.2,120.6,86.9,112.4,86.9z"/>
			<path class="st42" d="M168.9,66.9c0,0,8.3-8,6.9-13.6s-7.9-9.3-11.9-8.4c-4,0.8-4.2,5.5-4.2,5.5s-2.1-3.9-4.9-2.8
				c-2.3,0.9,0.1,3.1,1,6.2c0.9,3.1,0.8,5.7,0.3,7.5C156.3,64.8,162.4,69,168.9,66.9z"/>
			<g>
				<ellipse transform="matrix(0.5028 -0.8644 0.8644 0.5028 30.8873 171.9672)" class="st45" cx="164.9" cy="59.1" rx="5" ry="6"/>
				
					<ellipse transform="matrix(0.5028 -0.8644 0.8644 0.5028 39.5467 172.1128)" class="st45" cx="169.4" cy="51.7" rx="1.6" ry="1.6"/>
				
					<ellipse transform="matrix(0.5028 -0.8644 0.8644 0.5028 38.5166 167.0318)" class="st45" cx="164.5" cy="50" rx="1.6" ry="1.6"/>
				
					<ellipse transform="matrix(0.5028 -0.8644 0.8644 0.5028 37.392 176.6416)" class="st45" cx="172.2" cy="55.8" rx="1.6" ry="1.6"/>
			</g>
			<g>
				<polygon class="st8" points="48.3,49.6 46.4,46.2 44.4,49.6 				"/>
				<path class="st54" d="M28,22.7c0-10.1,8.2-18.3,18.3-18.3s18.3,8.2,18.3,18.3s-8.2,24.2-18.3,24.2S28,32.8,28,22.7z"/>
				<path class="st55" d="M30.9,25.4c0-8.5,6.9-15.4,15.5-15.4s15.4,6.9,15.4,15.4s-6.9,20.4-15.4,20.4S30.9,34,30.9,25.4z"/>
				<path class="st56" d="M58.8,17.9c0-3.6-1.1-7-3-9.7c4.7,3.1,7.8,8.5,7.8,14.6c0,9.7-7.9,23.2-17.5,23.2c-4.6,0-8.8-3-11.9-7.3
					c2.2,1.5,4.5,2.4,7,2.4C51,41.1,58.8,27.6,58.8,17.9z"/>
				
					<ellipse transform="matrix(0.8735 -0.4868 0.4868 0.8735 -0.2646 20.3716)" class="st56" cx="39.1" cy="10.7" rx="4.7" ry="3.4"/>
				
					<ellipse transform="matrix(0.8735 -0.4868 0.4868 0.8735 -3.3329 18.8193)" class="st56" cx="34.5" cy="15.8" rx="1.1" ry="0.8"/>
			</g>
			<g>
				<polygon class="st57" points="63.9,61.8 62.6,57.4 59.5,60.8 				"/>
				<path class="st57" d="M48,26c2.7-11.5,14.2-18.6,25.6-16s18.6,14.1,15.9,25.6S73.8,61,62.4,58.3C50.9,55.6,45.4,37.4,48,26z"/>
				<path class="st58" d="M50.6,29.8c2.3-9.7,11.9-15.7,21.6-13.4S87.8,28.3,85.6,38S72.3,59.3,62.7,57.1
					C53,54.8,48.3,39.5,50.6,29.8z"/>
				<path class="st59" d="M84.2,28.6c1-4.1,0.6-8.2-0.8-11.8c4.5,4.8,6.6,11.7,5,18.6c-2.6,11-15,24.3-26,21.7
					c-5.2-1.2-9.1-5.8-11.5-11.4c2,2.3,4.5,4,7.3,4.6C69.2,52.9,81.7,39.6,84.2,28.6z"/>
				<ellipse transform="matrix(0.9613 -0.2755 0.2755 0.9613 -1.7183 18.1477)" class="st59" cx="63.7" cy="15.2" rx="5.5" ry="4"/>
				
					<ellipse transform="matrix(0.9613 -0.2755 0.2755 0.9613 -3.2702 16.5433)" class="st59" cx="57.3" cy="19.9" rx="1.2" ry="0.9"/>
			</g>
			<g>
				<polygon class="st8" points="48.9,68.3 45.7,65 44.5,69.4 				"/>
				<path class="st8" d="M18.4,43.7c-2.9-11.4,4-23,15.5-25.9s23,4,25.9,15.5S57.4,63,45.9,65.9C34.5,68.8,21.3,55.2,18.4,43.7z"/>
				<path class="st60" d="M22.4,46c-2.4-9.6,3.4-19.4,13-21.8s19.4,3.4,21.8,13s-2,25-11.6,27.5C36,67.2,24.8,55.7,22.4,46z"/>
				<path class="st61" d="M51.7,29.5c-1-4.1-3.2-7.5-6.1-10.2c6.2,2.2,11.2,7.4,13,14.2c2.8,10.9-2.2,28.5-13.2,31.2
					c-5.2,1.3-10.8-0.9-15.5-4.8c2.9,1.1,5.8,1.4,8.6,0.7C49.5,58,54.5,40.5,51.7,29.5z"/>
				<ellipse transform="matrix(0.7279 -0.6857 0.6857 0.7279 -11.0876 26.1039)" class="st61" cx="27.3" cy="27" rx="5.5" ry="4"/>
				
					<ellipse transform="matrix(0.7279 -0.6857 0.6857 0.7279 -16.8799 25.6165)" class="st61" cx="23.8" cy="34.1" rx="1.2" ry="0.9"/>
			</g>
		</g>
	</g>
</g>
</svg>
