<svg version="1.1"
	 xmlns="http://www.w3.org/2000/svg" xmlns:xlink="http://www.w3.org/1999/xlink" xmlns:a="http://ns.adobe.com/AdobeSVGViewerExtensions/3.0/"
	 x="0px" y="0px" width="62.2px" height="50.9px" viewBox="0 0 62.2 50.9" style="enable-background:new 0 0 62.2 50.9;"
	 xml:space="preserve">
<style type="text/css">
	.st0{fill:#ED7D33;}
</style>
<defs>
</defs>
<g>
	<g>
		<path class="st0" d="M16.7,14.8v36h10.2V39h8.5v11.9h10.2v-36L31.1,5.2L16.7,14.8z M26,37.3H21v-5.1H26V37.3z M26,29.7H21v-5.1H26
			V29.7z M26,22H21V17H26V22z M36.2,17h5.1V22h-5.1V17z M36.2,24.6h5.1v5.1h-5.1V24.6z M36.2,32.2h5.1v5.1h-5.1V32.2z M33.7,37.3
			h-5.1v-5.1h5.1V37.3z M33.7,29.7h-5.1v-5.1h5.1V29.7z M33.7,22h-5.1V17h5.1V22z M33.7,22"/>
		<path class="st0" d="M30.7,3.4h0.9l14.9,10h4.7L31.1,0L11,13.4h4.7L30.7,3.4z M30.7,3.4"/>
		<path class="st0" d="M61,29.5H48v21.3h13V29.5z M57,44.8h-5.1v-5.1H57V44.8z M57,37.3h-5.1v-5.1H57V37.3z M57,37.3"/>
		<rect x="48" y="26.3" class="st0" width="14.3" height="1.5"/>
		<path class="st0" d="M14.3,29.5h-13v21.3h13V29.5z M10.3,44.8H5.2v-5.1h5.1V44.8z M10.3,37.3H5.2v-5.1h5.1V37.3z M10.3,37.3"/>
		<rect y="26.3" class="st0" width="14.3" height="1.5"/>
	</g>
</g>
</svg>
