<svg version="1.1"
	 xmlns="http://www.w3.org/2000/svg" xmlns:xlink="http://www.w3.org/1999/xlink" xmlns:a="http://ns.adobe.com/AdobeSVGViewerExtensions/3.0/"
	 x="0px" y="0px" width="48.9px" height="40.2px" viewBox="0 0 48.9 40.2" style="enable-background:new 0 0 48.9 40.2;"
	 xml:space="preserve">
<style type="text/css">
	.st0{fill:#EE7D33;}
</style>
<defs>
</defs>
<g>
	<path class="st0" d="M31.2,33.7c-0.5-0.1-0.9,0.2-1,0.6l-1,4.2H1.9l2.6-11.2h20.8c0.5,0,0.8-0.4,0.8-0.8c0-0.5-0.4-0.8-0.8-0.8H4.5
		L1.9,14.5h27.3l1.2,5.4c0.1,0.5,0.6,0.7,1,0.6c0.5-0.1,0.7-0.6,0.6-1l-1.3-5.8L33.6,1c0.1-0.2,0-0.5-0.2-0.7
		C33.3,0.1,33.1,0,32.8,0h-29C3.4,0,3.1,0.3,3,0.7L0,13.5c0,0.1,0,0.3,0,0.4l2.9,12.7L0,39.2c-0.1,0.2,0,0.5,0.2,0.7
		c0.2,0.2,0.4,0.3,0.7,0.3h29c0.4,0,0.7-0.3,0.8-0.7l1.1-4.9C31.9,34.2,31.6,33.8,31.2,33.7L31.2,33.7z M4.5,1.7h27.3l-2.6,11.2H1.9
		L4.5,1.7z M4.5,1.7"/>
	<path class="st0" d="M7.6,6.1h17.7c0.6,0,1-0.4,1-0.8c0-0.5-0.5-0.8-1-0.8H7.6c-0.6,0-1,0.4-1,0.8C6.6,5.7,7,6.1,7.6,6.1L7.6,6.1z
		 M7.6,6.1"/>
	<path class="st0" d="M5.7,10.1h17.7c0.6,0,1-0.4,1-0.8c0-0.5-0.5-0.8-1-0.8H5.7c-0.6,0-1,0.4-1,0.8C4.7,9.7,5.2,10.1,5.7,10.1
		L5.7,10.1z M5.7,10.1"/>
	<path class="st0" d="M22.3,30.9c0-0.5-0.4-0.8-0.8-0.8H7.1c-0.5,0-0.8,0.4-0.8,0.8c0,0.5,0.4,0.8,0.8,0.8h14.5
		C22,31.8,22.3,31.4,22.3,30.9L22.3,30.9z M22.3,30.9"/>
	<path class="st0" d="M5.5,34.1c-0.5,0-0.8,0.4-0.8,0.8c0,0.5,0.4,0.8,0.8,0.8H20c0.5,0,0.8-0.4,0.8-0.8c0-0.5-0.4-0.8-0.8-0.8H5.5z
		 M5.5,34.1"/>
	<path class="st0" d="M24.5,18.1c0-0.5-0.5-0.8-1-0.8H5.7c-0.6,0-1,0.4-1,0.8c0,0.5,0.5,0.8,1,0.8h17.7C24,18.9,24.5,18.6,24.5,18.1
		L24.5,18.1z M24.5,18.1"/>
	<path class="st0" d="M7.6,23h17.7c0.6,0,1-0.4,1-0.8c0-0.5-0.5-0.8-1-0.8H7.6c-0.6,0-1,0.4-1,0.8C6.6,22.6,7,23,7.6,23L7.6,23z
		 M7.6,23"/>
	<path class="st0" d="M48.7,15.7l-4.3-4.6c-0.2-0.2-0.4-0.3-0.6-0.3c-0.2,0-0.4,0.1-0.6,0.2L27.2,26.1c-0.1,0.1-0.2,0.2-0.2,0.4
		l-2,6.2c-0.1,0.3,0,0.6,0.2,0.8c0.2,0.2,0.4,0.3,0.6,0.3c0.1,0,0.1,0,0.2,0l6.3-1.6c0.1,0,0.3-0.1,0.4-0.2l16.1-15.1
		C49,16.5,49,16,48.7,15.7L48.7,15.7z M27,31.7l1.1-3.4l2.3,2.5L27,31.7z M32.1,30.1l-3.1-3.3l14.8-13.9l3.1,3.3L32.1,30.1z
		 M32.1,30.1"/>
</g>
</svg>
