<?xml version="1.0" encoding="utf-8"?>
<!-- Generator: Adobe Illustrator 21.0.2, SVG Export Plug-In . SVG Version: 6.00 Build 0)  -->
<svg version="1.1" id="圖層_1" xmlns="http://www.w3.org/2000/svg" xmlns:xlink="http://www.w3.org/1999/xlink" x="0px" y="0px"
	 width="126.5px" height="100.9px" viewBox="0 0 126.5 100.9" style="enable-background:new 0 0 126.5 100.9;" xml:space="preserve"
	>
<style type="text/css">
	.st0{clip-path:url(#SVGID_2_);}
	.st1{fill:#FFFFFF;}
</style>
<g>
	<defs>
		<rect id="SVGID_1_" width="126.5" height="100.9"/>
	</defs>
	<clipPath id="SVGID_2_">
		<use xlink:href="#SVGID_1_"  style="overflow:visible;"/>
	</clipPath>
	<g class="st0">
		<g>
			
				<rect x="-1218.8" y="422.7" transform="matrix(0.7071 -0.7071 0.7071 0.7071 -421.5839 -170.4843)" class="st1" width="1604.4" height="2"/>
		</g>
		<g>
			
				<rect x="-1199.9" y="428.9" transform="matrix(0.7071 -0.7071 0.7071 0.7071 -420.4524 -155.2662)" class="st1" width="1604.4" height="2"/>
		</g>
		<g>
			
				<rect x="-1180.9" y="435.1" transform="matrix(0.7071 -0.7071 0.7071 0.7071 -419.3209 -140.0482)" class="st1" width="1604.4" height="2"/>
		</g>
		<g>
			
				<rect x="-1162" y="441.4" transform="matrix(0.7071 -0.7071 0.7071 0.7071 -418.1894 -124.8302)" class="st1" width="1604.4" height="2"/>
		</g>
		<g>
			
				<rect x="-1143.1" y="447.6" transform="matrix(0.7071 -0.7071 0.7071 0.7071 -417.0577 -109.6118)" class="st1" width="1604.4" height="2"/>
		</g>
		<g>
			
				<rect x="-1124.1" y="453.9" transform="matrix(0.7071 -0.7071 0.7071 0.7071 -415.9261 -94.3934)" class="st1" width="1604.4" height="2"/>
		</g>
		<g>
			
				<rect x="-1105.2" y="460.1" transform="matrix(0.7071 -0.7071 0.7071 0.7071 -414.7946 -79.1754)" class="st1" width="1604.4" height="2"/>
		</g>
		<g>
			
				<rect x="-1086.2" y="466.4" transform="matrix(0.7071 -0.7071 0.7071 0.7071 -413.6631 -63.9573)" class="st1" width="1604.4" height="2"/>
		</g>
		<g>
			
				<rect x="-1067.3" y="472.6" transform="matrix(0.7071 -0.7071 0.7071 0.7071 -412.5319 -48.7391)" class="st1" width="1604.4" height="2"/>
		</g>
		<g>
			
				<rect x="-1048.4" y="478.8" transform="matrix(0.7071 -0.7071 0.7071 0.7071 -411.4006 -33.521)" class="st1" width="1604.4" height="2"/>
		</g>
		<g>
			
				<rect x="-1029.4" y="485.1" transform="matrix(0.7071 -0.7071 0.7071 0.7071 -410.269 -18.303)" class="st1" width="1604.4" height="2"/>
		</g>
		<g>
			
				<rect x="-1010.5" y="491.3" transform="matrix(0.7071 -0.7071 0.7071 0.7071 -409.1375 -3.085)" class="st1" width="1604.4" height="2"/>
		</g>
	</g>
</g>
</svg>
